<?xml version="1.0" encoding="UTF-8" standalone="no"?>
<!DOCTYPE svg PUBLIC "-//W3C//DTD SVG 1.1//EN" "http://www.w3.org/Graphics/SVG/1.1/DTD/svg11.dtd">
<svg width="100%" height="100%" viewBox="0 0 609 540" version="1.1" xmlns="http://www.w3.org/2000/svg" xmlns:xlink="http://www.w3.org/1999/xlink" xml:space="preserve" xmlns:serif="http://www.serif.com/" style="fill-rule:evenodd;clip-rule:evenodd;stroke-linecap:round;stroke-linejoin:round;stroke-miterlimit:1.5;">
    <g id="Artboard1" transform="matrix(1,0,0,1,-1942,0)">
        <rect x="1942" y="0" width="609" height="540" style="fill:none;"/>
        <g id="CABINET-open" serif:id="CABINET open" transform="matrix(1,0,0,1,1264.68,-124.866)">
            <g transform="matrix(0.126977,0,0,0.794371,827.676,74.762)">
                <path d="M446.845,84.506C454.814,78.661 489.061,74.715 526.27,75.356C563.479,75.997 591.686,81.017 591.686,86.999C591.686,251.492 591.686,561.099 591.686,718.932C591.686,724.862 563.96,729.856 527.128,730.56C490.295,731.264 455.982,727.457 447.233,721.695C399.25,690.096 353.762,660.141 337.014,649.111C332.514,646.147 330.239,643.109 330.239,640.059C330.239,594.114 330.239,217.86 330.239,174.172C330.239,171.425 332.085,168.685 335.744,166.001C351.315,154.58 397.735,120.529 446.845,84.506Z" style="fill:url(#_Linear1);"/>
                <clipPath id="_clip2">
                    <path d="M446.845,84.506C454.814,78.661 489.061,74.715 526.27,75.356C563.479,75.997 591.686,81.017 591.686,86.999C591.686,251.492 591.686,561.099 591.686,718.932C591.686,724.862 563.96,729.856 527.128,730.56C490.295,731.264 455.982,727.457 447.233,721.695C399.25,690.096 353.762,660.141 337.014,649.111C332.514,646.147 330.239,643.109 330.239,640.059C330.239,594.114 330.239,217.86 330.239,174.172C330.239,171.425 332.085,168.685 335.744,166.001C351.315,154.58 397.735,120.529 446.845,84.506Z"/>
                </clipPath>
                <g clip-path="url(#_clip2)">
                    <g transform="matrix(7.87546,0,0,1.25886,-3817.49,-69.8773)">
                        <path d="M559.863,116.558L559.863,635.911L555.331,635.911C548.667,635.911 543.264,630.508 543.264,623.844C543.264,553.383 543.264,195.926 543.264,127.788C543.264,124.809 544.447,121.953 546.553,119.847C548.659,117.741 551.515,116.558 554.494,116.558C557.466,116.558 559.863,116.558 559.863,116.558Z" style="fill:rgb(204,204,204);"/>
                    </g>
                </g>
                <path d="M446.845,84.506C454.814,78.661 489.061,74.715 526.27,75.356C563.479,75.997 591.686,81.017 591.686,86.999C591.686,251.492 591.686,561.099 591.686,718.932C591.686,724.862 563.96,729.856 527.128,730.56C490.295,731.264 455.982,727.457 447.233,721.695C399.25,690.096 353.762,660.141 337.014,649.111C332.514,646.147 330.239,643.109 330.239,640.059C330.239,594.114 330.239,217.86 330.239,174.172C330.239,171.425 332.085,168.685 335.744,166.001C351.315,154.58 397.735,120.529 446.845,84.506Z" style="fill:none;stroke:rgb(162,162,162);stroke-width:3.58px;"/>
            </g>
            <g transform="matrix(-1,0,0,0.772602,1674.58,89.0696)">
                <path d="M799.548,340.477C802.7,340.477 805.413,343.361 806.025,347.363C807.446,356.651 809.995,373.311 811.701,384.462C812.846,391.948 812.846,399.653 811.701,407.14C809.995,418.29 807.446,434.95 806.025,444.238C805.413,448.241 802.7,451.125 799.548,451.125C799.25,451.125 798.948,451.125 798.644,451.125C796.668,451.125 794.796,449.979 793.541,448.003C792.287,446.027 791.782,443.427 792.166,440.918C793.631,431.347 795.816,417.062 797.334,407.14C798.479,399.653 798.479,391.948 797.334,384.462C795.816,374.54 793.631,360.255 792.166,350.684C791.782,348.175 792.287,345.575 793.541,343.599C794.796,341.622 796.668,340.477 798.644,340.477C798.948,340.477 799.25,340.477 799.548,340.477Z" style="fill:url(#_Linear3);"/>
            </g>
        </g>
    </g>
    <defs>
        <linearGradient id="_Linear1" x1="0" y1="0" x2="1" y2="0" gradientUnits="userSpaceOnUse" gradientTransform="matrix(1.8012e-14,1067.39,-229.294,5.09469e-14,500.229,-21.739)"><stop offset="0" style="stop-color:rgb(244,244,244);stop-opacity:1"/><stop offset="0.65" style="stop-color:rgb(233,233,233);stop-opacity:1"/><stop offset="1" style="stop-color:rgb(170,170,170);stop-opacity:1"/></linearGradient>
        <linearGradient id="_Linear3" x1="0" y1="0" x2="1" y2="0" gradientUnits="userSpaceOnUse" gradientTransform="matrix(2.95215e-17,127.384,-0.0552195,8.93371e-16,804.296,323.741)"><stop offset="0" style="stop-color:black;stop-opacity:1"/><stop offset="0.15" style="stop-color:rgb(14,18,21);stop-opacity:1"/><stop offset="0.28" style="stop-color:rgb(57,76,88);stop-opacity:1"/><stop offset="0.62" style="stop-color:rgb(13,17,20);stop-opacity:1"/><stop offset="1" style="stop-color:black;stop-opacity:1"/></linearGradient>
    </defs>
</svg>
