<?xml version="1.0" encoding="UTF-8" standalone="no"?>
<!DOCTYPE svg PUBLIC "-//W3C//DTD SVG 1.1//EN" "http://www.w3.org/Graphics/SVG/1.1/DTD/svg11.dtd">
<svg width="100%" height="100%" viewBox="0 0 1024 768" version="1.1" xmlns="http://www.w3.org/2000/svg" xmlns:xlink="http://www.w3.org/1999/xlink" xml:space="preserve" xmlns:serif="http://www.serif.com/" style="fill-rule:evenodd;clip-rule:evenodd;stroke-linejoin:round;stroke-miterlimit:2;">
    <g transform="matrix(1,0,0,1,-85.8918,-11.2046)">
        <g opacity="0.5">
            <path d="M650.246,296.774C650.246,311.427 652.479,325.993 656.867,339.973C672.632,390.194 712.703,517.848 734.557,587.466C738.007,598.458 736.018,610.437 729.199,619.724C722.381,629.01 711.548,634.496 700.027,634.496L495.757,634.496C484.236,634.496 473.403,629.01 466.584,619.724C459.766,610.437 457.776,598.458 461.227,587.466C483.081,517.848 523.152,390.194 538.916,339.973C543.305,325.993 545.537,311.427 545.537,296.774L545.537,170.229L650.246,170.229L650.246,296.774Z" style="fill:url(#_Linear1);"/>
        </g>
    </g>
    <g transform="matrix(1.17975,0,0,0.372192,-73.9062,114.253)">
        <g opacity="0.5">
            <rect x="452.314" y="117.763" width="89.085" height="33.176" style="fill:url(#_Linear2);"/>
        </g>
    </g>
    <g transform="matrix(0.938449,0,0,0.492207,28.3223,104.454)">
        <g opacity="0.5">
            <path d="M576.988,81.784C581.199,81.784 584.613,88.294 584.613,96.323L584.613,96.331C584.613,104.36 581.199,110.869 576.988,110.869L453.814,110.869C449.603,110.869 446.189,104.36 446.189,96.331L446.189,96.323C446.189,88.294 449.603,81.784 453.814,81.784L576.988,81.784Z" style="fill:url(#_Linear3);"/>
        </g>
    </g>
    <defs>
        <linearGradient id="_Linear1" x1="0" y1="0" x2="1" y2="0" gradientUnits="userSpaceOnUse" gradientTransform="matrix(302.856,0,0,302.856,446.464,389.142)"><stop offset="0" style="stop-color:rgb(235,235,230);stop-opacity:1"/><stop offset="0.5" style="stop-color:white;stop-opacity:1"/><stop offset="1" style="stop-color:rgb(235,235,230);stop-opacity:1"/></linearGradient>
        <linearGradient id="_Linear2" x1="0" y1="0" x2="1" y2="0" gradientUnits="userSpaceOnUse" gradientTransform="matrix(3.69238e-08,-141.889,141.889,3.69238e-08,496.857,185.222)"><stop offset="0" style="stop-color:rgb(243,243,243);stop-opacity:1"/><stop offset="0.56" style="stop-color:rgb(191,191,191);stop-opacity:1"/><stop offset="1" style="stop-color:rgb(169,169,169);stop-opacity:1"/></linearGradient>
        <linearGradient id="_Linear3" x1="0" y1="0" x2="1" y2="0" gradientUnits="userSpaceOnUse" gradientTransform="matrix(138.424,0,0,138.424,446.189,95.4986)"><stop offset="0" style="stop-color:rgb(235,235,230);stop-opacity:1"/><stop offset="0.17" style="stop-color:rgb(252,252,251);stop-opacity:1"/><stop offset="0.5" style="stop-color:white;stop-opacity:1"/><stop offset="0.83" style="stop-color:rgb(252,252,251);stop-opacity:1"/><stop offset="1" style="stop-color:rgb(235,235,230);stop-opacity:1"/></linearGradient>
    </defs>
</svg>
