<?xml version="1.0" encoding="UTF-8" standalone="no"?>
<!DOCTYPE svg PUBLIC "-//W3C//DTD SVG 1.1//EN" "http://www.w3.org/Graphics/SVG/1.1/DTD/svg11.dtd">
<svg width="100%" height="100%" viewBox="0 0 70 367" version="1.1" xmlns="http://www.w3.org/2000/svg" xmlns:xlink="http://www.w3.org/1999/xlink" xml:space="preserve" xmlns:serif="http://www.serif.com/" style="fill-rule:evenodd;clip-rule:evenodd;stroke-linejoin:round;stroke-miterlimit:2;">
    <g transform="matrix(1,0,0,1,0,-429)">
        <g id="_9-Slice-Version" serif:id="9 Slice Version" transform="matrix(0.287535,0,0,1.23154,7.76346,-71.0067)">
            <rect x="-27" y="406" width="240" height="298" style="fill:none;"/>
            <g transform="matrix(3.47783,0,0,0.811989,-56.5465,-259.019)">
                <path d="M60.5,986L25.5,986L60.5,946.67L60.5,986Z" style="fill:url(#_Linear1);"/>
            </g>
            <g transform="matrix(3.47783,0,0,0.811989,-138.276,137.91)">
                <path d="M76,348L84,348L84,457.835L49,497.165L49,358L76,348Z" style="fill:url(#_Linear2);"/>
            </g>
            <g transform="matrix(2.533,0,0,0.591395,-160.3,53.6683)">
                <rect x="73" y="896" width="54" height="54" style="fill:url(#_Linear3);"/>
            </g>
            <g transform="matrix(3.47783,0,0,0.811989,-56.5465,-259.019)">
                <path d="M60.5,986L25.5,986L25.5,846.835L37,846.835L37,969.14C37,970.213 37.358,971.204 37.961,971.998C38.825,973.136 40.192,973.872 41.732,973.872L60.5,973.872L60.5,986Z" style="fill:white;"/>
            </g>
            <g transform="matrix(4.25068,0,0,0.811989,70.3941,-281.077)">
                <path d="M19.636,864L0,874L-9,874L13.091,864L19.636,864Z" style="fill:url(#_Linear4);"/>
            </g>
            <g transform="matrix(0.17227,0,0,0.757553,-3.47109,-131.454)">
                <rect x="163" y="973" width="794" height="13" style="fill:white;"/>
            </g>
            <g transform="matrix(2.91026,0,0,0.679475,-267.392,401.123)">
                <rect x="100.335" y="339" width="47" height="47" style="fill:none;"/>
            </g>
            <g transform="matrix(4.31895,0,0,1.00837,-40.1753,391.462)">
                <rect x="15" y="267" width="31.67" height="31.67" style="fill:white;fill-opacity:0.25;"/>
            </g>
        </g>
    </g>
    <defs>
        <linearGradient id="_Linear1" x1="0" y1="0" x2="1" y2="0" gradientUnits="userSpaceOnUse" gradientTransform="matrix(2.29445e-14,-38.83,374.712,2.37765e-15,512,986.899)"><stop offset="0" style="stop-color:rgb(210,226,230);stop-opacity:1"/><stop offset="0.12" style="stop-color:rgb(214,233,239);stop-opacity:1"/><stop offset="0.22" style="stop-color:rgb(215,236,243);stop-opacity:1"/><stop offset="1" style="stop-color:rgb(210,226,230);stop-opacity:1"/></linearGradient>
        <linearGradient id="_Linear2" x1="0" y1="0" x2="1" y2="0" gradientUnits="userSpaceOnUse" gradientTransform="matrix(9.11939e-16,156.637,-14.8931,9.59126e-15,66.5,343.958)"><stop offset="0" style="stop-color:rgb(210,226,230);stop-opacity:1"/><stop offset="0.01" style="stop-color:rgb(214,234,241);stop-opacity:1"/><stop offset="0.02" style="stop-color:rgb(215,236,243);stop-opacity:1"/><stop offset="0.06" style="stop-color:rgb(182,206,220);stop-opacity:1"/><stop offset="0.68" style="stop-color:rgb(186,209,221);stop-opacity:1"/><stop offset="1" style="stop-color:rgb(210,226,230);stop-opacity:1"/></linearGradient>
        <linearGradient id="_Linear3" x1="0" y1="0" x2="1" y2="0" gradientUnits="userSpaceOnUse" gradientTransform="matrix(1.27338e-15,-53.3139,20.7959,3.26453e-15,100,951.234)"><stop offset="0" style="stop-color:rgb(210,226,230);stop-opacity:1"/><stop offset="0.12" style="stop-color:rgb(214,233,239);stop-opacity:1"/><stop offset="0.22" style="stop-color:rgb(215,236,243);stop-opacity:1"/><stop offset="1" style="stop-color:rgb(210,226,230);stop-opacity:1"/></linearGradient>
        <linearGradient id="_Linear4" x1="0" y1="0" x2="1" y2="0" gradientUnits="userSpaceOnUse" gradientTransform="matrix(2.1223e-16,-62.1995,3.46599,3.80862e-15,-4.5,875.439)"><stop offset="0" style="stop-color:rgb(210,226,230);stop-opacity:1"/><stop offset="0.12" style="stop-color:rgb(214,233,239);stop-opacity:1"/><stop offset="0.22" style="stop-color:rgb(215,236,243);stop-opacity:1"/><stop offset="1" style="stop-color:rgb(210,226,230);stop-opacity:1"/></linearGradient>
    </defs>
</svg>
