<?xml version="1.0" encoding="UTF-8" standalone="no"?>
<!DOCTYPE svg PUBLIC "-//W3C//DTD SVG 1.1//EN" "http://www.w3.org/Graphics/SVG/1.1/DTD/svg11.dtd">
<svg width="100%" height="100%" viewBox="0 0 1024 768" version="1.1" xmlns="http://www.w3.org/2000/svg" xmlns:xlink="http://www.w3.org/1999/xlink" xml:space="preserve" xmlns:serif="http://www.serif.com/" style="fill-rule:evenodd;clip-rule:evenodd;stroke-linejoin:round;stroke-miterlimit:2;">
    <g transform="matrix(0.731025,0,0,1.4825,107.532,-329.375)">
        <path d="M597.45,574C598.358,574 599.225,574.185 599.847,574.511C600.469,574.837 600.79,575.275 600.735,575.722C598.818,591.205 584.589,706.166 583.122,718.014C583.053,718.568 582.123,719 580.997,719C580.973,719 580.948,719 580.924,719C579.842,719 578.946,718.586 578.876,718.053C577.356,706.421 562.306,591.249 560.278,575.727C560.219,575.28 560.539,574.84 561.161,574.513C561.783,574.186 562.652,574 563.562,574C571.296,574 589.727,574 597.45,574Z" style="fill:rgb(231,226,212);fill-opacity:0.5;"/>
    </g>
</svg>
