<?xml version="1.0" encoding="UTF-8" standalone="no"?>
<svg
   width="100%"
   height="100%"
   viewBox="0 0 1024 768"
   version="1.1"
   xml:space="preserve"
   style="fill-rule:evenodd;clip-rule:evenodd;stroke-linejoin:round;stroke-miterlimit:2;"
   id="svg27"
   sodipodi:docname="power_supply_large_clean.svg"
   inkscape:version="1.4.3 (0d15f75, 2025-12-25)"
   xmlns:inkscape="http://www.inkscape.org/namespaces/inkscape"
   xmlns:sodipodi="http://sodipodi.sourceforge.net/DTD/sodipodi-0.dtd"
   xmlns="http://www.w3.org/2000/svg"
   xmlns:svg="http://www.w3.org/2000/svg"><sodipodi:namedview
   id="namedview27"
   pagecolor="#ffffff"
   bordercolor="#000000"
   borderopacity="0.25"
   inkscape:showpageshadow="2"
   inkscape:pageopacity="0.0"
   inkscape:pagecheckerboard="0"
   inkscape:deskcolor="#d1d1d1"
   inkscape:zoom="0.63880929"
   inkscape:cx="417.96512"
   inkscape:cy="308.38625"
   inkscape:window-width="1470"
   inkscape:window-height="891"
   inkscape:window-x="0"
   inkscape:window-y="37"
   inkscape:window-maximized="0"
   inkscape:current-layer="svg27" />
    <g
   transform="matrix(1,0,0,1,-13.3294,78.7893)"
   id="g1">
        <path
   d="m 786.96132,20.57566 c 5.41,0 10.598,2.149 14.423,5.975 3.825,3.825 5.97734,9.012997 5.974,14.423 L 807.118,430.66 c -0.003,5.409 -2.149,10.597 -5.974,14.423 -3.825,3.825 -9.013,5.974 -14.423,5.974 H 263.938 c -5.41,0 -10.598,-2.149 -14.423,-5.974 -3.826,-3.826 -5.97834,-9.014 -5.975,-14.423 l 0.24032,-389.68634 c 0.003,-5.410002 2.149,-10.598 5.975,-14.423 3.825,-3.826 9.013,-5.975 14.423,-5.975 z"
   style="fill:url(#_Linear1)"
   id="path1"
   sodipodi:nodetypes="scsscssssscss" />
    </g>
    <g
   transform="matrix(0.963404,0,0,0.913888,5.89533,107.143)"
   id="g2">
        <path
   d="m 785.946,2.8278984 c 5.615,0 11.001,2.352 14.971,6.538 3.971,4.1849996 6.201,9.8619996 6.201,15.7819996 V 428.738 c 0,5.919 -2.23,11.596 -6.201,15.782 -3.97,4.186 -9.356,6.537 -14.971,6.537 H 264.713 c -5.616,0 -11.001,-2.351 -14.971,-6.537 -3.971,-4.186 -6.202,-9.863 -6.202,-15.782 V 25.147898 c 0,-5.92 2.231,-11.597 6.202,-15.7819996 3.97,-4.186 9.355,-6.538 14.971,-6.538 z"
   style="fill:#393939"
   id="path2"
   sodipodi:nodetypes="scsscsscsscss" />
    </g>
    <g
   transform="matrix(0.85421,0,0,0.85421,68.8475,220.082)"
   id="g3"
   style="display:none">
        <circle
   cx="277.40302"
   cy="169.66299"
   r="47.192001"
   style="fill:url(#_Linear2)"
   id="circle2" />
    </g>
    <g
   transform="matrix(0.85421,0,0,0.85421,68.8475,311.928)"
   id="g4"
   style="display:none">
        <path
   d="m 230.324,166.378 c 1.688,-24.516 22.137,-43.908 47.079,-43.908 24.942,0 45.391,19.392 47.08,43.908 -1.689,24.517 -22.138,43.908 -47.08,43.908 -24.942,0 -45.391,-19.391 -47.079,-43.908 z"
   style="fill:url(#_Linear3)"
   id="path3" />
    </g>
    <path
   d="m 346.024,454.05 c 0.064,0.927 0.096,1.862 0.096,2.805 0,22.249 -18.063,40.312 -40.312,40.312 -22.249,0 -40.312,-18.063 -40.312,-40.312 0,-0.943 0.033,-1.878 0.096,-2.805 1.443,20.942 18.91,37.507 40.216,37.507 21.306,0 38.774,-16.565 40.216,-37.507 z"
   style="display:none;fill:url(#_Linear4)"
   id="path4" />
    <g
   transform="translate(0,-91.6087)"
   id="g5"
   style="display:none">
        <path
   d="m 346.024,454.05 c 0.064,0.927 0.096,1.862 0.096,2.805 0,22.249 -18.063,40.312 -40.312,40.312 -22.249,0 -40.312,-18.063 -40.312,-40.312 0,-0.943 0.033,-1.878 0.096,-2.805 1.443,20.942 18.91,37.507 40.216,37.507 21.306,0 38.774,-16.565 40.216,-37.507 z"
   style="fill:url(#_Linear5)"
   id="path5" />
    </g>
    <g
   transform="matrix(1.48412,0,0,0.641502,-103.776,208.274)"
   id="g6"
   style="display:none">
        <path
   d="m 499.425,243.964 v 143.898 c 0,6.179 -2.165,11.188 -4.836,11.188 H 320.493 c -2.671,0 -4.836,-5.009 -4.836,-11.188 V 243.964 c 0,-6.18 2.165,-11.189 4.836,-11.189 h 174.096 c 2.671,0 4.836,5.009 4.836,11.189 z"
   style="fill:#ececec"
   id="path6" />
    </g>
    <g
   transform="matrix(1,0,0,0.550183,0,205.606)"
   id="g7"
   style="display:none">
        <path
   d="m 637.43,457.088 v 11.222 c 0,3.964 -3.214,7.177 -7.178,7.177 H 371.873 c -3.964,0 -7.177,-3.213 -7.177,-7.177 v -11.222 c 0,3.964 3.213,7.177 7.177,7.177 h 258.379 c 3.964,0 7.178,-3.213 7.178,-7.177 z"
   style="fill:url(#_Linear6)"
   id="path7" />
    </g>
    <g
   transform="matrix(0.518521,0,0,0.339748,494.632,304.915)"
   id="g8"
   style="display:none">
        <path
   d="m 485.583,232.775 c 3.671,0 7.192,2.226 9.788,6.188 2.596,3.962 4.054,9.335 4.054,14.938 0,35.366 0,106.15 0,141.516 0,5.603 -1.458,10.977 -4.054,14.939 -2.596,3.961 -6.117,6.187 -9.788,6.187 -34.121,0 -121.963,0 -156.084,0 -3.671,0 -7.192,-2.226 -9.788,-6.187 -2.596,-3.962 -4.054,-9.336 -4.054,-14.939 0,-35.366 0,-106.15 0,-141.516 0,-5.603 1.458,-10.976 4.054,-14.938 2.596,-3.962 6.117,-6.188 9.788,-6.188 34.121,0 121.963,0 156.084,0 z"
   style="fill:#33c608"
   id="path8" />
    </g>
    <defs
   id="defs27">
        <linearGradient
   id="_Linear1"
   x1="0"
   y1="0"
   x2="1"
   y2="0"
   gradientUnits="userSpaceOnUse"
   gradientTransform="matrix(4.24462e-15,69.3199,-69.3199,4.24462e-15,554.209,399.743)"><stop
     offset="0"
     style="stop-color:rgb(235,235,235);stop-opacity:1"
     id="stop8" /><stop
     offset="0.47"
     style="stop-color:rgb(215,215,215);stop-opacity:1"
     id="stop9" /><stop
     offset="1"
     style="stop-color:rgb(163,163,163);stop-opacity:1"
     id="stop10" /></linearGradient>
        <linearGradient
   id="_Linear2"
   x1="0"
   y1="0"
   x2="1"
   y2="0"
   gradientUnits="userSpaceOnUse"
   gradientTransform="matrix(5.77939e-15,94.3845,-94.3845,5.77939e-15,277.403,122.47)"><stop
     offset="0"
     style="stop-color:rgb(236,236,236);stop-opacity:1"
     id="stop11" /><stop
     offset="0.61"
     style="stop-color:rgb(224,224,224);stop-opacity:1"
     id="stop12" /><stop
     offset="1"
     style="stop-color:rgb(163,163,163);stop-opacity:1"
     id="stop13" /></linearGradient>
        <linearGradient
   id="_Linear3"
   x1="0"
   y1="0"
   x2="1"
   y2="0"
   gradientUnits="userSpaceOnUse"
   gradientTransform="matrix(5.77939e-15,94.3845,-94.3845,5.77939e-15,277.403,122.47)"><stop
     offset="0"
     style="stop-color:rgb(236,236,236);stop-opacity:1"
     id="stop14" /><stop
     offset="0.6"
     style="stop-color:rgb(223,223,223);stop-opacity:1"
     id="stop15" /><stop
     offset="0.81"
     style="stop-color:rgb(193,193,193);stop-opacity:1"
     id="stop16" /><stop
     offset="1"
     style="stop-color:rgb(163,163,163);stop-opacity:1"
     id="stop17" /></linearGradient>
        <linearGradient
   id="_Linear4"
   x1="0"
   y1="0"
   x2="1"
   y2="0"
   gradientUnits="userSpaceOnUse"
   gradientTransform="matrix(6.12323e-17,1,-1,6.12323e-17,0.5,-4.44089e-16)"><stop
     offset="0"
     style="stop-color:rgb(236,236,236);stop-opacity:1"
     id="stop18" /><stop
     offset="0.6"
     style="stop-color:rgb(223,223,223);stop-opacity:1"
     id="stop19" /><stop
     offset="0.81"
     style="stop-color:rgb(193,193,193);stop-opacity:1"
     id="stop20" /><stop
     offset="1"
     style="stop-color:rgb(163,163,163);stop-opacity:1"
     id="stop21" /></linearGradient>
        <linearGradient
   id="_Linear5"
   x1="0"
   y1="0"
   x2="1"
   y2="0"
   gradientUnits="userSpaceOnUse"
   gradientTransform="matrix(6.12323e-17,1,-1,6.12323e-17,0.5,-4.44089e-16)"><stop
     offset="0"
     style="stop-color:rgb(236,236,236);stop-opacity:1"
     id="stop22" /><stop
     offset="0.6"
     style="stop-color:rgb(223,223,223);stop-opacity:1"
     id="stop23" /><stop
     offset="0.81"
     style="stop-color:rgb(193,193,193);stop-opacity:1"
     id="stop24" /><stop
     offset="1"
     style="stop-color:rgb(163,163,163);stop-opacity:1"
     id="stop25" /></linearGradient>
        <linearGradient
   id="_Linear6"
   x1="0"
   y1="0"
   x2="1"
   y2="0"
   gradientUnits="userSpaceOnUse"
   gradientTransform="matrix(2.45417e-15,-40.0797,40.0797,2.45417e-15,493.861,497.167)"><stop
     offset="0"
     style="stop-color:rgb(236,236,236);stop-opacity:1"
     id="stop26" /><stop
     offset="1"
     style="stop-color:rgb(163,163,163);stop-opacity:1"
     id="stop27" /></linearGradient>
    </defs>
</svg>
