<?xml version="1.0" encoding="UTF-8" standalone="no"?>
<!DOCTYPE svg PUBLIC "-//W3C//DTD SVG 1.1//EN" "http://www.w3.org/Graphics/SVG/1.1/DTD/svg11.dtd">
<svg width="100%" height="100%" viewBox="0 0 1024 768" version="1.1" xmlns="http://www.w3.org/2000/svg" xmlns:xlink="http://www.w3.org/1999/xlink" xml:space="preserve" xmlns:serif="http://www.serif.com/" style="fill-rule:evenodd;clip-rule:evenodd;stroke-linejoin:round;stroke-miterlimit:2;">
    <g transform="matrix(1,0,0,1,-13.3294,78.7893)">
        <path d="M786.721,226.05C792.131,226.05 797.319,228.199 801.144,232.025C804.969,235.85 807.118,241.038 807.118,246.448C807.118,289.224 807.118,387.884 807.118,430.66C807.118,436.069 804.969,441.257 801.144,445.083C797.319,448.908 792.131,451.057 786.721,451.057C698.708,451.057 351.951,451.057 263.938,451.057C258.528,451.057 253.34,448.908 249.515,445.083C245.689,441.257 243.54,436.069 243.54,430.66C243.54,387.884 243.54,289.224 243.54,246.448C243.54,241.038 245.689,235.85 249.515,232.025C253.34,228.199 258.528,226.05 263.938,226.05C351.951,226.05 698.708,226.05 786.721,226.05Z" style="fill:url(#_Linear1);"/>
    </g>
    <g transform="matrix(0.963404,0,0,0.913888,5.89533,107.143)">
        <path d="M785.946,226.05C791.561,226.05 796.947,228.402 800.917,232.588C804.888,236.773 807.118,242.45 807.118,248.37C807.118,291.459 807.118,385.648 807.118,428.738C807.118,434.657 804.888,440.334 800.917,444.52C796.947,448.706 791.561,451.057 785.946,451.057C696.953,451.057 353.706,451.057 264.713,451.057C259.097,451.057 253.712,448.706 249.742,444.52C245.771,440.334 243.54,434.657 243.54,428.738C243.54,385.648 243.54,291.459 243.54,248.37C243.54,242.45 245.771,236.773 249.742,232.588C253.712,228.402 259.097,226.05 264.713,226.05C353.706,226.05 696.953,226.05 785.946,226.05Z" style="fill:rgb(57,57,57);"/>
    </g>
    <g transform="matrix(0.85421,0,0,0.85421,68.8475,220.082)">
        <circle cx="277.403" cy="169.663" r="47.192" style="fill:url(#_Linear2);"/>
    </g>
    <g transform="matrix(0.85421,0,0,0.85421,68.8475,311.928)">
        <path d="M230.324,166.378C232.012,141.862 252.461,122.47 277.403,122.47C302.345,122.47 322.794,141.862 324.483,166.378C322.794,190.895 302.345,210.286 277.403,210.286C252.461,210.286 232.012,190.895 230.324,166.378Z" style="fill:url(#_Linear3);"/>
    </g>
    <path d="M346.024,454.05C346.088,454.977 346.12,455.912 346.12,456.855C346.12,479.104 328.057,497.167 305.808,497.167C283.559,497.167 265.496,479.104 265.496,456.855C265.496,455.912 265.529,454.977 265.592,454.05C267.035,474.992 284.502,491.557 305.808,491.557C327.114,491.557 344.582,474.992 346.024,454.05Z" style="fill:url(#_Linear4);"/>
    <g transform="matrix(1,0,0,1,0,-91.6087)">
        <path d="M346.024,454.05C346.088,454.977 346.12,455.912 346.12,456.855C346.12,479.104 328.057,497.167 305.808,497.167C283.559,497.167 265.496,479.104 265.496,456.855C265.496,455.912 265.529,454.977 265.592,454.05C267.035,474.992 284.502,491.557 305.808,491.557C327.114,491.557 344.582,474.992 346.024,454.05Z" style="fill:url(#_Linear5);"/>
    </g>
    <g transform="matrix(1.48412,0,0,0.641502,-103.776,208.274)">
        <path d="M499.425,243.964L499.425,387.862C499.425,394.041 497.26,399.05 494.589,399.05L320.493,399.05C317.822,399.05 315.657,394.041 315.657,387.862L315.657,243.964C315.657,237.784 317.822,232.775 320.493,232.775L494.589,232.775C497.26,232.775 499.425,237.784 499.425,243.964Z" style="fill:rgb(236,236,236);"/>
    </g>
    <g transform="matrix(1,0,0,0.550183,0,205.606)">
        <path d="M637.43,457.088L637.43,468.31C637.43,472.274 634.216,475.487 630.252,475.487L371.873,475.487C367.909,475.487 364.696,472.274 364.696,468.31L364.696,457.088C364.696,461.052 367.909,464.265 371.873,464.265L630.252,464.265C634.216,464.265 637.43,461.052 637.43,457.088Z" style="fill:url(#_Linear6);"/>
    </g>
    <g transform="matrix(0.518521,0,0,0.339748,494.632,304.915)">
        <path d="M485.583,232.775C489.254,232.775 492.775,235.001 495.371,238.963C497.967,242.925 499.425,248.298 499.425,253.901C499.425,289.267 499.425,360.051 499.425,395.417C499.425,401.02 497.967,406.394 495.371,410.356C492.775,414.317 489.254,416.543 485.583,416.543C451.462,416.543 363.62,416.543 329.499,416.543C325.828,416.543 322.307,414.317 319.711,410.356C317.115,406.394 315.657,401.02 315.657,395.417C315.657,360.051 315.657,289.267 315.657,253.901C315.657,248.298 317.115,242.925 319.711,238.963C322.307,235.001 325.828,232.775 329.499,232.775C363.62,232.775 451.462,232.775 485.583,232.775Z" style="fill:rgb(51,198,8);"/>
    </g>
    <defs>
        <linearGradient id="_Linear1" x1="0" y1="0" x2="1" y2="0" gradientUnits="userSpaceOnUse" gradientTransform="matrix(4.24462e-15,69.3199,-69.3199,4.24462e-15,554.209,399.743)"><stop offset="0" style="stop-color:rgb(235,235,235);stop-opacity:1"/><stop offset="0.47" style="stop-color:rgb(215,215,215);stop-opacity:1"/><stop offset="1" style="stop-color:rgb(163,163,163);stop-opacity:1"/></linearGradient>
        <linearGradient id="_Linear2" x1="0" y1="0" x2="1" y2="0" gradientUnits="userSpaceOnUse" gradientTransform="matrix(5.77939e-15,94.3845,-94.3845,5.77939e-15,277.403,122.47)"><stop offset="0" style="stop-color:rgb(236,236,236);stop-opacity:1"/><stop offset="0.61" style="stop-color:rgb(224,224,224);stop-opacity:1"/><stop offset="1" style="stop-color:rgb(163,163,163);stop-opacity:1"/></linearGradient>
        <linearGradient id="_Linear3" x1="0" y1="0" x2="1" y2="0" gradientUnits="userSpaceOnUse" gradientTransform="matrix(5.77939e-15,94.3845,-94.3845,5.77939e-15,277.403,122.47)"><stop offset="0" style="stop-color:rgb(236,236,236);stop-opacity:1"/><stop offset="0.6" style="stop-color:rgb(223,223,223);stop-opacity:1"/><stop offset="0.81" style="stop-color:rgb(193,193,193);stop-opacity:1"/><stop offset="1" style="stop-color:rgb(163,163,163);stop-opacity:1"/></linearGradient>
        <linearGradient id="_Linear4" x1="0" y1="0" x2="1" y2="0" gradientUnits="userSpaceOnUse" gradientTransform="matrix(6.12323e-17,1,-1,6.12323e-17,0.5,-4.44089e-16)"><stop offset="0" style="stop-color:rgb(236,236,236);stop-opacity:1"/><stop offset="0.6" style="stop-color:rgb(223,223,223);stop-opacity:1"/><stop offset="0.81" style="stop-color:rgb(193,193,193);stop-opacity:1"/><stop offset="1" style="stop-color:rgb(163,163,163);stop-opacity:1"/></linearGradient>
        <linearGradient id="_Linear5" x1="0" y1="0" x2="1" y2="0" gradientUnits="userSpaceOnUse" gradientTransform="matrix(6.12323e-17,1,-1,6.12323e-17,0.5,-4.44089e-16)"><stop offset="0" style="stop-color:rgb(236,236,236);stop-opacity:1"/><stop offset="0.6" style="stop-color:rgb(223,223,223);stop-opacity:1"/><stop offset="0.81" style="stop-color:rgb(193,193,193);stop-opacity:1"/><stop offset="1" style="stop-color:rgb(163,163,163);stop-opacity:1"/></linearGradient>
        <linearGradient id="_Linear6" x1="0" y1="0" x2="1" y2="0" gradientUnits="userSpaceOnUse" gradientTransform="matrix(2.45417e-15,-40.0797,40.0797,2.45417e-15,493.861,497.167)"><stop offset="0" style="stop-color:rgb(236,236,236);stop-opacity:1"/><stop offset="1" style="stop-color:rgb(163,163,163);stop-opacity:1"/></linearGradient>
    </defs>
</svg>
