<?xml version="1.0" encoding="UTF-8" standalone="no"?>
<!DOCTYPE svg PUBLIC "-//W3C//DTD SVG 1.1//EN" "http://www.w3.org/Graphics/SVG/1.1/DTD/svg11.dtd">
<svg width="100%" height="100%" viewBox="0 0 478 478" version="1.1" xmlns="http://www.w3.org/2000/svg" xmlns:xlink="http://www.w3.org/1999/xlink" xml:space="preserve" xmlns:serif="http://www.serif.com/" style="fill-rule:evenodd;clip-rule:evenodd;stroke-linecap:round;stroke-linejoin:round;stroke-miterlimit:1.5;">
    <g transform="matrix(1,0,0,1,0,-106)">
        <g id="Artboard2" transform="matrix(1,0,0,1,1774,0)">
            <rect x="-1774" y="106" width="478" height="478" style="fill:none;"/>
            <g transform="matrix(1,0,0,1,-3190.82,-427.186)">
                <path d="M1706.57,715.69C1708.09,715.69 1709.56,716.295 1710.63,717.374C1711.71,718.452 1712.32,719.914 1712.32,721.439L1712.32,822.932C1712.32,824.457 1711.71,825.919 1710.63,826.997C1709.56,828.076 1708.09,828.681 1706.57,828.681L1605.08,828.681C1603.55,828.681 1602.09,828.076 1601.01,826.997C1599.93,825.919 1599.33,824.457 1599.33,822.932L1599.33,721.439C1599.33,719.914 1599.93,718.452 1601.01,717.374C1602.09,716.295 1603.55,715.69 1605.08,715.69L1706.57,715.69Z" style="fill:url(#_Linear1);stroke:rgb(162,162,162);stroke-width:2.03px;"/>
            </g>
        </g>
    </g>
    <defs>
        <linearGradient id="_Linear1" x1="0" y1="0" x2="1" y2="0" gradientUnits="userSpaceOnUse" gradientTransform="matrix(7.78438e-15,143.826,-99.0958,6.86481e-15,1672.79,715.69)"><stop offset="0" style="stop-color:rgb(244,244,244);stop-opacity:1"/><stop offset="0.65" style="stop-color:rgb(233,233,233);stop-opacity:1"/><stop offset="1" style="stop-color:rgb(170,170,170);stop-opacity:1"/></linearGradient>
    </defs>
</svg>
