<?xml version="1.0" encoding="UTF-8" standalone="no"?>
<!DOCTYPE svg PUBLIC "-//W3C//DTD SVG 1.1//EN" "http://www.w3.org/Graphics/SVG/1.1/DTD/svg11.dtd">
<svg width="100%" height="100%" viewBox="0 0 1024 768" version="1.1" xmlns="http://www.w3.org/2000/svg" xmlns:xlink="http://www.w3.org/1999/xlink" xml:space="preserve" xmlns:serif="http://www.serif.com/" style="fill-rule:evenodd;clip-rule:evenodd;stroke-linejoin:round;stroke-miterlimit:2;">
    <g transform="matrix(4.92129,0,0,4.92129,-853.183,-451.644)">
        <circle cx="277.403" cy="169.663" r="47.192" style="fill:url(#_Linear1);"/>
    </g>
    <g transform="matrix(5.76122,0,0,5.76122,-1249.83,-2247.36)">
        <path d="M346.024,454.05C346.088,454.977 346.12,455.912 346.12,456.855C346.12,479.104 328.057,497.167 305.808,497.167C283.559,497.167 265.496,479.104 265.496,456.855C265.496,455.912 265.529,454.977 265.592,454.05C267.035,474.992 284.502,491.557 305.808,491.557C327.114,491.557 344.582,474.992 346.024,454.05Z" style="fill:url(#_Linear2);"/>
    </g>
    <defs>
        <linearGradient id="_Linear1" x1="0" y1="0" x2="1" y2="0" gradientUnits="userSpaceOnUse" gradientTransform="matrix(5.77939e-15,94.3845,-94.3845,5.77939e-15,277.403,122.47)"><stop offset="0" style="stop-color:rgb(236,236,236);stop-opacity:1"/><stop offset="0.61" style="stop-color:rgb(224,224,224);stop-opacity:1"/><stop offset="1" style="stop-color:rgb(163,163,163);stop-opacity:1"/></linearGradient>
        <linearGradient id="_Linear2" x1="0" y1="0" x2="1" y2="0" gradientUnits="userSpaceOnUse" gradientTransform="matrix(6.12323e-17,1,-1,6.12323e-17,0.5,-4.44089e-16)"><stop offset="0" style="stop-color:rgb(236,236,236);stop-opacity:1"/><stop offset="0.6" style="stop-color:rgb(223,223,223);stop-opacity:1"/><stop offset="0.81" style="stop-color:rgb(193,193,193);stop-opacity:1"/><stop offset="1" style="stop-color:rgb(163,163,163);stop-opacity:1"/></linearGradient>
    </defs>
</svg>
