<?xml version="1.0" encoding="UTF-8" standalone="no"?>
<!DOCTYPE svg PUBLIC "-//W3C//DTD SVG 1.1//EN" "http://www.w3.org/Graphics/SVG/1.1/DTD/svg11.dtd">
<svg width="100%" height="100%" viewBox="0 0 1024 768" version="1.1" xmlns="http://www.w3.org/2000/svg" xmlns:xlink="http://www.w3.org/1999/xlink" xml:space="preserve" xmlns:serif="http://www.serif.com/" style="fill-rule:evenodd;clip-rule:evenodd;stroke-linejoin:round;stroke-miterlimit:2;">
    <g transform="matrix(1,0,0,0.713077,-18.3841,530.608)">
        <rect x="493.55" y="13.411" width="73.669" height="168.271" style="fill:url(#_Linear1);"/>
    </g>
    <g transform="matrix(0.627766,0,0,1,198.019,-18.7549)">
        <rect x="441.48" y="566.969" width="117.351" height="33.197" style="fill:rgb(122,122,122);"/>
    </g>
    <g transform="matrix(0.70129,0,0,1.09548,143.3,-890.944)">
        <path d="M87.677,1306.39C87.658,1306.12 87.648,1305.86 87.648,1305.6L87.648,937.482C87.648,932.824 90.619,928.357 95.907,925.063C101.195,921.769 108.367,919.918 115.845,919.918L935.645,919.918C943.123,919.918 950.295,921.769 955.583,925.063C960.871,928.357 963.842,932.824 963.842,937.482L963.842,1305.6C963.842,1305.86 963.832,1306.12 963.813,1306.39L87.677,1306.39Z" style="fill:url(#_Linear2);"/>
    </g>
    <g transform="matrix(1.42582,0,0,1,-210.926,1.20894)">
        <path d="M582.765,658.952C588.125,658.952 593.266,661.989 597.057,667.393C600.847,672.797 602.976,680.127 602.976,687.77C602.976,687.771 602.976,687.771 602.976,687.771L411.072,687.771L411.072,687.77C411.072,680.127 413.202,672.797 416.992,667.393C420.783,661.989 425.923,658.952 431.284,658.952C468.149,658.952 545.9,658.952 582.765,658.952Z" style="fill:url(#_Linear3);"/>
    </g>
    <path d="M819.213,540.171C818.991,545.091 816.939,549.764 813.441,553.261C809.733,556.97 804.703,559.053 799.459,559.053L224.541,559.053C219.297,559.053 214.267,556.97 210.559,553.261C207.061,549.764 205.009,545.091 204.787,540.171L819.213,540.171Z" style="fill:url(#_Linear4);"/>
    <path d="M819.213,540.171C818.991,545.091 816.939,549.764 813.441,553.261C809.733,556.97 804.703,559.053 799.459,559.053L224.541,559.053C219.297,559.053 214.267,556.97 210.559,553.261C207.061,549.764 205.009,545.091 204.787,540.171L819.213,540.171Z" style="fill:url(#_Linear5);"/>
    <g transform="matrix(1,0,0,1,13.4267,6.14001)">
        <path d="M785.371,141.395L785.371,463.229C785.371,467.121 782.216,470.276 778.324,470.276L218.823,470.276C214.931,470.276 211.776,467.121 211.776,463.229L211.776,141.395C211.776,137.503 214.931,134.349 218.823,134.349L778.324,134.349C782.216,134.349 785.371,137.503 785.371,141.395Z" style="fill:rgb(34,97,109);"/>
        <clipPath id="_clip6">
            <path d="M785.371,141.395L785.371,463.229C785.371,467.121 782.216,470.276 778.324,470.276L218.823,470.276C214.931,470.276 211.776,467.121 211.776,463.229L211.776,141.395C211.776,137.503 214.931,134.349 218.823,134.349L778.324,134.349C782.216,134.349 785.371,137.503 785.371,141.395Z"/>
        </clipPath>
        <g clip-path="url(#_clip6)">
            <g transform="matrix(0.188881,0.327151,-1.54077,0.889563,664.395,-215.309)">
                <rect x="358.738" y="160.33" width="71.212" height="283.207" style="fill:rgb(44,112,125);"/>
            </g>
            <g transform="matrix(0.432458,0.749039,-1.54077,0.889563,650.89,-366.656)">
                <rect x="358.738" y="160.33" width="71.212" height="283.207" style="fill:rgb(44,112,125);"/>
            </g>
        </g>
    </g>
    <g transform="matrix(1.35283,0,0,0.91776,-217.521,20.033)">
        <path d="M327.259,140.489L327.259,138.927C327.259,134.687 329.591,131.249 332.468,131.249L746.048,131.249C748.924,131.249 751.256,134.687 751.256,138.927L751.256,140.489L327.259,140.489Z" style="fill:url(#_Linear7);"/>
    </g>
    <g transform="matrix(-1.35283,1.65673e-16,-1.12393e-16,-0.91776,1241.52,596.872)">
        <path d="M327.259,140.489L327.259,138.927C327.259,134.687 329.591,131.249 332.468,131.249L746.048,131.249C748.924,131.249 751.256,134.687 751.256,138.927L751.256,140.489L327.259,140.489Z" style="fill:url(#_Linear8);"/>
    </g>
    <g transform="matrix(0.97361,0,0,0.238255,12.088,384.69)">
        <path d="M564.577,495.652C566.844,495.652 568.681,503.161 568.681,512.424C568.681,512.427 568.681,512.43 568.681,512.433C568.681,521.696 566.844,529.205 564.577,529.205C547.193,529.205 479.731,529.205 462.348,529.205C460.081,529.205 458.244,521.696 458.244,512.433C458.244,512.43 458.244,512.427 458.244,512.424C458.244,503.161 460.081,495.652 462.348,495.652C479.731,495.652 547.193,495.652 564.577,495.652Z" style="fill:rgb(166,166,166);"/>
    </g>
    <g transform="matrix(0.17277,0,0,0.516452,667.734,244.649)">
        <path d="M518.534,495.652C546.229,495.652 568.681,503.163 568.681,512.428C568.681,512.428 568.681,512.429 568.681,512.429C568.681,521.694 546.229,529.205 518.534,529.205C515.161,529.205 511.763,529.205 508.391,529.205C480.695,529.205 458.244,521.694 458.244,512.429C458.244,512.429 458.244,512.428 458.244,512.428C458.244,503.163 480.695,495.652 508.391,495.652C511.763,495.652 515.161,495.652 518.534,495.652Z" style="fill:rgb(166,166,166);"/>
    </g>
    <g transform="matrix(0.17277,0,0,0.516452,692.773,244.649)">
        <path d="M518.534,495.652C546.229,495.652 568.681,503.163 568.681,512.428C568.681,512.428 568.681,512.429 568.681,512.429C568.681,521.694 546.229,529.205 518.534,529.205C515.161,529.205 511.763,529.205 508.391,529.205C480.695,529.205 458.244,521.694 458.244,512.429C458.244,512.429 458.244,512.428 458.244,512.428C458.244,503.163 480.695,495.652 508.391,495.652C511.763,495.652 515.161,495.652 518.534,495.652Z" style="fill:rgb(166,166,166);"/>
    </g>
    <defs>
        <linearGradient id="_Linear1" x1="0" y1="0" x2="1" y2="0" gradientUnits="userSpaceOnUse" gradientTransform="matrix(8.05856e-15,184.561,-131.606,1.13011e-14,530.384,26.6511)"><stop offset="0" style="stop-color:rgb(187,187,187);stop-opacity:1"/><stop offset="0.5" style="stop-color:rgb(204,204,204);stop-opacity:1"/><stop offset="1" style="stop-color:white;stop-opacity:1"/></linearGradient>
        <linearGradient id="_Linear2" x1="0" y1="0" x2="1" y2="0" gradientUnits="userSpaceOnUse" gradientTransform="matrix(4.81904e-14,-503.819,787.009,3.085e-14,525.745,1306.39)"><stop offset="0" style="stop-color:rgb(244,244,244);stop-opacity:1"/><stop offset="0.65" style="stop-color:rgb(233,233,233);stop-opacity:1"/><stop offset="1" style="stop-color:rgb(170,170,170);stop-opacity:1"/></linearGradient>
        <linearGradient id="_Linear3" x1="0" y1="0" x2="1" y2="0" gradientUnits="userSpaceOnUse" gradientTransform="matrix(4.37021e-15,71.3709,-153.908,9.42412e-15,507.024,648.288)"><stop offset="0" style="stop-color:rgb(231,231,231);stop-opacity:1"/><stop offset="1" style="stop-color:rgb(159,159,159);stop-opacity:1"/></linearGradient>
        <linearGradient id="_Linear4" x1="0" y1="0" x2="1" y2="0" gradientUnits="userSpaceOnUse" gradientTransform="matrix(-1.25632e-06,25.8698,-272.608,-1.32835e-05,512,533.183)"><stop offset="0" style="stop-color:rgb(231,231,231);stop-opacity:1"/><stop offset="1" style="stop-color:rgb(159,159,159);stop-opacity:1"/></linearGradient>
        <linearGradient id="_Linear5" x1="0" y1="0" x2="1" y2="0" gradientUnits="userSpaceOnUse" gradientTransform="matrix(-1.25632e-06,25.8698,-272.608,-1.32835e-05,512,533.183)"><stop offset="0" style="stop-color:rgb(231,231,231);stop-opacity:1"/><stop offset="1" style="stop-color:rgb(159,159,159);stop-opacity:1"/></linearGradient>
        <linearGradient id="_Linear7" x1="0" y1="0" x2="1" y2="0" gradientUnits="userSpaceOnUse" gradientTransform="matrix(-3.69205e-15,29.6264,-20.0986,-5.44228e-15,539.258,131.249)"><stop offset="0" style="stop-color:rgb(24,77,87);stop-opacity:1"/><stop offset="0.44" style="stop-color:rgb(42,98,109);stop-opacity:1"/><stop offset="1" style="stop-color:rgb(82,147,159);stop-opacity:1"/></linearGradient>
        <linearGradient id="_Linear8" x1="0" y1="0" x2="1" y2="0" gradientUnits="userSpaceOnUse" gradientTransform="matrix(-3.69205e-15,29.6264,-20.0986,-5.44228e-15,539.258,131.249)"><stop offset="0" style="stop-color:rgb(24,77,87);stop-opacity:1"/><stop offset="0.44" style="stop-color:rgb(42,98,109);stop-opacity:1"/><stop offset="1" style="stop-color:rgb(82,147,159);stop-opacity:1"/></linearGradient>
    </defs>
</svg>
