<?xml version="1.0" encoding="UTF-8" standalone="no"?>
<!DOCTYPE svg PUBLIC "-//W3C//DTD SVG 1.1//EN" "http://www.w3.org/Graphics/SVG/1.1/DTD/svg11.dtd">
<svg width="100%" height="100%" viewBox="0 0 1440 900" version="1.1" xmlns="http://www.w3.org/2000/svg" xmlns:xlink="http://www.w3.org/1999/xlink" xml:space="preserve" xmlns:serif="http://www.serif.com/" style="fill-rule:evenodd;clip-rule:evenodd;stroke-linejoin:round;stroke-miterlimit:1.22093;">
    <g transform="matrix(1.71936,0,0,1.14278,-845.677,-138.352)">
        <path d="M1123.55,332.634L1123.55,707.965C1123.55,735.877 1108.51,758.505 1089.96,758.505L731.274,758.505C712.722,758.505 697.683,735.877 697.683,707.965L697.683,332.634L1123.55,332.634Z" style="fill:rgb(193,51,18);"/>
    </g>
    <g transform="matrix(1.71936,0,0,1.71936,-517.937,-638.655)">
        <path d="M930.642,773.758C925.754,786.266 913.584,795.126 899.344,795.126L540.656,795.126C526.416,795.126 514.246,786.266 509.358,773.758L930.642,773.758Z" style="fill:url(#_Linear1);"/>
    </g>
    <g transform="matrix(2.10058,0,0,0.676599,-873.593,-62.2264)">
        <path d="M915.109,419.346C916.323,420.395 917.101,424.067 916.93,427.943C916.759,431.819 915.692,434.707 914.432,434.704C854.086,434.577 663.401,434.173 602.938,434.045C601.677,434.042 600.611,431.147 600.443,427.268C600.274,423.389 601.055,419.721 602.271,418.681C627.776,396.866 671.499,359.47 671.499,359.47L845.79,359.47C845.79,359.47 889.617,397.326 915.109,419.346Z" style="fill:rgb(78,15,0);"/>
    </g>
    <g transform="matrix(1.71936,0,0,0.33893,-517.937,43.4408)">
        <rect x="614.521" y="405.834" width="218.971" height="174.518" style="fill:url(#_Linear2);"/>
    </g>
    <g transform="matrix(1.32582,0,0,1.07601,-226.202,-305.236)">
        <rect x="437.534" y="539.647" width="552.28" height="61.893" style="fill:url(#_Linear3);"/>
    </g>
    <g transform="matrix(0.419963,-0.957885,0.957885,0.419963,35.7791,975.589)">
        <path d="M722.225,398.779C722.14,398.59 722.056,398.4 721.973,398.21L721.98,398.206C722.061,398.398 722.143,398.589 722.225,398.779Z" style="fill:white;"/>
    </g>
    <g transform="matrix(-0.419963,-0.957885,-0.957885,0.419963,1406.36,975.589)">
        <path d="M722.225,398.779C722.143,398.589 722.061,398.398 721.98,398.206L721.973,398.21C722.056,398.4 722.14,398.59 722.225,398.779Z" style="fill:white;"/>
    </g>
    <g transform="matrix(-0.111203,0.415016,-0.415016,-0.111203,1098.42,252.042)">
        <path d="M720,715.102C678.83,714.586 639.751,690.474 622.154,650.339C598.159,595.608 623.074,531.788 677.805,507.793C630.279,528.629 614.363,597.093 635.199,644.619C650.545,679.62 684.705,700.587 720.623,700.862C756.542,700.587 790.701,679.62 806.047,644.619C826.883,597.093 810.967,528.629 763.441,507.793C818.172,531.788 843.088,595.608 819.092,650.339C801.496,690.474 762.417,714.586 721.246,715.102L720.623,715.108L720,715.102Z" style="fill:white;"/>
    </g>
    <g transform="matrix(0.111203,0.415016,0.415016,-0.111203,341.581,252.042)">
        <path d="M720,715.102C678.83,714.586 639.751,690.474 622.154,650.339C598.159,595.608 623.074,531.788 677.805,507.793C630.279,528.629 614.363,597.093 635.199,644.619C650.545,679.62 684.705,700.587 720.623,700.862C756.542,700.587 790.701,679.62 806.047,644.619C826.883,597.093 810.967,528.629 763.441,507.793C818.172,531.788 843.088,595.608 819.092,650.339C801.496,690.474 762.417,714.586 721.246,715.102L720.623,715.108L720,715.102Z" style="fill:white;"/>
    </g>
    <g transform="matrix(0.429656,0,0,0.429656,410.299,148.796)">
        <path d="M720,715.102C678.83,714.586 639.751,690.474 622.154,650.339C598.159,595.608 623.074,531.788 677.805,507.793C630.279,528.629 614.363,597.093 635.199,644.619C650.545,679.62 684.705,700.587 720.623,700.862C756.542,700.587 790.701,679.62 806.047,644.619C826.883,597.093 810.967,528.629 763.441,507.793C818.172,531.788 843.088,595.608 819.092,650.339C801.496,690.474 762.417,714.586 721.246,715.102L720.623,715.108L720,715.102Z" style="fill:white;"/>
    </g>
    <g transform="matrix(1.17557,0,0,1.17557,-146.044,-206.039)">
        <circle cx="736.699" cy="566.385" r="36.813" style="fill:none;stroke:white;stroke-width:4.2px;"/>
    </g>
    <g transform="matrix(0.495027,0,0,0.495027,142.131,266.809)">
        <path d="M612.824,710.101L612.824,577.991L662.388,577.991C672.48,577.991 680.576,579.328 686.674,582.001C692.772,584.675 697.548,588.79 701.002,594.347C704.457,599.904 706.184,605.717 706.184,611.785C706.184,617.432 704.652,622.749 701.588,627.735C698.524,632.721 693.898,636.747 687.71,639.811C695.7,642.154 701.843,646.149 706.139,651.796C710.434,657.443 712.582,664.112 712.582,671.802C712.582,677.99 711.275,683.742 708.662,689.059C706.049,694.376 702.819,698.476 698.974,701.36C695.13,704.243 690.308,706.421 684.511,707.893C678.713,709.365 671.609,710.101 663.199,710.101L612.824,710.101ZM630.306,633.502L658.873,633.502C666.623,633.502 672.18,632.992 675.544,631.971C679.99,630.649 683.339,628.456 685.592,625.392C687.845,622.328 688.972,618.483 688.972,613.857C688.972,609.472 687.92,605.612 685.818,602.277C683.715,598.943 680.711,596.66 676.806,595.429C672.901,594.197 666.202,593.581 656.71,593.581L630.306,593.581L630.306,633.502ZM630.306,694.511L663.199,694.511C668.846,694.511 672.811,694.3 675.094,693.88C679.119,693.159 682.483,691.957 685.187,690.275C687.89,688.593 690.113,686.145 691.855,682.931C693.598,679.717 694.469,676.007 694.469,671.802C694.469,666.875 693.207,662.595 690.684,658.96C688.161,655.325 684.661,652.772 680.185,651.3C675.71,649.828 669.266,649.092 660.856,649.092L630.306,649.092L630.306,694.511Z" style="fill:white;fill-rule:nonzero;"/>
        <rect x="739.617" y="577.991" width="17.482" height="132.11" style="fill:white;fill-rule:nonzero;"/>
        <path d="M782.602,645.758C782.602,623.83 788.489,606.663 800.264,594.257C812.04,581.851 827.239,575.648 845.863,575.648C858.059,575.648 869.053,578.562 878.845,584.389C888.638,590.217 896.102,598.342 901.239,608.766C906.376,619.189 908.944,631.009 908.944,644.226C908.944,657.623 906.24,669.609 900.834,680.182C895.427,690.756 887.767,698.761 877.854,704.198C867.941,709.635 857.248,712.354 845.773,712.354C833.337,712.354 822.223,709.35 812.43,703.342C802.638,697.334 795.218,689.134 790.172,678.741C785.125,668.347 782.602,657.353 782.602,645.758ZM800.625,646.029C800.625,661.949 804.905,674.49 813.466,683.652C822.027,692.814 832.766,697.394 845.683,697.394C858.84,697.394 869.669,692.769 878.169,683.517C886.67,674.265 890.921,661.138 890.921,644.136C890.921,633.382 889.103,623.995 885.469,615.975C881.834,607.955 876.517,601.737 869.518,597.321C862.519,592.905 854.664,590.698 845.953,590.698C833.577,590.698 822.929,594.948 814.007,603.449C805.086,611.95 800.625,626.143 800.625,646.029Z" style="fill:white;fill-rule:nonzero;"/>
        <path d="M932.014,710.101L932.014,577.991L949.496,577.991L949.496,632.241L1018.16,632.241L1018.16,577.991L1035.65,577.991L1035.65,710.101L1018.16,710.101L1018.16,647.831L949.496,647.831L949.496,710.101L932.014,710.101Z" style="fill:white;fill-rule:nonzero;"/>
        <path d="M1050.25,710.101L1100.98,577.991L1119.81,577.991L1173.88,710.101L1153.97,710.101L1138.56,670.089L1083.32,670.089L1068.81,710.101L1050.25,710.101ZM1088.36,655.851L1133.15,655.851L1119.36,619.264C1115.16,608.15 1112.04,599.018 1109.99,591.869C1108.31,600.34 1105.94,608.751 1102.87,617.101L1088.36,655.851Z" style="fill:white;fill-rule:nonzero;"/>
        <path d="M1177.31,710.101L1177.31,693.88L1244.99,609.261C1249.79,603.254 1254.36,598.027 1258.68,593.581L1184.97,593.581L1184.97,577.991L1279.59,577.991L1279.59,593.581L1205.42,685.229L1197.4,694.511L1281.75,694.511L1281.75,710.101L1177.31,710.101Z" style="fill:white;fill-rule:nonzero;"/>
        <path d="M1286.08,710.101L1336.81,577.991L1355.65,577.991L1409.72,710.101L1389.8,710.101L1374.39,670.089L1319.15,670.089L1304.64,710.101L1286.08,710.101ZM1324.2,655.851L1368.98,655.851L1355.2,619.264C1350.99,608.15 1347.87,599.018 1345.82,591.869C1344.14,600.34 1341.77,608.751 1338.7,617.101L1324.2,655.851Z" style="fill:white;fill-rule:nonzero;"/>
        <path d="M1423.95,710.101L1423.95,577.991L1482.53,577.991C1494.31,577.991 1503.26,579.178 1509.38,581.551C1515.51,583.924 1520.41,588.114 1524.07,594.122C1527.74,600.13 1529.57,606.768 1529.57,614.037C1529.57,623.41 1526.54,631.31 1520.47,637.738C1514.4,644.166 1505.03,648.251 1492.35,649.994C1496.98,652.216 1500.49,654.409 1502.9,656.572C1508,661.258 1512.84,667.116 1517.4,674.145L1540.38,710.101L1518.4,710.101L1500.91,682.615C1495.81,674.685 1491.6,668.618 1488.3,664.412C1484.99,660.207 1482.03,657.263 1479.42,655.581C1476.81,653.899 1474.15,652.727 1471.45,652.066C1469.46,651.646 1466.22,651.435 1461.71,651.435L1441.44,651.435L1441.44,710.101L1423.95,710.101ZM1441.44,636.296L1479.02,636.296C1487.01,636.296 1493.25,635.47 1497.76,633.818C1502.27,632.166 1505.69,629.522 1508.03,625.888C1510.38,622.253 1511.55,618.303 1511.55,614.037C1511.55,607.789 1509.28,602.653 1504.74,598.628C1500.21,594.603 1493.04,592.59 1483.25,592.59L1441.44,592.59L1441.44,636.296Z" style="fill:white;fill-rule:nonzero;"/>
        <path d="M1556.97,710.101L1556.97,577.991L1602.47,577.991C1612.75,577.991 1620.59,578.622 1625.99,579.884C1633.56,581.626 1640.02,584.78 1645.37,589.346C1652.34,595.233 1657.55,602.758 1661,611.92C1664.46,621.082 1666.19,631.55 1666.19,643.325C1666.19,653.358 1665.01,662.249 1662.67,669.999C1660.33,677.749 1657.32,684.162 1653.66,689.239C1650,694.315 1645.99,698.311 1641.63,701.224C1637.27,704.138 1632.02,706.346 1625.86,707.848C1619.7,709.35 1612.63,710.101 1604.64,710.101L1556.97,710.101ZM1574.45,694.511L1602.65,694.511C1611.37,694.511 1618.2,693.7 1623.15,692.078C1628.11,690.456 1632.06,688.173 1635.01,685.229C1639.15,681.084 1642.38,675.511 1644.69,668.512C1647.01,661.513 1648.16,653.028 1648.16,643.055C1648.16,629.237 1645.89,618.618 1641.36,611.199C1636.82,603.779 1631.31,598.808 1624.82,596.285C1620.14,594.482 1612.6,593.581 1602.2,593.581L1574.45,593.581L1574.45,694.511Z" style="fill:white;fill-rule:nonzero;"/>
    </g>
    <g transform="matrix(1.71936,0,0,1.71936,-517.937,-638.655)">
        <path d="M943.937,506.323C944.688,507.348 945.122,508.607 945.122,509.945L945.122,531.928C945.122,542.467 936.578,551.011 926.038,551.011L513.962,551.011C503.422,551.011 494.878,542.467 494.878,531.928L494.878,509.052C494.878,508.055 495.177,507.112 495.7,506.323L943.937,506.323Z" style="fill:url(#_Linear4);"/>
    </g>
    <g transform="matrix(1.71936,0,0,1.71936,-1344.88,17.5261)">
        <path d="M976.659,124.679C977.291,123.726 978.25,122.996 979.407,122.662L1078.91,93.94C1088.92,91.049 1099.3,89.582 1109.72,89.582L1292.2,89.582C1302.62,89.582 1312.99,91.049 1323.01,93.94L1421.65,122.415C1422.99,122.801 1424.11,123.613 1424.89,124.679L976.659,124.679ZM1110.82,96.111C1099.67,96.111 1088.59,97.787 1077.95,101.085L1014.58,120.713C1013.69,120.986 1013.14,121.863 1013.28,122.775C1013.42,123.687 1014.21,124.36 1015.13,124.357L1391.87,123.337C1392.8,123.334 1393.59,122.645 1393.71,121.723C1393.84,120.8 1393.27,119.927 1392.37,119.677L1322.56,100.198C1312.84,97.486 1302.79,96.111 1292.7,96.111L1110.82,96.111Z" style="fill:rgb(237,76,38);"/>
    </g>
    <defs>
        <linearGradient id="_Linear1" x1="0" y1="0" x2="1" y2="0" gradientUnits="userSpaceOnUse" gradientTransform="matrix(1.67326e-15,27.3264,-27.3264,1.67326e-15,732.876,767.638)"><stop offset="0" style="stop-color:rgb(193,51,18);stop-opacity:1"/><stop offset="1" style="stop-color:rgb(122,23,0);stop-opacity:1"/></linearGradient>
        <linearGradient id="_Linear2" x1="0" y1="0" x2="1" y2="0" gradientUnits="userSpaceOnUse" gradientTransform="matrix(4.88547e-15,404.744,-79.7857,2.47834e-14,720,377.98)"><stop offset="0" style="stop-color:rgb(60,11,0);stop-opacity:1"/><stop offset="1" style="stop-color:rgb(176,53,25);stop-opacity:1"/></linearGradient>
        <linearGradient id="_Linear3" x1="0" y1="0" x2="1" y2="0" gradientUnits="userSpaceOnUse" gradientTransform="matrix(4.67433e-15,94.06,-76.3376,5.75952e-15,732.642,570.593)"><stop offset="0" style="stop-color:rgb(122,23,0);stop-opacity:1"/><stop offset="0.55" style="stop-color:rgb(191,54,22);stop-opacity:1"/><stop offset="1" style="stop-color:rgb(220,67,31);stop-opacity:1"/></linearGradient>
        <linearGradient id="_Linear4" x1="0" y1="0" x2="1" y2="0" gradientUnits="userSpaceOnUse" gradientTransform="matrix(4.03412e-13,24.1352,-58.0898,1.6761e-13,720,526.876)"><stop offset="0" style="stop-color:rgb(193,51,18);stop-opacity:1"/><stop offset="0.66" style="stop-color:rgb(193,50,17);stop-opacity:1"/><stop offset="0.78" style="stop-color:rgb(161,34,4);stop-opacity:1"/><stop offset="1" style="stop-color:rgb(156,31,2);stop-opacity:1"/></linearGradient>
    </defs>
</svg>
