<?xml version="1.0" encoding="UTF-8" standalone="no"?>
<!DOCTYPE svg PUBLIC "-//W3C//DTD SVG 1.1//EN" "http://www.w3.org/Graphics/SVG/1.1/DTD/svg11.dtd">
<svg width="100%" height="100%" viewBox="0 0 1024 768" version="1.1" xmlns="http://www.w3.org/2000/svg" xmlns:xlink="http://www.w3.org/1999/xlink" xml:space="preserve" xmlns:serif="http://www.serif.com/" style="fill-rule:evenodd;clip-rule:evenodd;stroke-linecap:round;stroke-linejoin:round;stroke-miterlimit:1.5;">
    <g transform="matrix(1,0,0,1,-28.74,-97.5529)">
        <circle cx="540.74" cy="481.553" r="221.524" style="fill:rgb(171,171,171);stroke:rgb(113,113,113);stroke-width:1px;"/>
    </g>
    <g transform="matrix(1.04388,0,0,1.04388,-52.4702,-104.717)">
        <path d="M696.411,324.009C731.494,361.87 752.951,412.535 752.951,468.172C752.951,585.294 657.862,680.383 540.74,680.383C423.618,680.383 328.529,585.294 328.529,468.172C328.529,412.535 349.986,361.87 385.069,324.009C425.091,284.459 480.085,260.029 540.74,260.029C601.395,260.029 656.389,284.459 696.411,324.009Z" style="fill:url(#_Linear1);stroke:rgb(113,113,113);stroke-width:0.96px;"/>
    </g>
    <g transform="matrix(0.919619,0,0,0.919619,14.7255,-58.845)">
        <path d="M319.28,476.203C322.125,356.408 420.266,260.029 540.74,260.029C661.214,260.029 759.355,356.408 762.2,476.203C759.355,595.997 661.214,692.376 540.74,692.376C420.266,692.376 322.125,595.997 319.28,476.203Z" style="fill:url(#_Radial2);"/>
    </g>
    <path d="M715.659,379.08C715.698,380.715 715.717,382.355 715.717,384C715.717,496.435 624.435,587.717 512,587.717C399.565,587.717 308.283,496.435 308.283,384C308.283,382.355 308.302,380.715 308.341,379.08C310.958,489.245 401.21,577.877 512,577.877C622.79,577.877 713.042,489.245 715.659,379.08Z" style="fill:url(#_Linear3);"/>
    <g transform="matrix(0.404397,0,0,0.404397,303.127,227.301)">
        <circle cx="516.505" cy="387.487" r="23.559"/>
    </g>
    <path d="M340.694,467.573C340.675,467.537 340.656,467.501 340.639,467.464C340.09,466.303 340.587,464.916 341.747,464.367C342.908,463.819 344.295,464.315 344.844,465.476C344.861,465.512 344.877,465.549 344.892,465.585C344.911,465.62 344.929,465.656 344.946,465.692C345.496,466.852 345.001,468.24 343.842,468.79C342.682,469.34 341.294,468.845 340.744,467.685C340.726,467.648 340.71,467.611 340.694,467.573ZM387.161,528.946C387.129,528.921 387.099,528.894 387.068,528.866C386.12,528.001 386.053,526.528 386.919,525.581C387.784,524.633 389.256,524.566 390.204,525.431C390.234,525.458 390.263,525.486 390.291,525.514C390.321,525.539 390.351,525.565 390.381,525.592C391.33,526.457 391.399,527.929 390.535,528.878C389.67,529.827 388.198,529.895 387.249,529.031C387.219,529.004 387.189,528.975 387.161,528.946ZM507.123,201.265L507.123,184.502L516.877,184.502L516.877,201.265C515.257,201.223 513.631,201.201 512,201.201C510.369,201.201 508.743,201.223 507.123,201.265ZM329.265,388.877L312.502,388.877L312.502,379.123L329.265,379.123C329.223,380.743 329.201,382.369 329.201,384C329.201,385.631 329.223,387.257 329.265,388.877ZM694.735,379.123L711.498,379.123L711.498,388.877L694.735,388.877C694.777,387.257 694.799,385.631 694.799,384C694.799,382.369 694.777,380.743 694.735,379.123ZM416.411,228.19L408.027,213.668L416.475,208.791L424.853,223.302C421.992,224.858 419.177,226.488 416.411,228.19ZM607.589,539.81L615.973,554.332L607.525,559.209L599.147,544.698C602.008,543.142 604.823,541.512 607.589,539.81ZM351.302,296.853L336.791,288.475L341.668,280.027L356.19,288.411C354.488,291.177 352.858,293.992 351.302,296.853ZM672.698,471.147L687.209,479.525L682.332,487.973L667.81,479.589C669.512,476.823 671.142,474.008 672.698,471.147ZM599.147,223.302L607.525,208.791L615.973,213.668L607.589,228.19C604.823,226.488 602.008,224.858 599.147,223.302ZM424.853,544.698L416.475,559.209L408.027,554.332L416.411,539.81C419.177,541.512 421.992,543.142 424.853,544.698ZM667.81,288.411L682.332,280.027L687.209,288.475L672.698,296.853C671.142,293.992 669.512,291.177 667.81,288.411ZM356.19,479.589L341.668,487.973L336.791,479.525L351.302,471.147C352.858,474.008 354.488,476.823 356.19,479.589ZM533.77,188.25C533.81,188.252 533.851,188.256 533.892,188.26C535.167,188.402 536.088,189.552 535.947,190.828C535.806,192.104 534.655,193.025 533.379,192.883C533.34,192.879 533.3,192.873 533.261,192.867C533.221,192.865 533.181,192.861 533.142,192.857C531.866,192.717 530.943,191.568 531.083,190.292C531.223,189.016 532.372,188.094 533.648,188.234C533.689,188.238 533.729,188.244 533.77,188.25ZM555.158,191.81C555.198,191.817 555.238,191.825 555.278,191.834C556.531,192.115 557.319,193.361 557.038,194.613C556.757,195.865 555.511,196.654 554.259,196.372C554.22,196.363 554.181,196.354 554.143,196.343C554.104,196.336 554.065,196.329 554.026,196.32C552.773,196.04 551.983,194.796 552.263,193.544C552.542,192.291 553.786,191.501 555.039,191.781C555.079,191.79 555.119,191.8 555.158,191.81ZM576.022,197.716C576.061,197.727 576.1,197.739 576.139,197.753C577.353,198.171 577.998,199.496 577.58,200.709C577.162,201.923 575.837,202.568 574.623,202.15C574.586,202.137 574.548,202.123 574.511,202.108C574.473,202.097 574.435,202.085 574.397,202.072C573.183,201.655 572.536,200.331 572.953,199.117C573.37,197.903 574.694,197.256 575.908,197.673C575.946,197.686 575.985,197.701 576.022,197.716ZM596.104,205.896C596.141,205.911 596.179,205.928 596.216,205.945C597.376,206.495 597.871,207.883 597.321,209.043C596.771,210.203 595.383,210.698 594.223,210.148C594.187,210.131 594.151,210.113 594.116,210.094C594.079,210.079 594.043,210.062 594.007,210.045C592.846,209.497 592.349,208.109 592.898,206.949C593.446,205.789 594.834,205.292 595.994,205.84C596.032,205.858 596.068,205.876 596.104,205.896ZM493.071,188.25C493.111,188.244 493.151,188.238 493.192,188.234C494.468,188.094 495.617,189.016 495.757,190.292C495.897,191.568 494.974,192.717 493.698,192.857C493.659,192.861 493.619,192.865 493.579,192.867C493.54,192.873 493.501,192.879 493.461,192.883C492.185,193.025 491.034,192.104 490.893,190.828C490.752,189.552 491.673,188.402 492.948,188.26C492.989,188.256 493.03,188.252 493.071,188.25ZM471.682,191.81C471.721,191.8 471.761,191.79 471.801,191.781C473.054,191.501 474.298,192.291 474.577,193.544C474.857,194.796 474.067,196.04 472.815,196.32C472.775,196.329 472.736,196.336 472.697,196.343C472.659,196.354 472.62,196.363 472.581,196.372C471.329,196.654 470.084,195.865 469.802,194.613C469.521,193.361 470.309,192.115 471.562,191.834C471.602,191.825 471.642,191.817 471.682,191.81ZM450.818,197.716C450.855,197.701 450.894,197.686 450.933,197.673C452.147,197.256 453.471,197.903 453.887,199.117C454.304,200.331 453.657,201.655 452.443,202.072C452.405,202.085 452.367,202.097 452.329,202.108C452.292,202.123 452.255,202.137 452.217,202.15C451.003,202.568 449.678,201.923 449.26,200.709C448.842,199.496 449.487,198.171 450.701,197.753C450.74,197.739 450.779,197.727 450.818,197.716ZM430.736,205.896C430.772,205.876 430.809,205.858 430.846,205.84C432.006,205.292 433.394,205.789 433.942,206.949C434.491,208.109 433.994,209.497 432.834,210.045C432.797,210.062 432.761,210.079 432.724,210.094C432.689,210.113 432.653,210.131 432.617,210.148C431.457,210.698 430.069,210.203 429.519,209.043C428.969,207.883 429.464,206.495 430.624,205.945C430.661,205.928 430.699,205.911 430.736,205.896ZM703.792,405.239C703.789,405.279 703.786,405.32 703.781,405.361C703.64,406.637 702.489,407.558 701.214,407.416C699.938,407.275 699.017,406.124 699.158,404.849C699.163,404.809 699.168,404.769 699.174,404.73C699.177,404.69 699.18,404.651 699.185,404.611C699.324,403.335 700.474,402.413 701.75,402.552C703.025,402.692 703.948,403.841 703.808,405.117C703.804,405.158 703.798,405.199 703.792,405.239ZM700.231,426.627C700.224,426.667 700.216,426.707 700.207,426.748C699.926,428 698.681,428.788 697.429,428.507C696.176,428.226 695.388,426.981 695.669,425.728C695.678,425.689 695.688,425.65 695.699,425.612C695.705,425.573 695.713,425.534 695.722,425.495C696.001,424.242 697.245,423.452 698.498,423.732C699.751,424.012 700.541,425.256 700.261,426.508C700.252,426.548 700.242,426.588 700.231,426.627ZM694.326,447.492C694.315,447.531 694.302,447.57 694.289,447.609C693.871,448.822 692.546,449.468 691.332,449.049C690.119,448.631 689.473,447.306 689.892,446.093C689.905,446.055 689.919,446.017 689.934,445.981C689.945,445.942 689.957,445.904 689.97,445.866C690.386,444.652 691.71,444.005 692.924,444.422C694.138,444.839 694.785,446.163 694.369,447.377C694.355,447.416 694.341,447.454 694.326,447.492ZM686.146,467.573C686.131,467.611 686.114,467.648 686.096,467.685C685.546,468.845 684.158,469.34 682.999,468.79C681.839,468.24 681.344,466.852 681.894,465.692C681.911,465.656 681.929,465.62 681.948,465.585C681.963,465.549 681.979,465.512 681.996,465.476C682.545,464.315 683.932,463.819 685.093,464.367C686.253,464.916 686.75,466.303 686.201,467.464C686.184,467.501 686.165,467.537 686.146,467.573ZM323.049,405.239C323.042,405.199 323.037,405.158 323.032,405.117C322.892,403.841 323.815,402.692 325.091,402.552C326.366,402.413 327.516,403.335 327.656,404.611C327.66,404.651 327.663,404.69 327.666,404.73C327.672,404.769 327.677,404.809 327.682,404.849C327.823,406.124 326.902,407.275 325.626,407.416C324.351,407.558 323.2,406.637 323.059,405.361C323.054,405.32 323.051,405.279 323.049,405.239ZM326.609,426.627C326.598,426.588 326.588,426.548 326.579,426.508C326.299,425.256 327.089,424.012 328.342,423.732C329.595,423.452 330.839,424.242 331.118,425.495C331.127,425.534 331.135,425.573 331.142,425.612C331.152,425.65 331.162,425.689 331.171,425.728C331.452,426.981 330.664,428.226 329.411,428.507C328.159,428.788 326.914,428 326.633,426.748C326.624,426.707 326.616,426.667 326.609,426.627ZM332.514,447.492C332.499,447.454 332.485,447.416 332.471,447.377C332.055,446.163 332.702,444.839 333.916,444.422C335.13,444.005 336.454,444.652 336.871,445.866C336.884,445.904 336.896,445.942 336.906,445.981C336.921,446.017 336.935,446.055 336.948,446.093C337.367,447.306 336.721,448.631 335.508,449.049C334.294,449.468 332.969,448.822 332.551,447.609C332.538,447.57 332.525,447.531 332.514,447.492ZM624.938,223.794C624.973,223.816 625.007,223.838 625.041,223.862C626.092,224.598 626.349,226.049 625.613,227.101C624.877,228.152 623.426,228.409 622.374,227.673C622.341,227.65 622.309,227.626 622.278,227.602C622.244,227.581 622.211,227.559 622.178,227.536C621.126,226.801 620.867,225.351 621.602,224.298C622.336,223.245 623.787,222.987 624.84,223.722C624.874,223.745 624.906,223.769 624.938,223.794ZM642,237.175C642.032,237.2 642.063,237.226 642.094,237.254C643.058,238.101 643.153,239.572 642.306,240.536C641.458,241.5 639.988,241.595 639.024,240.747C638.993,240.721 638.964,240.694 638.936,240.666C638.905,240.641 638.874,240.616 638.844,240.589C637.879,239.743 637.782,238.273 638.628,237.307C639.474,236.342 640.945,236.246 641.91,237.092C641.941,237.119 641.971,237.147 642,237.175ZM657.477,252.362C657.506,252.391 657.534,252.42 657.562,252.451C658.426,253.4 658.357,254.872 657.408,255.736C656.46,256.6 654.987,256.532 654.123,255.583C654.096,255.553 654.07,255.523 654.045,255.492C654.017,255.464 653.989,255.435 653.962,255.406C653.097,254.458 653.164,252.986 654.111,252.12C655.059,251.255 656.531,251.322 657.397,252.27C657.425,252.3 657.451,252.331 657.477,252.362ZM671.177,269.17C671.202,269.202 671.227,269.234 671.251,269.267C672.005,270.306 671.774,271.762 670.735,272.516C669.696,273.27 668.241,273.038 667.487,272C667.463,271.967 667.441,271.934 667.419,271.901C667.394,271.87 667.37,271.838 667.346,271.806C666.591,270.768 666.82,269.312 667.858,268.557C668.896,267.802 670.352,268.031 671.107,269.069C671.131,269.102 671.154,269.136 671.177,269.17ZM401.902,223.794C401.934,223.769 401.967,223.745 402,223.722C403.053,222.987 404.504,223.245 405.238,224.298C405.973,225.351 405.714,226.801 404.662,227.536C404.629,227.559 404.596,227.581 404.562,227.602C404.531,227.626 404.499,227.65 404.466,227.673C403.414,228.409 401.963,228.152 401.227,227.101C400.491,226.049 400.748,224.598 401.799,223.862C401.833,223.838 401.867,223.816 401.902,223.794ZM384.84,237.175C384.869,237.147 384.899,237.119 384.93,237.092C385.895,236.246 387.366,236.342 388.212,237.307C389.058,238.273 388.961,239.743 387.996,240.589C387.966,240.616 387.935,240.641 387.904,240.666C387.876,240.694 387.847,240.721 387.816,240.747C386.852,241.595 385.382,241.5 384.534,240.536C383.687,239.572 383.782,238.101 384.746,237.254C384.777,237.226 384.808,237.2 384.84,237.175ZM369.363,252.362C369.389,252.331 369.415,252.3 369.443,252.27C370.309,251.322 371.781,251.255 372.729,252.12C373.677,252.986 373.744,254.458 372.878,255.406C372.851,255.435 372.823,255.464 372.795,255.492C372.77,255.523 372.744,255.553 372.717,255.583C371.853,256.532 370.381,256.6 369.432,255.736C368.483,254.872 368.414,253.4 369.278,252.451C369.306,252.42 369.334,252.391 369.363,252.362ZM355.664,269.17C355.686,269.136 355.709,269.102 355.733,269.069C356.488,268.031 357.944,267.802 358.982,268.557C360.02,269.312 360.249,270.768 359.494,271.806C359.47,271.838 359.446,271.87 359.421,271.901C359.399,271.934 359.377,271.967 359.353,272C358.599,273.038 357.144,273.27 356.105,272.516C355.066,271.762 354.835,270.306 355.589,269.267C355.613,269.234 355.638,269.202 355.664,269.17ZM668.247,496.408C668.226,496.442 668.203,496.476 668.18,496.51C667.444,497.562 665.993,497.818 664.941,497.082C663.889,496.346 663.633,494.895 664.369,493.844C664.392,493.811 664.415,493.779 664.44,493.747C664.461,493.714 664.483,493.68 664.506,493.647C665.24,492.595 666.691,492.337 667.744,493.071C668.796,493.806 669.055,495.256 668.32,496.309C668.297,496.343 668.272,496.376 668.247,496.408ZM654.866,513.469C654.841,513.501 654.815,513.533 654.788,513.563C653.941,514.527 652.47,514.622 651.506,513.775C650.542,512.928 650.447,511.457 651.294,510.493C651.321,510.463 651.348,510.433 651.376,510.405C651.4,510.374 651.426,510.343 651.452,510.313C652.298,509.348 653.769,509.251 654.734,510.097C655.699,510.944 655.796,512.414 654.95,513.379C654.923,513.41 654.895,513.44 654.866,513.469ZM639.679,528.946C639.651,528.975 639.621,529.004 639.591,529.031C638.642,529.895 637.17,529.827 636.305,528.878C635.441,527.929 635.51,526.457 636.459,525.592C636.489,525.565 636.519,525.539 636.55,525.514C636.577,525.486 636.606,525.458 636.636,525.431C637.584,524.566 639.056,524.633 639.921,525.581C640.787,526.528 640.72,528.001 639.772,528.866C639.742,528.894 639.711,528.921 639.679,528.946ZM622.871,542.646C622.84,542.671 622.807,542.696 622.774,542.72C621.735,543.474 620.28,543.243 619.526,542.204C618.772,541.166 619.003,539.71 620.042,538.956C620.075,538.933 620.107,538.91 620.141,538.888C620.172,538.863 620.203,538.839 620.236,538.815C621.274,538.06 622.729,538.29 623.484,539.327C624.24,540.365 624.01,541.821 622.972,542.576C622.939,542.6 622.906,542.624 622.871,542.646ZM358.593,496.408C358.568,496.376 358.544,496.343 358.52,496.309C357.786,495.256 358.044,493.806 359.096,493.071C360.149,492.337 361.6,492.595 362.334,493.647C362.357,493.68 362.379,493.714 362.4,493.747C362.425,493.779 362.448,493.811 362.471,493.844C363.207,494.895 362.951,496.346 361.899,497.082C360.847,497.818 359.396,497.562 358.66,496.51C358.637,496.476 358.614,496.442 358.593,496.408ZM371.974,513.469C371.945,513.44 371.918,513.41 371.89,513.379C371.044,512.414 371.141,510.944 372.106,510.097C373.071,509.251 374.542,509.348 375.388,510.313C375.414,510.343 375.44,510.374 375.464,510.405C375.492,510.433 375.519,510.463 375.546,510.493C376.393,511.457 376.298,512.928 375.334,513.775C374.37,514.622 372.899,514.527 372.052,513.563C372.025,513.533 371.999,513.501 371.974,513.469ZM403.969,542.646C403.935,542.624 403.901,542.6 403.868,542.576C402.83,541.821 402.6,540.365 403.356,539.327C404.111,538.29 405.567,538.06 406.604,538.815C406.637,538.839 406.669,538.863 406.699,538.888C406.733,538.91 406.766,538.933 406.798,538.956C407.837,539.71 408.068,541.166 407.314,542.204C406.56,543.243 405.105,543.474 404.066,542.72C404.033,542.696 404,542.671 403.969,542.646ZM691.447,301.839C691.466,301.876 691.483,301.913 691.5,301.95C692.022,303.123 691.494,304.498 690.322,305.021C689.149,305.543 687.773,305.015 687.251,303.843C687.235,303.806 687.22,303.769 687.205,303.732C687.187,303.697 687.17,303.661 687.154,303.624C686.63,302.452 687.156,301.076 688.328,300.552C689.5,300.028 690.876,300.554 691.4,301.726C691.417,301.764 691.433,301.802 691.447,301.839ZM699.176,322.098C699.19,322.136 699.204,322.175 699.216,322.214C699.606,323.437 698.929,324.746 697.706,325.136C696.484,325.525 695.174,324.849 694.785,323.626C694.772,323.588 694.761,323.549 694.751,323.511C694.737,323.474 694.724,323.436 694.712,323.398C694.321,322.176 694.995,320.865 696.218,320.474C697.44,320.083 698.75,320.758 699.142,321.98C699.154,322.019 699.166,322.059 699.176,322.098ZM704.616,343.088C704.626,343.128 704.635,343.168 704.643,343.208C704.895,344.467 704.078,345.693 702.819,345.945C701.56,346.196 700.334,345.379 700.082,344.12C700.075,344.081 700.068,344.042 700.062,344.002C700.052,343.964 700.043,343.925 700.035,343.886C699.782,342.627 700.598,341.4 701.856,341.147C703.114,340.893 704.342,341.709 704.595,342.968C704.603,343.008 704.61,343.048 704.616,343.088ZM707.698,364.552C707.703,364.592 707.708,364.633 707.711,364.674C707.822,365.952 706.874,367.081 705.596,367.192C704.317,367.303 703.189,366.355 703.078,365.076C703.074,365.036 703.072,364.996 703.07,364.956C703.065,364.917 703.06,364.877 703.057,364.837C702.944,363.559 703.891,362.429 705.169,362.317C706.448,362.204 707.578,363.151 707.69,364.429C707.694,364.47 707.696,364.511 707.698,364.552ZM335.393,301.839C335.408,301.802 335.423,301.764 335.44,301.726C335.964,300.554 337.34,300.028 338.512,300.552C339.684,301.076 340.21,302.452 339.686,303.624C339.67,303.661 339.653,303.697 339.635,303.732C339.621,303.769 339.605,303.806 339.589,303.843C339.067,305.015 337.691,305.543 336.518,305.021C335.346,304.498 334.818,303.123 335.34,301.95C335.357,301.913 335.375,301.876 335.393,301.839ZM327.664,322.098C327.674,322.059 327.686,322.019 327.698,321.98C328.09,320.758 329.4,320.083 330.622,320.474C331.845,320.865 332.519,322.176 332.128,323.398C332.116,323.436 332.103,323.474 332.089,323.511C332.079,323.549 332.068,323.588 332.055,323.626C331.666,324.849 330.357,325.525 329.134,325.136C327.911,324.746 327.234,323.437 327.624,322.214C327.636,322.175 327.65,322.136 327.664,322.098ZM322.224,343.088C322.23,343.048 322.237,343.008 322.245,342.968C322.498,341.709 323.726,340.893 324.984,341.147C326.242,341.4 327.058,342.627 326.805,343.886C326.797,343.925 326.788,343.964 326.778,344.002C326.772,344.042 326.766,344.081 326.758,344.12C326.506,345.379 325.28,346.196 324.021,345.945C322.762,345.693 321.945,344.467 322.197,343.208C322.205,343.168 322.214,343.128 322.224,343.088ZM319.142,364.552C319.144,364.511 319.146,364.47 319.15,364.429C319.263,363.151 320.392,362.204 321.671,362.317C322.949,362.429 323.896,363.559 323.783,364.837C323.78,364.877 323.775,364.917 323.77,364.956C323.768,364.996 323.766,365.036 323.762,365.076C323.651,366.355 322.523,367.303 321.244,367.192C319.966,367.081 319.018,365.952 319.129,364.674C319.132,364.633 319.137,364.592 319.142,364.552ZM590.202,562.916C590.166,562.935 590.129,562.952 590.092,562.969C588.919,563.491 587.543,562.964 587.021,561.791C586.499,560.619 587.027,559.243 588.199,558.72C588.236,558.704 588.273,558.689 588.31,558.674C588.345,558.656 588.381,558.639 588.418,558.623C589.589,558.099 590.966,558.625 591.49,559.797C592.013,560.969 591.487,562.346 590.315,562.869C590.278,562.886 590.24,562.902 590.202,562.916ZM569.944,570.645C569.906,570.66 569.867,570.673 569.828,570.685C568.605,571.075 567.296,570.399 566.906,569.176C566.516,567.953 567.193,566.644 568.416,566.254C568.454,566.242 568.492,566.231 568.531,566.22C568.568,566.206 568.605,566.193 568.644,566.181C569.866,565.79 571.176,566.465 571.567,567.687C571.959,568.91 571.284,570.22 570.061,570.611C570.022,570.623 569.983,570.635 569.944,570.645ZM548.953,576.085C548.914,576.095 548.874,576.104 548.834,576.112C547.575,576.364 546.349,575.547 546.097,574.288C545.845,573.03 546.663,571.803 547.921,571.552C547.961,571.544 548,571.537 548.039,571.531C548.078,571.521 548.117,571.513 548.156,571.505C549.414,571.251 550.641,572.067 550.895,573.325C551.148,574.584 550.332,575.811 549.074,576.064C549.034,576.072 548.993,576.079 548.953,576.085ZM527.49,579.167C527.45,579.173 527.409,579.177 527.368,579.181C526.089,579.292 524.961,578.344 524.85,577.065C524.739,575.786 525.687,574.658 526.966,574.547C527.006,574.543 527.046,574.541 527.085,574.54C527.125,574.534 527.164,574.53 527.204,574.526C528.483,574.413 529.612,575.36 529.725,576.639C529.837,577.917 528.891,579.047 527.612,579.159C527.571,579.163 527.53,579.165 527.49,579.167ZM436.638,562.916C436.6,562.902 436.562,562.886 436.525,562.869C435.353,562.346 434.827,560.969 435.35,559.797C435.874,558.625 437.251,558.099 438.423,558.623C438.459,558.639 438.495,558.656 438.531,558.674C438.568,558.689 438.604,558.704 438.641,558.72C439.814,559.243 440.341,560.619 439.819,561.791C439.297,562.964 437.921,563.491 436.749,562.969C436.711,562.952 436.674,562.935 436.638,562.916ZM456.896,570.645C456.857,570.635 456.818,570.623 456.779,570.611C455.556,570.22 454.881,568.91 455.273,567.687C455.664,566.465 456.974,565.79 458.196,566.181C458.235,566.193 458.272,566.206 458.309,566.22C458.348,566.231 458.386,566.242 458.424,566.254C459.647,566.644 460.324,567.953 459.934,569.176C459.544,570.399 458.235,571.075 457.012,570.685C456.973,570.673 456.934,570.66 456.896,570.645ZM477.887,576.085C477.847,576.079 477.806,576.072 477.766,576.064C476.508,575.811 475.692,574.584 475.945,573.325C476.199,572.067 477.426,571.251 478.684,571.505C478.724,571.513 478.762,571.521 478.801,571.531C478.84,571.537 478.879,571.544 478.919,571.552C480.177,571.803 480.995,573.03 480.743,574.288C480.491,575.547 479.265,576.364 478.006,576.112C477.966,576.104 477.926,576.095 477.887,576.085ZM499.35,579.167C499.31,579.165 499.269,579.163 499.228,579.159C497.949,579.047 497.003,577.917 497.115,576.639C497.228,575.36 498.357,574.413 499.636,574.526C499.676,574.53 499.716,574.534 499.755,574.54C499.795,574.541 499.834,574.543 499.874,574.547C501.153,574.658 502.101,575.786 501.99,577.065C501.879,578.344 500.751,579.292 499.472,579.181C499.431,579.177 499.391,579.173 499.35,579.167ZM516.877,566.735L516.877,583.498L507.123,583.498L507.123,566.735C508.743,566.777 510.369,566.799 512,566.799C513.631,566.799 515.257,566.777 516.877,566.735Z"/>
    <defs>
        <linearGradient id="_Linear1" x1="0" y1="0" x2="1" y2="0" gradientUnits="userSpaceOnUse" gradientTransform="matrix(8.50929e-15,-238.752,138.967,1.46194e-14,532.366,493.964)"><stop offset="0" style="stop-color:rgb(28,28,28);stop-opacity:1"/><stop offset="0.54" style="stop-color:rgb(43,43,43);stop-opacity:1"/><stop offset="1" style="stop-color:rgb(99,99,99);stop-opacity:1"/></linearGradient>
        <radialGradient id="_Radial2" cx="0" cy="0" r="1" gradientUnits="userSpaceOnUse" gradientTransform="matrix(7.05805,-226.874,226.874,7.05805,540.74,481.553)"><stop offset="0" style="stop-color:white;stop-opacity:1"/><stop offset="1" style="stop-color:rgb(237,237,237);stop-opacity:1"/></radialGradient>
        <linearGradient id="_Linear3" x1="0" y1="0" x2="1" y2="0" gradientUnits="userSpaceOnUse" gradientTransform="matrix(8.17579e-15,133.521,-84.4391,5.17041e-15,512,483.399)"><stop offset="0" style="stop-color:rgb(231,231,231);stop-opacity:1"/><stop offset="0.5" style="stop-color:rgb(213,213,213);stop-opacity:1"/><stop offset="1" style="stop-color:rgb(159,159,159);stop-opacity:1"/></linearGradient>
    </defs>
</svg>
