<?xml version="1.0" encoding="UTF-8" standalone="no"?>
<!DOCTYPE svg PUBLIC "-//W3C//DTD SVG 1.1//EN" "http://www.w3.org/Graphics/SVG/1.1/DTD/svg11.dtd">
<svg width="100%" height="100%" viewBox="0 0 1024 768" version="1.1" xmlns="http://www.w3.org/2000/svg" xmlns:xlink="http://www.w3.org/1999/xlink" xml:space="preserve" xmlns:serif="http://www.serif.com/" style="fill-rule:evenodd;clip-rule:evenodd;stroke-linejoin:round;stroke-miterlimit:2;">
    <g transform="matrix(0.914153,0,0,0.794371,-3.15624,55.5085)">
        <path d="M771.503,170.039C780.347,170.039 788.829,174.082 795.083,181.279C801.337,188.476 804.85,198.237 804.85,208.415C804.85,297.449 804.85,517.24 804.85,606.274C804.85,616.452 801.337,626.213 795.083,633.41C788.829,640.607 780.347,644.65 771.503,644.65C684.385,644.65 450.705,644.65 363.587,644.65C354.742,644.65 346.26,640.607 340.007,633.41C333.753,626.213 330.239,616.452 330.239,606.274C330.239,517.24 330.239,297.449 330.239,208.415C330.239,198.237 333.753,188.476 340.007,181.279C346.26,174.082 354.742,170.039 363.587,170.039C450.705,170.039 684.385,170.039 771.503,170.039Z" style="fill:rgb(225,225,225);"/>
    </g>
    <g transform="matrix(0.898703,0,0,0.794371,9.27858,55.5085)">
        <path d="M770.93,170.039C779.926,170.039 788.554,174.082 794.915,181.279C801.276,188.476 804.85,198.237 804.85,208.415C804.85,297.449 804.85,517.24 804.85,606.274C804.85,616.452 801.276,626.213 794.915,633.41C788.554,640.607 779.926,644.65 770.93,644.65C683.556,644.65 451.534,644.65 364.16,644.65C355.164,644.65 346.536,640.607 340.174,633.41C333.813,626.213 330.239,616.452 330.239,606.274C330.239,517.24 330.239,297.449 330.239,208.415C330.239,198.237 333.813,188.476 340.174,181.279C346.536,174.082 355.164,170.039 364.16,170.039C451.534,170.039 683.556,170.039 770.93,170.039Z" style="fill:url(#_Linear1);"/>
    </g>
    <g transform="matrix(1,0,0,1,-44.9564,-25.1256)">
        <path d="M358.061,274.792C357.465,271.872 357.153,260.278 357.153,257.182C357.153,232.294 364.469,220.659 389.358,220.659C392.453,220.659 408.366,220.971 411.287,221.567C384.114,226.152 362.646,247.62 358.061,274.792Z" style="fill:white;"/>
    </g>
    <g transform="matrix(6.12323e-17,1,-1,6.12323e-17,944.793,-161.62)">
        <path d="M358.061,274.792C357.465,271.872 357.153,260.278 357.153,257.182C357.153,232.294 364.469,220.659 389.358,220.659C392.453,220.659 408.366,220.971 411.287,221.567C384.114,226.152 362.646,247.62 358.061,274.792Z" style="fill:white;"/>
    </g>
    <g transform="matrix(-1,-1.22465e-16,1.22465e-16,-1,1081.29,779.884)">
        <path d="M358.061,274.792C357.465,271.872 357.153,260.278 357.153,257.182C357.153,232.294 364.469,220.659 389.358,220.659C392.453,220.659 408.366,220.971 411.287,221.567C384.114,226.152 362.646,247.62 358.061,274.792Z" style="fill:white;"/>
    </g>
    <g transform="matrix(0,-1,1,0,91.5377,916.378)">
        <path d="M358.061,274.792C357.465,271.872 357.153,260.278 357.153,257.182C357.153,232.294 364.469,220.659 389.358,220.659C392.453,220.659 408.366,220.971 411.287,221.567C384.114,226.152 362.646,247.62 358.061,274.792Z" style="fill:white;"/>
    </g>
    <g transform="matrix(0.395012,0,0,0.343249,501.099,359.205)">
        <path d="M491.75,609.492L491.75,621.021C491.75,632.851 487.666,644.196 480.398,652.561C473.129,660.926 463.27,665.625 452.991,665.625C430.339,665.625 401.843,665.625 379.191,665.625C368.911,665.625 359.053,660.926 351.784,652.561C344.515,644.196 340.432,632.851 340.432,621.021C340.432,614.262 340.432,609.492 340.432,609.492L491.75,609.492Z" style="fill:url(#_Linear2);"/>
    </g>
    <g transform="matrix(0.395012,0,0,0.343249,196.458,359.205)">
        <path d="M491.75,609.492L491.75,621.021C491.75,632.851 487.666,644.196 480.398,652.561C473.129,660.926 463.27,665.625 452.991,665.625C430.339,665.625 401.843,665.625 379.191,665.625C368.911,665.625 359.053,660.926 351.784,652.561C344.515,644.196 340.432,632.851 340.432,621.021C340.432,614.262 340.432,609.492 340.432,609.492L491.75,609.492Z" style="fill:url(#_Linear3);"/>
    </g>
    <g transform="matrix(1,0,0,1,-110.04,-15.8972)">
        <path d="M804.865,340.477C808.647,340.477 812.274,341.979 814.948,344.653C817.623,347.327 819.125,350.955 819.125,354.737C819.125,375.962 819.125,415.639 819.125,436.865C819.125,440.647 817.623,444.274 814.948,446.948C812.274,449.623 808.647,451.125 804.865,451.125C804.865,451.125 804.865,451.125 804.865,451.125C801.083,451.125 797.456,449.623 794.781,446.948C792.107,444.274 790.605,440.647 790.605,436.865C790.605,415.639 790.605,375.962 790.605,354.737C790.605,350.955 792.107,347.327 794.781,344.653C797.456,341.979 801.083,340.477 804.865,340.477C804.865,340.477 804.865,340.477 804.865,340.477Z" style="fill:url(#_Linear4);"/>
    </g>
    <g transform="matrix(6.12323e-17,1,-0.13254,8.11573e-18,351.192,-558.115)">
        <path d="M811.793,340.477C815.842,340.477 819.125,365.244 819.125,395.796C819.125,395.799 819.125,395.802 819.125,395.806C819.125,426.358 815.842,451.125 811.793,451.125C807.537,451.125 802.193,451.125 797.937,451.125C793.887,451.125 790.605,426.358 790.605,395.806C790.605,395.802 790.605,395.799 790.605,395.796C790.605,365.244 793.887,340.477 797.937,340.477C802.193,340.477 807.537,340.477 811.793,340.477Z" style="fill:url(#_Linear5);"/>
    </g>
    <g transform="matrix(6.12323e-17,1,-0.13254,8.11573e-18,351.192,-289.14)">
        <path d="M811.793,340.477C815.842,340.477 819.125,365.244 819.125,395.796C819.125,395.799 819.125,395.802 819.125,395.806C819.125,426.358 815.842,451.125 811.793,451.125C807.537,451.125 802.193,451.125 797.937,451.125C793.887,451.125 790.605,426.358 790.605,395.806C790.605,395.802 790.605,395.799 790.605,395.796C790.605,365.244 793.887,340.477 797.937,340.477C802.193,340.477 807.537,340.477 811.793,340.477Z" style="fill:url(#_Linear6);"/>
    </g>
    <defs>
        <linearGradient id="_Linear1" x1="0" y1="0" x2="1" y2="0" gradientUnits="userSpaceOnUse" gradientTransform="matrix(3.26976e-14,604.126,-416.243,2.8835e-14,638.825,170.039)"><stop offset="0" style="stop-color:rgb(244,244,244);stop-opacity:1"/><stop offset="0.65" style="stop-color:rgb(233,233,233);stop-opacity:1"/><stop offset="1" style="stop-color:rgb(170,170,170);stop-opacity:1"/></linearGradient>
        <linearGradient id="_Linear2" x1="0" y1="0" x2="1" y2="0" gradientUnits="userSpaceOnUse" gradientTransform="matrix(2.46262e-15,58.4996,-40.2177,3.58207e-15,416.091,607.125)"><stop offset="0" style="stop-color:rgb(64,64,64);stop-opacity:1"/><stop offset="1" style="stop-color:rgb(26,26,26);stop-opacity:1"/></linearGradient>
        <linearGradient id="_Linear3" x1="0" y1="0" x2="1" y2="0" gradientUnits="userSpaceOnUse" gradientTransform="matrix(2.46262e-15,58.4996,-40.2177,3.58207e-15,416.091,607.125)"><stop offset="0" style="stop-color:rgb(64,64,64);stop-opacity:1"/><stop offset="1" style="stop-color:rgb(26,26,26);stop-opacity:1"/></linearGradient>
        <linearGradient id="_Linear4" x1="0" y1="0" x2="1" y2="0" gradientUnits="userSpaceOnUse" gradientTransform="matrix(1.34709e-14,110.521,-219.996,6.76744e-15,806.834,340.604)"><stop offset="0" style="stop-color:rgb(128,128,128);stop-opacity:1"/><stop offset="0.33" style="stop-color:rgb(139,139,139);stop-opacity:1"/><stop offset="0.5" style="stop-color:rgb(207,207,207);stop-opacity:1"/><stop offset="0.67" style="stop-color:rgb(139,139,139);stop-opacity:1"/><stop offset="1" style="stop-color:rgb(128,128,128);stop-opacity:1"/></linearGradient>
        <linearGradient id="_Linear5" x1="0" y1="0" x2="1" y2="0" gradientUnits="userSpaceOnUse" gradientTransform="matrix(1.34709e-14,110.521,-219.996,6.76744e-15,806.834,340.604)"><stop offset="0" style="stop-color:rgb(128,128,128);stop-opacity:1"/><stop offset="0.33" style="stop-color:rgb(139,139,139);stop-opacity:1"/><stop offset="0.5" style="stop-color:rgb(207,207,207);stop-opacity:1"/><stop offset="0.67" style="stop-color:rgb(139,139,139);stop-opacity:1"/><stop offset="1" style="stop-color:rgb(128,128,128);stop-opacity:1"/></linearGradient>
        <linearGradient id="_Linear6" x1="0" y1="0" x2="1" y2="0" gradientUnits="userSpaceOnUse" gradientTransform="matrix(1.34709e-14,110.521,-219.996,6.76744e-15,806.834,340.604)"><stop offset="0" style="stop-color:rgb(128,128,128);stop-opacity:1"/><stop offset="0.33" style="stop-color:rgb(139,139,139);stop-opacity:1"/><stop offset="0.5" style="stop-color:rgb(207,207,207);stop-opacity:1"/><stop offset="0.67" style="stop-color:rgb(139,139,139);stop-opacity:1"/><stop offset="1" style="stop-color:rgb(128,128,128);stop-opacity:1"/></linearGradient>
    </defs>
</svg>
