<?xml version="1.0" encoding="UTF-8" standalone="no"?>
<!DOCTYPE svg PUBLIC "-//W3C//DTD SVG 1.1//EN" "http://www.w3.org/Graphics/SVG/1.1/DTD/svg11.dtd">
<svg width="100%" height="100%" viewBox="0 0 1024 768" version="1.1" xmlns="http://www.w3.org/2000/svg" xmlns:xlink="http://www.w3.org/1999/xlink" xml:space="preserve" xmlns:serif="http://www.serif.com/" style="fill-rule:evenodd;clip-rule:evenodd;stroke-linejoin:round;stroke-miterlimit:2;">
    <g transform="matrix(1.0468,0,0,1.2903,-9.30826,-432.674)">
        <path d="M841.469,472.591C841.469,470.451 843.608,468.716 846.246,468.716C866.03,468.716 941.439,468.716 961.224,468.716C963.862,468.716 966,470.451 966,472.591C966,510.015 966,806.701 966,844.125C966,845.153 965.497,846.138 964.601,846.865C963.705,847.592 962.49,848 961.224,848C935.787,848 816.452,848 791.016,848C789.749,848 788.534,847.592 787.638,846.865C786.743,846.138 786.239,845.153 786.239,844.125C786.239,826.347 786.239,753.452 786.239,753.452C786.239,739.452 778.588,726.026 764.968,716.127C751.348,706.228 732.875,700.667 713.613,700.667L282.387,700.667C263.125,700.667 244.652,706.228 231.032,716.127C217.412,726.026 209.761,739.452 209.761,753.452L209.761,844.125C209.761,845.153 209.257,846.138 208.362,846.865C207.466,847.592 206.251,848 204.984,848C179.548,848 60.213,848 34.776,848C33.51,848 32.295,847.592 31.399,846.865C30.503,846.138 30,845.153 30,844.125C30,806.701 30,510.015 30,472.591C30,470.451 32.138,468.716 34.776,468.716C54.561,468.716 129.971,468.716 149.755,468.716C152.393,468.716 154.531,470.451 154.531,472.591C154.531,496.486 154.531,622.792 154.531,622.792C154.531,646.683 179.351,658.387 212.221,658.387L780.044,658.387C812.915,658.387 841.469,646.683 841.469,622.792L841.469,472.591Z" style="fill:url(#_Linear1);"/>
    </g>
    <g transform="matrix(1.0468,0,0,1.2903,-9.30826,-432.674)">
        <path d="M46.835,482.374L137.696,482.374L137.696,622.792C137.696,654.477 168.627,672.045 212.221,672.045L780.044,672.045C823.175,672.045 858.305,654.14 858.305,622.792L858.305,482.374L949.165,482.374L949.165,834.342L803.075,834.342L803.075,753.452C803.075,735.659 793.511,718.535 776.201,705.954C759.591,693.882 737.104,687.009 713.613,687.009L282.387,687.009C258.896,687.009 236.409,693.882 219.799,705.954C202.489,718.535 192.925,735.659 192.925,753.452L192.925,834.342L46.835,834.342L46.835,482.374Z" style="fill:url(#_Linear2);"/>
    </g>
    <g transform="matrix(-0.471097,-5.76927e-17,5.76927e-17,-0.471097,902.389,731.315)">
        <circle cx="-5.5" cy="477.5" r="125.5" style="fill:rgb(0,163,224);"/>
    </g>
    <g transform="matrix(-0.429664,-5.26186e-17,5.26186e-17,-0.429664,902.617,711.531)">
        <circle cx="-5.5" cy="477.5" r="125.5" style="fill:rgb(48,46,44);"/>
    </g>
    <g transform="matrix(-0.471097,-5.76927e-17,5.76927e-17,-0.471097,109.958,731.315)">
        <circle cx="-5.5" cy="477.5" r="125.5" style="fill:url(#_Linear3);"/>
    </g>
    <g transform="matrix(-0.429664,-5.26186e-17,5.26186e-17,-0.429664,110.186,711.531)">
        <circle cx="-5.5" cy="477.5" r="125.5" style="fill:rgb(48,46,44);"/>
    </g>
    <g transform="matrix(0.177578,0,0,0.250223,824.537,465.563)">
        <path d="M529.579,486.5L529.579,495.5C529.579,500.169 524.238,503.959 517.659,503.959L388.341,503.959C381.762,503.959 376.421,500.169 376.421,495.5L376.421,486.5C376.421,481.831 381.762,478.041 388.341,478.041L517.659,478.041C524.238,478.041 529.579,481.831 529.579,486.5Z" style="fill:rgb(0,163,224);"/>
    </g>
    <g transform="matrix(0.317272,0,0,0.317272,-27.1458,427.574)">
        <path d="M418.028,525.972L384.852,525.972L383.622,525.848L382.469,525.489L381.428,524.924L380.525,524.179L379.78,523.276L379.215,522.236L378.857,521.082L378.732,519.852L378.732,514.148L378.857,512.918L379.215,511.764L379.78,510.724L380.525,509.821L381.428,509.076L382.469,508.511L383.622,508.152L384.852,508.028L418.028,508.028L418.028,474.852L418.152,473.622L418.511,472.469L419.076,471.428L419.821,470.525L420.724,469.78L421.764,469.215L422.918,468.857L424.148,468.732L429.852,468.732L431.082,468.857L432.236,469.215L433.276,469.78L434.179,470.525L434.924,471.428L435.489,472.469L435.848,473.622L435.972,474.852L435.972,508.028L469.148,508.028L470.378,508.152L471.531,508.511L472.572,509.076L473.475,509.821L474.22,510.724L474.785,511.764L475.143,512.918L475.268,514.148L475.268,519.852L475.143,521.082L474.785,522.236L474.22,523.276L473.475,524.179L472.572,524.924L471.531,525.489L470.378,525.848L469.148,525.972L435.972,525.972L435.972,559.148L435.848,560.378L435.489,561.531L434.924,562.572L434.179,563.475L433.276,564.22L432.236,564.785L431.082,565.143L429.852,565.268L424.148,565.268L422.918,565.143L421.764,564.785L420.724,564.22L419.821,563.475L419.076,562.572L418.511,561.531L418.152,560.378L418.028,559.148L418.028,525.972Z" style="fill:url(#_Linear4);"/>
    </g>
    <defs>
        <linearGradient id="_Linear1" x1="0" y1="0" x2="1" y2="0" gradientUnits="userSpaceOnUse" gradientTransform="matrix(3.00608e-14,398.284,178.696,-8.87706e-15,498,458.438)"><stop offset="0" style="stop-color:rgb(210,226,230);stop-opacity:1"/><stop offset="0.01" style="stop-color:rgb(214,234,241);stop-opacity:1"/><stop offset="0.02" style="stop-color:rgb(215,236,243);stop-opacity:1"/><stop offset="0.06" style="stop-color:rgb(182,206,220);stop-opacity:1"/><stop offset="0.68" style="stop-color:rgb(186,209,221);stop-opacity:1"/><stop offset="1" style="stop-color:rgb(210,226,230);stop-opacity:1"/></linearGradient>
        <linearGradient id="_Linear2" x1="0" y1="0" x2="1" y2="0" gradientUnits="userSpaceOnUse" gradientTransform="matrix(2.62275e-14,-347.496,-155.909,-7.74508e-15,498,842.384)"><stop offset="0" style="stop-color:rgb(210,226,230);stop-opacity:1"/><stop offset="0.12" style="stop-color:rgb(214,233,239);stop-opacity:1"/><stop offset="0.22" style="stop-color:rgb(215,236,243);stop-opacity:1"/><stop offset="1" style="stop-color:rgb(210,226,230);stop-opacity:1"/></linearGradient>
        <linearGradient id="_Linear3" x1="0" y1="0" x2="1" y2="0" gradientUnits="userSpaceOnUse" gradientTransform="matrix(251,0,0,251,-131,477.5)"><stop offset="0" style="stop-color:rgb(0,161,83);stop-opacity:1"/><stop offset="1" style="stop-color:rgb(0,162,122);stop-opacity:1"/></linearGradient>
        <linearGradient id="_Linear4" x1="0" y1="0" x2="1" y2="0" gradientUnits="userSpaceOnUse" gradientTransform="matrix(1,0,0,1,0,0.5)"><stop offset="0" style="stop-color:rgb(0,161,83);stop-opacity:1"/><stop offset="1" style="stop-color:rgb(0,162,122);stop-opacity:1"/></linearGradient>
    </defs>
</svg>
