<?xml version="1.0" encoding="UTF-8" standalone="no"?>
<!DOCTYPE svg PUBLIC "-//W3C//DTD SVG 1.1//EN" "http://www.w3.org/Graphics/SVG/1.1/DTD/svg11.dtd">
<svg width="100%" height="100%" viewBox="0 0 1024 768" version="1.1" xmlns="http://www.w3.org/2000/svg" xmlns:xlink="http://www.w3.org/1999/xlink" xml:space="preserve" xmlns:serif="http://www.serif.com/" style="fill-rule:evenodd;clip-rule:evenodd;stroke-linejoin:round;stroke-miterlimit:2;">
    <g transform="matrix(0.898173,0,0,0.873701,62.9136,-240.402)">
        <path d="M865.472,471.83L872.954,472.607L879.975,474.848L886.309,478.381L891.805,483.043L896.34,488.693L899.777,495.205L901.957,502.422L902.713,510.114L902.713,692.42C902.713,728.318 873.869,757.779 837.971,757.779L162.029,757.779C126.131,757.779 97.287,728.318 97.287,692.42L97.287,508.598L98.013,501.212L100.107,494.279L103.408,488.025L107.763,482.599L113.041,478.123L119.125,474.728L125.869,472.576L133.054,471.83L133.056,471.83L140.067,472.543L146.744,474.629L152.899,478.007L158.347,482.599L162.814,488.199L166.1,494.528L168.129,501.391L168.823,508.598L168.823,667.315C168.823,676.511 176.586,683.656 185.782,683.656L811.269,683.656C820.465,683.656 828.228,676.511 828.228,667.315L828.228,510.114L828.984,502.422L831.164,495.205L834.601,488.693L839.136,483.043L844.632,478.381L850.967,474.848L857.987,472.607L865.469,471.83L865.472,471.83Z" style="fill:url(#_Linear1);"/>
    </g>
    <g transform="matrix(0.882906,0,0,0.882906,70.5469,-252.9)">
        <path d="M871.791,504.54C880.33,504.54 887.251,511.462 887.251,520L887.251,698.306C887.251,721.626 867.788,740.559 843.815,740.559L156.185,740.559C132.212,740.559 112.749,721.626 112.749,698.306L112.749,518.5C112.749,514.798 114.22,511.247 116.838,508.629C119.456,506.011 123.007,504.54 126.709,504.54L126.711,504.54C130.413,504.54 133.964,506.011 136.582,508.629C139.2,511.247 140.671,514.798 140.671,518.5L140.671,673.463C140.671,694.765 158.45,712.059 180.348,712.059L816.652,712.059C838.55,712.059 856.329,694.765 856.329,673.463L856.329,520C856.329,515.9 857.958,511.967 860.857,509.068C863.756,506.169 867.689,504.54 871.789,504.54L871.791,504.54Z" style="fill:rgb(244,127,4);"/>
    </g>
    <defs>
        <linearGradient id="_Linear1" x1="0" y1="0" x2="1" y2="0" gradientUnits="userSpaceOnUse" gradientTransform="matrix(1.69635e-14,277.035,-277.035,1.69635e-14,500,480.744)"><stop offset="0" style="stop-color:rgb(210,226,230);stop-opacity:1"/><stop offset="0.61" style="stop-color:rgb(206,223,228);stop-opacity:1"/><stop offset="0.95" style="stop-color:rgb(182,206,220);stop-opacity:1"/><stop offset="0.98" style="stop-color:rgb(187,210,222);stop-opacity:1"/><stop offset="1" style="stop-color:rgb(210,226,230);stop-opacity:1"/></linearGradient>
    </defs>
</svg>
