<?xml version="1.0" encoding="UTF-8" standalone="no"?>
<!DOCTYPE svg PUBLIC "-//W3C//DTD SVG 1.1//EN" "http://www.w3.org/Graphics/SVG/1.1/DTD/svg11.dtd">
<svg width="100%" height="100%" viewBox="0 0 1024 768" version="1.1" xmlns="http://www.w3.org/2000/svg" xmlns:xlink="http://www.w3.org/1999/xlink" xml:space="preserve" xmlns:serif="http://www.serif.com/" style="fill-rule:evenodd;clip-rule:evenodd;stroke-linejoin:round;stroke-miterlimit:2;">
    <g transform="matrix(1,0,0,1,-271.714,-219.312)">
        <path d="M822.594,643.039L822.594,667.692C822.594,671.968 821.751,676.201 820.112,680.15L814.128,694.569C812.66,698.105 811.905,701.896 811.905,705.724C811.905,705.724 811.905,898.79 811.905,935.455C811.905,937.039 811.275,938.558 810.156,939.678C809.036,940.798 807.517,941.427 805.933,941.427C803.378,941.427 800.401,941.427 797.846,941.427C796.262,941.427 794.743,940.798 793.623,939.678C792.503,938.558 791.874,937.039 791.874,935.455C791.874,898.853 791.874,706.402 791.874,706.402C791.874,702.126 791.03,697.892 789.391,693.943L783.407,679.525C781.939,675.989 781.184,672.198 781.184,668.37L781.184,643.039L822.594,643.039Z" style="fill:rgb(237,237,237);"/>
    </g>
    <g transform="matrix(0.483716,0,0,0.501556,172.36,-220.401)">
        <rect x="720" y="493.357" width="41.41" height="264.091" style="fill:url(#_Linear1);"/>
    </g>
    <g transform="matrix(1,0,0,1,-271.238,-69.9546)">
        <rect x="791.874" y="170.749" width="20.031" height="9.354" style="fill:url(#_Linear2);"/>
    </g>
    <g transform="matrix(2.62358,0,0,2.62358,-1573.17,-22.2218)">
        <rect x="793.997" y="170.749" width="15.784" height="9.354" style="fill:url(#_Linear3);"/>
    </g>
    <g transform="matrix(1.26907,0,0,0.896625,-487.001,-132.144)">
        <rect x="793.997" y="170.749" width="15.784" height="9.354" style="fill:url(#_Linear4);"/>
    </g>
    <g transform="matrix(1,0,0,1,-271.238,-153.058)">
        <rect x="781.184" y="506.782" width="41.41" height="72.029" style="fill:rgb(237,237,237);"/>
    </g>
    <g transform="matrix(-1,-1.22465e-16,1.22465e-16,-1,1332.54,323.632)">
        <rect x="791.874" y="170.749" width="20.031" height="9.354" style="fill:url(#_Linear5);"/>
    </g>
    <g transform="matrix(1,0,0,1,-271.238,-153.058)">
        <path d="M847.491,248.501C848.083,248.501 848.652,248.736 849.071,249.155C849.49,249.574 849.725,250.142 849.725,250.735C849.725,276.8 849.725,522.133 849.725,522.133C849.218,528.827 846.329,535.148 841.543,539.928C836.253,545.212 829.077,548.181 821.596,548.181L782.183,548.181C774.701,548.181 767.526,545.212 762.235,539.928C756.945,534.644 753.973,527.478 753.973,520.005C753.973,520.005 753.991,292.876 754.026,233.01C754.27,229.302 752.967,225.658 750.427,222.945C747.887,220.233 744.337,218.694 740.621,218.694L740.621,218.69C736.545,218.69 733.241,221.994 733.241,226.07C733.241,226.287 733.238,226.503 733.232,226.718C733.061,231.971 728.709,236.116 723.454,236.031C718.484,235.95 714.445,232.115 714.02,227.254C714.587,221.543 717.111,216.173 721.205,212.079C725.884,207.4 732.23,204.772 738.847,204.772L817.371,204.772L817.371,248.501L847.491,248.501ZM781.522,267.561C781.469,267.953 781.442,268.354 781.442,268.76L781.442,301.393C781.442,306.28 785.404,310.243 790.292,310.243L811.149,310.243C816.037,310.243 820,306.28 820,301.393L820,297.087C820.053,296.695 820.08,296.295 820.08,295.888L820.08,263.256C820.08,258.368 816.118,254.406 811.23,254.406L790.372,254.406C785.484,254.406 781.522,258.368 781.522,263.256L781.522,267.561Z" style="fill:url(#_Linear6);"/>
    </g>
    <g transform="matrix(1,0,0,1,-271.238,-153.058)">
        <path d="M714.02,227.254C713.995,226.974 713.983,226.691 713.983,226.405C713.978,225.678 713.978,224.948 713.978,224.217C713.978,217.6 716.607,211.254 721.285,206.575C725.964,201.896 732.31,199.267 738.927,199.267L817.371,199.267L817.371,204.772L738.847,204.772C732.23,204.772 725.884,207.4 721.205,212.079C717.111,216.173 714.587,221.543 714.02,227.254Z" style="fill:rgb(114,216,198);"/>
    </g>
    <g transform="matrix(1,0,0,1,-271.238,-153.058)">
        <path d="M781.522,267.561L781.522,295.888C781.522,300.776 785.484,304.738 790.372,304.738L811.23,304.738C815.711,304.738 819.414,301.408 820,297.087L820,301.393C820,306.28 816.037,310.243 811.149,310.243L790.292,310.243C785.404,310.243 781.442,306.28 781.442,301.393L781.442,268.76C781.442,268.354 781.469,267.953 781.522,267.561Z" style="fill:url(#_Linear7);"/>
    </g>
    <g transform="matrix(0.682544,0,0,0.724068,56.9926,-25.2802)">
        <path d="M758.39,561.372C756.625,564.213 754.471,566.854 751.96,569.221C744.222,576.515 733.727,580.613 722.784,580.613L665.137,580.613C654.193,580.613 643.698,576.515 635.96,569.221C633.449,566.853 631.295,564.213 629.53,561.372C634.767,562.221 640.173,562.66 645.646,562.66L742.274,562.66C747.747,562.66 753.153,562.221 758.39,561.372Z" style="fill:url(#_Linear8);"/>
    </g>
    <g transform="matrix(0.8578,0,0,0.534058,356.209,37.7071)">
        <rect x="221.407" y="50.256" width="35.128" height="57.851" style="fill:rgb(235,235,235);"/>
    </g>
    <g transform="matrix(1.90907,0,0,0.896625,-969.663,-81.4905)">
        <rect x="793.997" y="170.749" width="15.784" height="9.354" style="fill:url(#_Linear9);"/>
    </g>
    <g transform="matrix(0.649503,0,0,0.609818,136.779,-118.331)">
        <path d="M635.491,259.28C648.446,259.28 660.872,264.762 670.033,274.519C679.194,284.276 684.34,297.51 684.34,311.309C684.34,311.31 684.34,311.312 684.34,311.313C684.34,314.434 681.965,316.964 679.035,316.964C669.054,316.964 647.402,316.964 635.294,316.964C630.524,316.964 626.656,312.845 626.656,307.764L626.656,267.138C626.656,262.798 629.96,259.28 634.034,259.28C634.503,259.28 634.989,259.28 635.491,259.28Z" style="fill:url(#_Linear10);"/>
    </g>
    <g transform="matrix(0.683689,0,0,0.529345,-20.5217,-66.951)">
        <path d="M858.154,142.601C862.925,142.601 867.5,145.048 870.873,149.405C874.247,153.762 876.142,159.671 876.142,165.833C876.142,165.835 876.142,165.836 876.142,165.838C876.142,166.606 875.906,167.343 875.485,167.887C875.064,168.43 874.493,168.736 873.898,168.736C857.394,168.736 754.955,168.736 738.45,168.736C737.855,168.736 737.284,168.43 736.864,167.887C736.443,167.343 736.207,166.606 736.207,165.838C736.207,165.836 736.207,165.835 736.207,165.833C736.207,159.671 738.102,153.762 741.475,149.405C744.848,145.048 749.424,142.601 754.194,142.601C781.042,142.601 831.306,142.601 858.154,142.601Z" style="fill:url(#_Linear11);"/>
    </g>
    <g transform="matrix(0.894757,0,0,0.628505,-97.9405,46.7422)">
        <path d="M737.35,548.181C738.665,548.181 739.732,549.699 739.732,551.572C739.732,560.489 739.732,585.13 739.732,602.885C739.732,608.111 738.273,613.123 735.678,616.818C733.082,620.513 729.562,622.589 725.891,622.589C712.557,622.589 692.498,622.589 679.164,622.589C675.494,622.589 671.973,620.513 669.377,616.818C666.782,613.123 665.324,608.111 665.324,602.885C665.324,585.13 665.324,560.489 665.324,551.572C665.324,549.699 666.39,548.181 667.706,548.181C678.895,548.181 726.16,548.181 737.35,548.181Z" style="fill:url(#_Linear12);"/>
    </g>
    <g transform="matrix(1.45818,0,0,0.584547,-631.389,-15.3113)">
        <path d="M813.135,312.56C814.327,312.56 815.47,313.741 816.313,315.844C817.156,317.946 817.629,320.798 817.629,323.771C817.629,329.137 817.629,335.545 817.629,340.911C817.629,343.884 817.156,346.736 816.313,348.839C815.47,350.941 814.327,352.122 813.135,352.122C805.522,352.122 790.175,352.122 782.561,352.122C781.369,352.122 780.226,350.941 779.383,348.839C778.541,346.736 778.067,343.884 778.067,340.911C778.067,335.545 778.067,329.137 778.067,323.771C778.067,320.798 778.541,317.946 779.383,315.844C780.226,313.741 781.369,312.56 782.561,312.56C790.175,312.56 805.522,312.56 813.135,312.56Z" style="fill:rgb(237,237,237);"/>
    </g>
    <g transform="matrix(3.43574,0,0,0.632982,-2225.8,56.3529)">
        <path d="M794.601,180.103C794.672,179.515 794.754,178.964 794.847,178.459C795.205,176.517 795.69,175.426 796.196,175.426L809.172,175.426C809.678,175.426 810.163,176.517 810.521,178.459C810.614,178.964 810.696,179.515 810.767,180.103L794.601,180.103Z" style="fill:url(#_Linear13);"/>
    </g>
    <g transform="matrix(1.09017,0,0,1.19218,-343.452,-209.646)">
        <path d="M807.357,264.32C812.133,264.32 816.005,267.86 816.005,272.228C816.005,278.198 816.005,286.352 816.005,292.321C816.005,296.689 812.133,300.23 807.357,300.23C803.835,300.23 799.774,300.23 796.252,300.23C791.476,300.23 787.604,296.689 787.604,292.321C787.604,286.352 787.604,278.198 787.604,272.228C787.604,267.86 791.476,264.32 796.252,264.32C799.774,264.32 803.835,264.32 807.357,264.32Z" style="fill:url(#_Linear14);"/>
    </g>
    <g transform="matrix(1.5379,1.80962e-17,1.17668e-17,1.84789,-695.786,-532.308)">
        <rect x="796.586" y="345.14" width="1.775" height="23.126" style="fill:url(#_Linear15);"/>
    </g>
    <g transform="matrix(1.84789,1.80962e-17,1.41386e-17,1.84789,-933.213,-532.308)">
        <path d="M796.586,345.321C797.226,345.466 797.823,345.696 798.361,345.995L798.361,367.452C797.823,367.751 797.226,367.981 796.586,368.127L796.586,345.321Z" style="fill:url(#_Linear16);"/>
    </g>
    <g transform="matrix(1.5379,1.80962e-17,1.17668e-17,1.84789,-704.521,-532.308)">
        <path d="M796.586,345.632C797.137,345.414 797.734,345.262 798.361,345.189L798.361,368.258C797.734,368.185 797.137,368.033 796.586,367.815L796.586,345.632Z" style="fill:url(#_Linear17);"/>
    </g>
    <defs>
        <linearGradient id="_Linear1" x1="0" y1="0" x2="1" y2="0" gradientUnits="userSpaceOnUse" gradientTransform="matrix(2.38314e-14,-375.353,389.197,2.29838e-14,740.705,741.674)"><stop offset="0" style="stop-color:rgb(237,237,237);stop-opacity:1"/><stop offset="0.63" style="stop-color:rgb(226,226,226);stop-opacity:1"/><stop offset="1" style="stop-color:rgb(164,164,164);stop-opacity:1"/></linearGradient>
        <linearGradient id="_Linear2" x1="0" y1="0" x2="1" y2="0" gradientUnits="userSpaceOnUse" gradientTransform="matrix(5.17062e-16,-8.44427,8.44427,5.17062e-16,801.889,183.871)"><stop offset="0" style="stop-color:rgb(237,237,237);stop-opacity:1"/><stop offset="0.47" style="stop-color:rgb(217,217,217);stop-opacity:1"/><stop offset="1" style="stop-color:rgb(164,164,164);stop-opacity:1"/></linearGradient>
        <linearGradient id="_Linear3" x1="0" y1="0" x2="1" y2="0" gradientUnits="userSpaceOnUse" gradientTransform="matrix(5.17062e-16,-8.44427,8.44427,5.17062e-16,801.889,183.871)"><stop offset="0" style="stop-color:rgb(237,237,237);stop-opacity:1"/><stop offset="0.47" style="stop-color:rgb(217,217,217);stop-opacity:1"/><stop offset="1" style="stop-color:rgb(164,164,164);stop-opacity:1"/></linearGradient>
        <linearGradient id="_Linear4" x1="0" y1="0" x2="1" y2="0" gradientUnits="userSpaceOnUse" gradientTransform="matrix(5.17062e-16,-8.44427,8.44427,5.17062e-16,801.889,183.871)"><stop offset="0" style="stop-color:rgb(237,237,237);stop-opacity:1"/><stop offset="0.47" style="stop-color:rgb(217,217,217);stop-opacity:1"/><stop offset="1" style="stop-color:rgb(164,164,164);stop-opacity:1"/></linearGradient>
        <linearGradient id="_Linear5" x1="0" y1="0" x2="1" y2="0" gradientUnits="userSpaceOnUse" gradientTransform="matrix(5.17062e-16,-8.44427,8.44427,5.17062e-16,801.889,183.871)"><stop offset="0" style="stop-color:rgb(237,237,237);stop-opacity:1"/><stop offset="0.47" style="stop-color:rgb(217,217,217);stop-opacity:1"/><stop offset="1" style="stop-color:rgb(164,164,164);stop-opacity:1"/></linearGradient>
        <linearGradient id="_Linear6" x1="0" y1="0" x2="1" y2="0" gradientUnits="userSpaceOnUse" gradientTransform="matrix(3.53363e-14,577.085,-577.085,3.53363e-14,800.721,204.772)"><stop offset="0" style="stop-color:rgb(66,172,153);stop-opacity:1"/><stop offset="0.53" style="stop-color:rgb(56,160,141);stop-opacity:1"/><stop offset="1" style="stop-color:rgb(21,118,101);stop-opacity:1"/></linearGradient>
        <linearGradient id="_Linear7" x1="0" y1="0" x2="1" y2="0" gradientUnits="userSpaceOnUse" gradientTransform="matrix(1.87827e-15,30.6745,-30.6745,1.87827e-15,801.889,301.341)"><stop offset="0" style="stop-color:rgb(66,172,153);stop-opacity:1"/><stop offset="0.55" style="stop-color:rgb(28,108,94);stop-opacity:1"/><stop offset="1" style="stop-color:rgb(13,82,70);stop-opacity:1"/></linearGradient>
        <linearGradient id="_Linear8" x1="0" y1="0" x2="1" y2="0" gradientUnits="userSpaceOnUse" gradientTransform="matrix(1.54135e-15,23.7286,-25.1722,1.45296e-15,693.96,561.372)"><stop offset="0" style="stop-color:rgb(45,146,129);stop-opacity:1"/><stop offset="1" style="stop-color:rgb(11,91,77);stop-opacity:1"/></linearGradient>
        <linearGradient id="_Linear9" x1="0" y1="0" x2="1" y2="0" gradientUnits="userSpaceOnUse" gradientTransform="matrix(5.17062e-16,-8.44427,8.44427,5.17062e-16,801.889,183.871)"><stop offset="0" style="stop-color:rgb(237,237,237);stop-opacity:1"/><stop offset="0.47" style="stop-color:rgb(217,217,217);stop-opacity:1"/><stop offset="1" style="stop-color:rgb(164,164,164);stop-opacity:1"/></linearGradient>
        <linearGradient id="_Linear10" x1="0" y1="0" x2="1" y2="0" gradientUnits="userSpaceOnUse" gradientTransform="matrix(3.46791e-16,3.99748,-5.66353,2.44775e-16,656.109,313.019)"><stop offset="0" style="stop-color:rgb(237,237,237);stop-opacity:1"/><stop offset="1" style="stop-color:rgb(164,164,164);stop-opacity:1"/></linearGradient>
        <linearGradient id="_Linear11" x1="0" y1="0" x2="1" y2="0" gradientUnits="userSpaceOnUse" gradientTransform="matrix(-1.66357e-13,4.79693,-3.71402,-2.14863e-13,808.171,163.917)"><stop offset="0" style="stop-color:rgb(237,237,237);stop-opacity:1"/><stop offset="1" style="stop-color:rgb(164,164,164);stop-opacity:1"/></linearGradient>
        <linearGradient id="_Linear12" x1="0" y1="0" x2="1" y2="0" gradientUnits="userSpaceOnUse" gradientTransform="matrix(-1.28239e-13,18.4734,-13.8418,-1.7115e-13,702.528,604.116)"><stop offset="0" style="stop-color:rgb(45,146,129);stop-opacity:1"/><stop offset="0.59" style="stop-color:rgb(39,136,119);stop-opacity:1"/><stop offset="0.8" style="stop-color:rgb(25,113,98);stop-opacity:1"/><stop offset="1" style="stop-color:rgb(11,91,77);stop-opacity:1"/></linearGradient>
        <linearGradient id="_Linear13" x1="0" y1="0" x2="1" y2="0" gradientUnits="userSpaceOnUse" gradientTransform="matrix(5.17062e-16,-8.44427,8.44427,5.17062e-16,801.889,183.871)"><stop offset="0" style="stop-color:rgb(237,237,237);stop-opacity:1"/><stop offset="0.47" style="stop-color:rgb(217,217,217);stop-opacity:1"/><stop offset="1" style="stop-color:rgb(164,164,164);stop-opacity:1"/></linearGradient>
        <linearGradient id="_Linear14" x1="0" y1="0" x2="1" y2="0" gradientUnits="userSpaceOnUse" gradientTransform="matrix(28.4019,0,0,25.9715,787.604,282.275)"><stop offset="0" style="stop-color:rgb(24,24,24);stop-opacity:1"/><stop offset="0.17" style="stop-color:rgb(57,57,57);stop-opacity:1"/><stop offset="0.5" style="stop-color:rgb(63,63,63);stop-opacity:1"/><stop offset="0.83" style="stop-color:rgb(57,57,57);stop-opacity:1"/><stop offset="1" style="stop-color:rgb(24,24,24);stop-opacity:1"/></linearGradient>
        <linearGradient id="_Linear15" x1="0" y1="0" x2="1" y2="0" gradientUnits="userSpaceOnUse" gradientTransform="matrix(1.52454e-15,23.126,-27.7874,1.68818e-15,797.474,345.14)"><stop offset="0" style="stop-color:rgb(24,24,24);stop-opacity:1"/><stop offset="1" style="stop-color:rgb(53,53,53);stop-opacity:1"/></linearGradient>
        <linearGradient id="_Linear16" x1="0" y1="0" x2="1" y2="0" gradientUnits="userSpaceOnUse" gradientTransform="matrix(1.52454e-15,23.126,-27.7874,1.68818e-15,797.474,345.14)"><stop offset="0" style="stop-color:rgb(24,24,24);stop-opacity:1"/><stop offset="1" style="stop-color:rgb(53,53,53);stop-opacity:1"/></linearGradient>
        <linearGradient id="_Linear17" x1="0" y1="0" x2="1" y2="0" gradientUnits="userSpaceOnUse" gradientTransform="matrix(1.52454e-15,23.126,-27.7874,1.68818e-15,797.474,345.14)"><stop offset="0" style="stop-color:rgb(24,24,24);stop-opacity:1"/><stop offset="1" style="stop-color:rgb(53,53,53);stop-opacity:1"/></linearGradient>
    </defs>
</svg>
