<?xml version="1.0" encoding="UTF-8" standalone="no"?>
<!DOCTYPE svg PUBLIC "-//W3C//DTD SVG 1.1//EN" "http://www.w3.org/Graphics/SVG/1.1/DTD/svg11.dtd">
<svg width="100%" height="100%" viewBox="0 0 1024 768" version="1.1" xmlns="http://www.w3.org/2000/svg" xmlns:xlink="http://www.w3.org/1999/xlink" xml:space="preserve" xmlns:serif="http://www.serif.com/" style="fill-rule:evenodd;clip-rule:evenodd;stroke-linejoin:round;stroke-miterlimit:2;">
    <g transform="matrix(1,0,0,0.3772,-6.8078,334.862)">
        <path d="M256.384,624.859C259.674,624.859 262.829,628.324 265.156,634.491C267.482,640.658 268.789,649.023 268.789,657.745C268.789,667.68 268.789,677.754 268.789,684.589C268.789,689.279 267.355,693.081 265.586,693.081C254.125,693.081 215.231,693.081 203.77,693.081C202.001,693.081 200.567,689.279 200.567,684.589L200.567,657.745C200.567,649.023 201.874,640.658 204.2,634.491C206.527,628.324 209.682,624.859 212.972,624.859C225.289,624.859 244.067,624.859 256.384,624.859Z" style="fill:rgb(68,68,68);"/>
    </g>
    <g transform="matrix(1,0,0,0.3772,561.452,334.862)">
        <path d="M256.384,624.859C259.674,624.859 262.829,628.324 265.156,634.491C267.482,640.658 268.789,649.023 268.789,657.745C268.789,667.68 268.789,677.754 268.789,684.589C268.789,689.279 267.355,693.081 265.586,693.081C254.125,693.081 215.231,693.081 203.77,693.081C202.001,693.081 200.567,689.279 200.567,684.589L200.567,657.745C200.567,649.023 201.874,640.658 204.2,634.491C206.527,628.324 209.682,624.859 212.972,624.859C225.289,624.859 244.067,624.859 256.384,624.859Z" style="fill:rgb(68,68,68);"/>
    </g>
    <g transform="matrix(1.68736,0,0,0.342187,-420.728,357.068)">
        <path d="M339.346,596.206L396.518,215.06L709.029,215.06L766.201,596.206L339.346,596.206Z" style="fill:url(#_Linear1);"/>
    </g>
    <path d="M872.129,561.082L873.665,563.159C876.519,567.017 876.956,572.153 874.796,576.438C872.636,580.723 868.246,583.426 863.448,583.426L160.552,583.426C155.754,583.426 151.364,580.723 149.204,576.438C147.044,572.153 147.481,567.017 150.335,563.159L151.871,561.082L872.129,561.082Z" style="fill:url(#_Linear2);"/>
    <g transform="matrix(1,0,0,0.403212,16.1175,281.116)">
        <path d="M768.942,315.968C771.878,315.968 774.694,318.861 776.77,324.009C778.846,329.158 780.012,336.141 780.012,343.423C780.012,343.423 780.012,343.423 780.012,343.423C780.012,350.705 778.846,357.688 776.77,362.837C774.694,367.985 771.878,370.878 768.942,370.878C696.858,370.878 294.907,370.878 222.823,370.878C219.887,370.878 217.071,367.985 214.995,362.837C212.919,357.688 211.753,350.705 211.753,343.423C211.753,343.423 211.753,343.423 211.753,343.423C211.753,336.141 212.919,329.158 214.995,324.009C217.071,318.861 219.887,315.968 222.823,315.968C294.907,315.968 696.858,315.968 768.942,315.968Z" style="fill:url(#_Linear3);"/>
    </g>
    <g transform="matrix(1,0,0,0.403212,16.1175,281.116)">
        <path d="M768.942,315.968C771.878,315.968 774.694,318.861 776.77,324.009C778.846,329.158 780.012,336.141 780.012,343.423C780.012,343.423 780.012,343.423 780.012,343.423C780.012,350.705 778.846,357.688 776.77,362.837C774.694,367.985 771.878,370.878 768.942,370.878C696.858,370.878 294.907,370.878 222.823,370.878C219.887,370.878 217.071,367.985 214.995,362.837C212.919,357.688 211.753,350.705 211.753,343.423C211.753,343.423 211.753,343.423 211.753,343.423C211.753,336.141 212.919,329.158 214.995,324.009C217.071,318.861 219.887,315.968 222.823,315.968C294.907,315.968 696.858,315.968 768.942,315.968Z" style="fill:rgb(70,70,70);"/>
    </g>
    <g transform="matrix(0.852697,0,0,0.228545,129.666,242.935)">
        <path d="M522.573,960.617C525.555,960.617 528.415,965.038 530.524,972.905C532.633,980.773 533.817,991.444 533.817,1002.57L533.817,1210.87C533.817,1221.99 532.633,1232.66 530.524,1240.53C528.415,1248.4 525.555,1252.82 522.573,1252.82L252.86,1252.82C249.877,1252.82 247.017,1248.4 244.908,1240.53C242.8,1232.66 241.615,1221.99 241.615,1210.87L241.615,1002.57C241.615,991.444 242.8,980.773 244.908,972.905C247.017,965.038 249.877,960.617 252.86,960.617L522.573,960.617Z" style="fill:rgb(84,125,113);"/>
    </g>
    <g transform="matrix(1.87581,0,0,1,-334.896,-480.416)">
        <path d="M358.401,948.402C359.934,945.148 363.244,942.895 367.08,942.895L480.731,942.895C484.567,942.895 487.877,945.148 489.41,948.402C450.392,948.024 409.579,947.792 358.401,948.402Z" style="fill:rgb(47,96,79);"/>
    </g>
    <path d="M460.271,468.171L385.057,528.991C364.952,529.179 335.14,529.21 349.063,528.904L424.916,467.884L460.271,468.171Z" style="fill:rgb(92,146,130);"/>
    <defs>
        <linearGradient id="_Linear1" x1="0" y1="0" x2="1" y2="0" gradientUnits="userSpaceOnUse" gradientTransform="matrix(2.80087e-14,-409.6,565.35,3.09989e-14,545.662,661.505)"><stop offset="0" style="stop-color:rgb(226,226,226);stop-opacity:1"/><stop offset="0.58" style="stop-color:rgb(246,246,246);stop-opacity:1"/><stop offset="1" style="stop-color:white;stop-opacity:1"/></linearGradient>
        <linearGradient id="_Linear2" x1="0" y1="0" x2="1" y2="0" gradientUnits="userSpaceOnUse" gradientTransform="matrix(-1.48918e-06,30.6132,-323.139,-1.57191e-05,512,552.813)"><stop offset="0" style="stop-color:rgb(231,231,231);stop-opacity:1"/><stop offset="1" style="stop-color:rgb(159,159,159);stop-opacity:1"/></linearGradient>
        <linearGradient id="_Linear3" x1="0" y1="0" x2="1" y2="0" gradientUnits="userSpaceOnUse" gradientTransform="matrix(2.41344e-15,97.751,-7812.34,1.18639e-12,535.124,273.127)"><stop offset="0" style="stop-color:rgb(128,128,128);stop-opacity:1"/><stop offset="0.33" style="stop-color:rgb(139,139,139);stop-opacity:1"/><stop offset="0.5" style="stop-color:rgb(207,207,207);stop-opacity:1"/><stop offset="0.76" style="stop-color:rgb(149,149,149);stop-opacity:1"/><stop offset="1" style="stop-color:rgb(128,128,128);stop-opacity:1"/></linearGradient>
    </defs>
</svg>
