<?xml version="1.0" encoding="UTF-8" standalone="no"?>
<!DOCTYPE svg PUBLIC "-//W3C//DTD SVG 1.1//EN" "http://www.w3.org/Graphics/SVG/1.1/DTD/svg11.dtd">
<svg width="100%" height="100%" viewBox="0 0 1024 768" version="1.1" xmlns="http://www.w3.org/2000/svg" xmlns:xlink="http://www.w3.org/1999/xlink" xml:space="preserve" xmlns:serif="http://www.serif.com/" style="fill-rule:evenodd;clip-rule:evenodd;stroke-linejoin:round;stroke-miterlimit:2;">
    <g transform="matrix(0.630934,0,0,0.630934,-248.963,-336.5)">
        <path d="M1386.31,579.309C1387.19,581.996 1387.81,584.805 1388.15,587.71C1388.71,635.32 1389.06,711.085 1389.06,715.922C1389.06,748.787 1373.59,778.102 1349.48,796.833C1321.11,818.88 1304.45,852.743 1304.44,888.677C1304.42,1083.09 1304.39,1612.25 1304.39,1716.25C1304.39,1726.12 1296.39,1734.12 1286.52,1734.12L1286.51,1734.12C1276.64,1734.12 1268.63,1726.12 1268.63,1716.25L1268.63,888.677C1268.63,852.728 1251.98,818.827 1223.57,796.794C1199.45,778.082 1183.97,748.787 1183.97,715.922C1183.97,711.085 1184.31,635.32 1184.99,587.723C1185.33,584.853 1185.94,582.077 1186.8,579.42C1194.6,571.347 1205.53,566.391 1217.5,566.391C1256.93,566.252 1316.09,566.252 1355.52,566.252C1367.52,566.252 1378.48,571.218 1386.31,579.309Z" style="fill:url(#_Linear1);"/>
    </g>
    <path d="M499.829,29.076C503.367,18.167 513.599,10.457 525.464,10.458C547.271,10.384 578.214,10.384 600.021,10.384C611.901,10.384 622.148,18.092 625.71,29.006C620.77,23.901 613.855,20.768 606.282,20.768C581.405,20.768 544.08,20.768 519.202,20.856C511.65,20.856 504.754,23.982 499.829,29.076Z" style="fill:url(#_Linear2);"/>
    <defs>
        <linearGradient id="_Linear1" x1="0" y1="0" x2="1" y2="0" gradientUnits="userSpaceOnUse" gradientTransform="matrix(9.68664e-14,1182.96,-1581.95,7.24354e-14,1300.68,551.161)"><stop offset="0" style="stop-color:rgb(240,240,240);stop-opacity:1"/><stop offset="0.01" style="stop-color:rgb(216,216,216);stop-opacity:1"/><stop offset="0.02" style="stop-color:rgb(207,207,207);stop-opacity:1"/><stop offset="0.18" style="stop-color:rgb(195,195,195);stop-opacity:1"/><stop offset="0.37" style="stop-color:rgb(183,183,183);stop-opacity:1"/><stop offset="0.89" style="stop-color:rgb(178,178,178);stop-opacity:1"/><stop offset="1" style="stop-color:rgb(128,128,128);stop-opacity:1"/></linearGradient>
        <linearGradient id="_Linear2" x1="0" y1="0" x2="1" y2="0" gradientUnits="userSpaceOnUse" gradientTransform="matrix(3.37989e-15,-55.1979,56.1256,3.4367e-15,562.742,47.5491)"><stop offset="0" style="stop-color:rgb(207,207,207);stop-opacity:1"/><stop offset="0.55" style="stop-color:rgb(190,190,190);stop-opacity:1"/><stop offset="1" style="stop-color:rgb(128,128,128);stop-opacity:1"/></linearGradient>
    </defs>
</svg>
