<?xml version="1.0" encoding="UTF-8" standalone="no"?>
<!DOCTYPE svg PUBLIC "-//W3C//DTD SVG 1.1//EN" "http://www.w3.org/Graphics/SVG/1.1/DTD/svg11.dtd">
<svg width="100%" height="100%" viewBox="0 0 1440 900" version="1.1" xmlns="http://www.w3.org/2000/svg" xmlns:xlink="http://www.w3.org/1999/xlink" xml:space="preserve" xmlns:serif="http://www.serif.com/" style="fill-rule:evenodd;clip-rule:evenodd;stroke-linejoin:round;stroke-miterlimit:2;">
    <g transform="matrix(-1.96833,2.41051e-16,-5.42535e-17,-0.443014,3777.01,1063.57)">
        <path d="M1731.07,849.523C1742.28,849.523 1753.09,867.943 1761.42,901.235C1779.82,974.762 1811.33,1100.7 1811.33,1100.7L1294.87,1100.7C1294.87,1100.7 1326.38,974.762 1344.78,901.235C1353.11,867.943 1363.92,849.523 1375.13,849.523C1439.86,849.523 1666.34,849.523 1731.07,849.523Z" style="fill:url(#_Linear1);"/>
    </g>
    <g transform="matrix(-2.00734,2.45828e-16,-2.45828e-16,-2.00734,2279.32,1826.83)">
        <path d="M506.864,630.129C508.032,628.302 509.402,626.591 510.96,625.034C516.628,619.366 524.315,616.182 532.33,616.182L1021.29,616.182C1029.31,616.182 1036.99,619.366 1042.66,625.034C1044.22,626.591 1045.59,628.302 1046.76,630.129L506.864,630.129Z" style="fill:rgb(221,221,221);"/>
    </g>
    <defs>
        <linearGradient id="_Linear1" x1="0" y1="0" x2="1" y2="0" gradientUnits="userSpaceOnUse" gradientTransform="matrix(6.38229e-15,-463.101,104.231,2.83568e-14,1540.3,1230.21)"><stop offset="0" style="stop-color:rgb(192,192,192);stop-opacity:1"/><stop offset="0.64" style="stop-color:rgb(182,182,182);stop-opacity:1"/><stop offset="1" style="stop-color:rgb(128,128,128);stop-opacity:1"/></linearGradient>
    </defs>
</svg>
