<?xml version="1.0" encoding="UTF-8" standalone="no"?>
<!DOCTYPE svg PUBLIC "-//W3C//DTD SVG 1.1//EN" "http://www.w3.org/Graphics/SVG/1.1/DTD/svg11.dtd">
<svg width="100%" height="100%" viewBox="0 0 430 488" version="1.1" xmlns="http://www.w3.org/2000/svg" xmlns:xlink="http://www.w3.org/1999/xlink" xml:space="preserve" xmlns:serif="http://www.serif.com/" style="fill-rule:evenodd;clip-rule:evenodd;stroke-linejoin:round;stroke-miterlimit:2;">
    <g transform="matrix(1,0,0,1,-1043,0)">
        <rect id="Artboard2" x="1043" y="0" width="430" height="488" style="fill:none;"/>
        <g id="Artboard21" serif:id="Artboard2">
            <g transform="matrix(2.71552,0,0,2.47494,-3064.13,-2278.04)">
                <path d="M1612.69,990.07C1614.1,990.07 1615.25,991.325 1615.25,992.874C1615.25,1001.26 1615.25,1026.09 1615.25,1034.47C1615.25,1036.02 1614.1,1037.28 1612.69,1037.28C1604.47,1037.28 1578.81,1037.28 1570.59,1037.28C1569.18,1037.28 1568.04,1036.02 1568.04,1034.47C1568.04,1026.09 1568.04,1001.26 1568.04,992.874C1568.04,991.325 1569.18,990.07 1570.59,990.07C1578.81,990.07 1604.47,990.07 1612.69,990.07Z" style="fill:url(#_Linear1);"/>
            </g>
        </g>
    </g>
    <defs>
        <linearGradient id="_Linear1" x1="0" y1="0" x2="1" y2="0" gradientUnits="userSpaceOnUse" gradientTransform="matrix(3.97128e-15,71.1601,-0.208324,1.39961e-17,1590.7,990.07)"><stop offset="0" style="stop-color:rgb(57,76,88);stop-opacity:1"/><stop offset="0.65" style="stop-color:rgb(49,65,75);stop-opacity:1"/><stop offset="1" style="stop-color:black;stop-opacity:1"/></linearGradient>
    </defs>
</svg>
