<?xml version="1.0" encoding="UTF-8" standalone="no"?>
<!DOCTYPE svg PUBLIC "-//W3C//DTD SVG 1.1//EN" "http://www.w3.org/Graphics/SVG/1.1/DTD/svg11.dtd">
<svg width="100%" height="100%" viewBox="0 0 1024 768" version="1.1" xmlns="http://www.w3.org/2000/svg" xmlns:xlink="http://www.w3.org/1999/xlink" xml:space="preserve" xmlns:serif="http://www.serif.com/" style="fill-rule:evenodd;clip-rule:evenodd;stroke-linecap:round;stroke-linejoin:round;stroke-miterlimit:1.5;">
    <g transform="matrix(1.83846,0,0,1.41332,-519.199,-159.3)">
        <path d="M579.335,137.187C629.517,137.187 670.198,190.105 670.198,255.383L670.198,513.447C670.198,578.725 629.517,631.643 579.335,631.643L542.474,631.643C492.292,631.643 451.611,578.725 451.611,513.447L451.611,255.383C451.611,190.105 492.292,137.187 542.474,137.187L579.335,137.187Z" style="fill:white;"/>
        <clipPath id="_clip1">
            <path d="M579.335,137.187C629.517,137.187 670.198,190.105 670.198,255.383L670.198,513.447C670.198,578.725 629.517,631.643 579.335,631.643L542.474,631.643C492.292,631.643 451.611,578.725 451.611,513.447L451.611,255.383C451.611,190.105 492.292,137.187 542.474,137.187L579.335,137.187Z"/>
        </clipPath>
        <g clip-path="url(#_clip1)">
            <g transform="matrix(0.76875,0,0,1,132.026,-151.978)">
                <path d="M557.89,289.166L581.865,289.166C647.143,289.166 700.061,342.084 700.061,407.361L700.061,478.23L557.89,478.23L557.89,289.166Z" style="fill:url(#_Linear2);stroke:rgb(77,77,77);stroke-width:11.59px;"/>
            </g>
            <g transform="matrix(0.76875,0,0,1,-18.4932,-151.978)">
                <path d="M611.517,478.23L611.517,407.361C611.517,342.084 664.435,289.166 729.713,289.166L753.688,289.166L753.688,478.23L611.517,478.23Z" style="fill:white;stroke:rgb(77,77,77);stroke-width:11.6px;"/>
            </g>
        </g>
        <path d="M579.335,137.187C629.517,137.187 670.198,190.105 670.198,255.383L670.198,513.447C670.198,578.725 629.517,631.643 579.335,631.643L542.474,631.643C492.292,631.643 451.611,578.725 451.611,513.447L451.611,255.383C451.611,190.105 492.292,137.187 542.474,137.187L579.335,137.187Z" style="fill:none;stroke:rgb(77,77,77);stroke-width:24.39px;"/>
    </g>
    <g transform="matrix(0.343475,0,0,0.276355,319.343,72.7969)">
        <path d="M560.91,137.187C589.895,137.187 617.693,151.498 638.189,176.971C658.684,202.445 670.198,236.994 670.198,273.018C670.198,342.356 670.198,426.474 670.198,495.812C670.198,531.837 658.684,566.386 638.189,591.859C617.693,617.332 589.895,631.643 560.91,631.643C560.906,631.643 560.903,631.643 560.899,631.643C531.914,631.643 504.116,617.332 483.62,591.859C463.125,566.386 451.611,531.837 451.611,495.812C451.611,426.474 451.611,342.356 451.611,273.018C451.611,236.994 463.125,202.445 483.62,176.971C504.116,151.498 531.914,137.187 560.899,137.187C560.903,137.187 560.906,137.187 560.91,137.187Z" style="fill:white;stroke:rgb(77,77,77);stroke-width:52.61px;"/>
    </g>
    <defs>
        <linearGradient id="_Linear2" x1="0" y1="0" x2="1" y2="0" gradientUnits="userSpaceOnUse" gradientTransform="matrix(195.797,0,0,239.762,557.89,358.35)"><stop offset="0" style="stop-color:rgb(60,163,203);stop-opacity:1"/><stop offset="0.57" style="stop-color:rgb(51,159,201);stop-opacity:1"/><stop offset="0.87" style="stop-color:rgb(0,136,189);stop-opacity:1"/><stop offset="1" style="stop-color:rgb(14,136,183);stop-opacity:1"/></linearGradient>
    </defs>
</svg>
