<?xml version="1.0" encoding="UTF-8" standalone="no"?>
<svg
   width="100%"
   height="100%"
   viewBox="0 0 1024 768"
   version="1.1"
   xml:space="preserve"
   style="fill-rule:evenodd;clip-rule:evenodd;stroke-linecap:round;stroke-linejoin:round;stroke-miterlimit:1.5;"
   id="svg12"
   sodipodi:docname="mouse_right_pressed.svg"
   inkscape:version="1.4.2 (ebf0e940, 2025-05-08)"
   xmlns:inkscape="http://www.inkscape.org/namespaces/inkscape"
   xmlns:sodipodi="http://sodipodi.sourceforge.net/DTD/sodipodi-0.dtd"
   xmlns="http://www.w3.org/2000/svg"
   xmlns:svg="http://www.w3.org/2000/svg"><sodipodi:namedview
   id="namedview12"
   pagecolor="#ffffff"
   bordercolor="#000000"
   borderopacity="0.25"
   inkscape:showpageshadow="2"
   inkscape:pageopacity="0.0"
   inkscape:pagecheckerboard="0"
   inkscape:deskcolor="#d1d1d1"
   inkscape:zoom="0.10713098"
   inkscape:cx="1633.5145"
   inkscape:cy="765.4182"
   inkscape:window-width="1472"
   inkscape:window-height="891"
   inkscape:window-x="0"
   inkscape:window-y="37"
   inkscape:window-maximized="1"
   inkscape:current-layer="svg12" />
    
    <g
   transform="matrix(-1.83846,0,0,1.37893,1543.2,-137.583)"
   id="g2">
        <path
   d="M579.335,137.187C629.517,137.187 670.198,190.105 670.198,255.383L670.198,513.447C670.198,578.725 629.517,631.643 579.335,631.643L542.474,631.643C492.292,631.643 451.611,578.725 451.611,513.447L451.611,255.383C451.611,190.105 492.292,137.187 542.474,137.187L579.335,137.187Z"
   style="fill:white;"
   id="path1" />
    </g>
    <g
   transform="matrix(-1.41332,0,0,1.41332,1300.48,-374.093)"
   id="g3">
        <path
   d="M557.89,289.166L581.865,289.166C647.143,289.166 700.061,342.084 700.061,407.361L700.061,478.23L557.89,478.23L557.89,289.166Z"
   style="fill:white;stroke:rgb(77,77,77);stroke-width:11.6px;"
   id="path2" />
    </g>
    <g
   transform="matrix(-1.41332,0,0,1.41332,1577.2,-374.093)"
   id="g4">
        <path
   d="M611.517,478.23L611.517,432.833C611.517,367.556 664.435,314.638 729.713,314.638L753.688,314.638L753.688,478.23L611.517,478.23Z"
   style="fill:url(#_Linear1);stroke:rgb(77,77,77);stroke-width:11.59px;"
   id="path3" />
    </g>
    <g
   transform="matrix(-1,0,0,1.87672,1019.5,-640.993)"
   id="g5">
        <rect
   x="468"
   y="722"
   width="79"
   height="21"
   style="fill:rgb(77,77,77);"
   id="rect4" />
    </g>
    <g
   transform="matrix(-1.83846,0,0,1.41332,1543.2,-159.3)"
   id="g6">
        <path
   d="M560.905,645.794L542.474,645.794C486.283,645.794 440.732,586.541 440.732,513.447L440.732,281.563C440.732,208.469 486.283,149.216 542.474,149.216L560.905,149.216L560.905,177.518L542.474,177.518C498.3,177.518 462.49,224.1 462.49,281.563L462.49,513.447C462.49,570.91 498.3,617.492 542.474,617.492L560.905,617.492L560.905,645.794Z"
   style="fill:rgb(77,77,77);"
   id="path5" />
    </g>
    <g
   transform="matrix(-1,0,0,1,1024,0)"
   id="g7">
        <path
   d="M512,54.589L512,14.589L545.884,14.589C649.188,14.589 732.932,98.333 732.932,201.637L732.932,566.363C732.932,669.667 649.188,753.411 545.884,753.411L512,753.411L512,713.411L545.884,713.411C627.096,713.411 692.932,647.576 692.932,566.363L692.932,201.637C692.932,120.424 627.096,54.589 545.884,54.589L512,54.589Z"
   style="fill:rgb(77,77,77);"
   id="path6" />
    </g>
    <g
   transform="matrix(-0.777778,0,0,0.781924,691.444,3.18148)"
   id="g8">
        <path
   d="M241,14.589L241,109L205,109L205,39.301C205,25.653 216.123,14.589 229.844,14.589C236.062,14.589 241,14.589 241,14.589Z"
   style="fill:rgb(77,77,77);"
   id="path7" />
    </g>
    <g
   transform="matrix(-0.343475,0,0,0.276355,704.657,72.7969)"
   id="g9">
        <path
   d="M560.91,137.187C589.895,137.187 617.693,151.498 638.189,176.971C658.684,202.445 670.198,236.994 670.198,273.018C670.198,342.356 670.198,426.474 670.198,495.812C670.198,531.837 658.684,566.386 638.189,591.859C617.693,617.332 589.895,631.643 560.91,631.643C560.906,631.643 560.903,631.643 560.899,631.643C531.914,631.643 504.116,617.332 483.62,591.859C463.125,566.386 451.611,531.837 451.611,495.812C451.611,426.474 451.611,342.356 451.611,273.018C451.611,236.994 463.125,202.445 483.62,176.971C504.116,151.498 531.914,137.187 560.899,137.187C560.903,137.187 560.906,137.187 560.91,137.187Z"
   style="fill:white;stroke:rgb(77,77,77);stroke-width:52.61px;"
   id="path8" />
    </g>
    <defs
   id="defs12">
        <linearGradient
   id="_Linear1"
   x1="0"
   y1="0"
   x2="1"
   y2="0"
   gradientUnits="userSpaceOnUse"
   gradientTransform="matrix(195.797,0,0,239.762,611.517,358.35)"><stop
     offset="0"
     style="stop-color:rgb(60,163,203);stop-opacity:1"
     id="stop9" /><stop
     offset="0.57"
     style="stop-color:rgb(51,159,201);stop-opacity:1"
     id="stop10" /><stop
     offset="0.87"
     style="stop-color:rgb(0,136,189);stop-opacity:1"
     id="stop11" /><stop
     offset="1"
     style="stop-color:rgb(14,136,183);stop-opacity:1"
     id="stop12" /></linearGradient>
    </defs>
</svg>
