<?xml version="1.0" encoding="UTF-8" standalone="no"?>
<!DOCTYPE svg PUBLIC "-//W3C//DTD SVG 1.1//EN" "http://www.w3.org/Graphics/SVG/1.1/DTD/svg11.dtd">
<svg width="100%" height="100%" viewBox="0 0 1024 768" version="1.1" xmlns="http://www.w3.org/2000/svg" xmlns:xlink="http://www.w3.org/1999/xlink" xml:space="preserve" xmlns:serif="http://www.serif.com/" style="fill-rule:evenodd;clip-rule:evenodd;stroke-linejoin:round;stroke-miterlimit:2;">
    <g transform="matrix(1,0,0,0.873353,-2.5,48.6325)">
        <path d="M181.797,559.445C171.553,540.458 166,518.433 166,495.753L166,272.247C166,240.109 177.15,209.287 196.997,186.561C216.844,163.836 243.763,151.069 271.831,151.069L757.169,151.069C785.237,151.069 812.156,163.836 832.003,186.561C851.85,209.287 863,240.109 863,272.247L863,495.753C863,518.433 857.447,540.458 847.203,559.445C827.436,581.603 800.862,594.031 773.169,594.031L255.831,594.031C228.138,594.031 201.564,581.603 181.797,559.445Z" style="fill:url(#_Linear1);"/>
    </g>
    <path d="M844.703,537.225C840.431,544.14 835.344,550.593 829.503,556.434C809.656,576.281 782.737,587.431 754.669,587.431L269.331,587.431C241.263,587.431 214.344,576.281 194.497,556.434C188.656,550.593 183.569,544.14 179.297,537.225C199.064,556.577 225.638,567.431 253.331,567.431L770.669,567.431C798.362,567.431 824.936,556.577 844.703,537.225Z" style="fill:url(#_Linear2);"/>
    <defs>
        <linearGradient id="_Linear1" x1="0" y1="0" x2="1" y2="0" gradientUnits="userSpaceOnUse" gradientTransform="matrix(4.26789e-14,465.862,-697,2.85258e-14,514.5,151.069)"><stop offset="0" style="stop-color:rgb(236,236,236);stop-opacity:1"/><stop offset="0.61" style="stop-color:rgb(224,224,224);stop-opacity:1"/><stop offset="1" style="stop-color:rgb(163,163,163);stop-opacity:1"/></linearGradient>
        <linearGradient id="_Linear2" x1="0" y1="0" x2="1" y2="0" gradientUnits="userSpaceOnUse" gradientTransform="matrix(6.12323e-17,1,-1,6.12323e-17,0.5,0)"><stop offset="0" style="stop-color:rgb(236,236,236);stop-opacity:1"/><stop offset="0.61" style="stop-color:rgb(224,224,224);stop-opacity:1"/><stop offset="1" style="stop-color:rgb(163,163,163);stop-opacity:1"/></linearGradient>
    </defs>
</svg>
