<?xml version="1.0" encoding="UTF-8" standalone="no"?>
<!DOCTYPE svg PUBLIC "-//W3C//DTD SVG 1.1//EN" "http://www.w3.org/Graphics/SVG/1.1/DTD/svg11.dtd">
<svg width="100%" height="100%" viewBox="0 0 1024 768" version="1.1" xmlns="http://www.w3.org/2000/svg" xmlns:xlink="http://www.w3.org/1999/xlink" xml:space="preserve" xmlns:serif="http://www.serif.com/" style="fill-rule:evenodd;clip-rule:evenodd;stroke-linejoin:round;stroke-miterlimit:2;">
    <g transform="matrix(2.10371,0,0,2.10371,-930.664,-542.482)">
        <path d="M666.355,459.819L603.516,459.819C598.158,459.819 593.808,455.469 593.808,450.111L593.808,430.696C593.808,425.338 598.158,420.988 603.516,420.988L666.355,420.988L666.355,358.149C666.355,352.791 670.705,348.441 676.063,348.441L695.478,348.441C700.836,348.441 705.186,352.791 705.186,358.149L705.186,420.988L768.025,420.988C773.383,420.988 777.733,425.338 777.733,430.696L777.733,450.111C777.733,455.469 773.383,459.819 768.025,459.819L705.186,459.819L705.186,522.658C705.186,528.016 700.836,532.366 695.478,532.366L676.063,532.366C670.705,532.366 666.355,528.016 666.355,522.658L666.355,459.819Z" style="fill:rgb(255,52,52);"/>
    </g>
</svg>
