<?xml version="1.0" encoding="UTF-8" standalone="no"?>
<!DOCTYPE svg PUBLIC "-//W3C//DTD SVG 1.1//EN" "http://www.w3.org/Graphics/SVG/1.1/DTD/svg11.dtd">
<svg width="100%" height="100%" viewBox="0 0 1024 768" version="1.1" xmlns="http://www.w3.org/2000/svg" xmlns:xlink="http://www.w3.org/1999/xlink" xml:space="preserve" xmlns:serif="http://www.serif.com/" style="fill-rule:evenodd;clip-rule:evenodd;stroke-linejoin:round;stroke-miterlimit:2;">
    <g transform="matrix(6.87924,0,0,8.43072,-4462.83,-964.07)">
        <path d="M659.725,151.541C659.725,149.812 661.443,148.41 663.562,148.41L717.402,148.41L717.402,132.684C717.402,131.509 718.162,130.421 719.4,129.821C720.639,129.221 722.173,129.199 723.437,129.763C737.106,135.857 770.336,150.672 784.483,156.979C785.792,157.562 786.607,158.683 786.607,159.9C786.607,161.117 785.792,162.237 784.483,162.821C770.336,169.128 737.106,183.943 723.437,190.037C722.173,190.6 720.639,190.578 719.4,189.979C718.162,189.379 717.402,188.291 717.402,187.116C717.402,180.794 717.402,171.389 717.402,171.389L663.562,171.389C661.443,171.389 659.725,169.988 659.725,168.258L659.725,151.541Z" style="fill:rgb(255,52,52);"/>
    </g>
</svg>
