<?xml version="1.0" encoding="UTF-8" standalone="no"?>
<!DOCTYPE svg PUBLIC "-//W3C//DTD SVG 1.1//EN" "http://www.w3.org/Graphics/SVG/1.1/DTD/svg11.dtd">
<svg width="100%" height="100%" viewBox="0 0 940 477" version="1.1" xmlns="http://www.w3.org/2000/svg" xmlns:xlink="http://www.w3.org/1999/xlink" xml:space="preserve" xmlns:serif="http://www.serif.com/" style="fill-rule:evenodd;clip-rule:evenodd;stroke-linejoin:round;stroke-miterlimit:2;">
    <g id="Gel" transform="matrix(1.74721,0,0,3.78571,-148.513,-2475.86)">
        <rect x="85" y="654" width="538" height="126" style="fill:none;"/>
        <g transform="matrix(0.57234,0,0,0.264151,-450.581,484.415)">
            <path d="M1666.8,771C1670.23,771 1673,773.775 1673,777.197C1673,805.015 1673,917 1673,917L1130,917L1130,777.197C1130,773.775 1132.78,771 1136.2,771C1192.24,771 1610.76,771 1666.8,771Z" style="fill:rgb(165,198,207);fill-opacity:0.75;"/>
        </g>
        <g transform="matrix(0.57234,0,0,0.264151,-450.581,522.981)">
            <path d="M1673,771C1673,771 1699.65,807.174 1715.42,828.594C1717.59,831.531 1717.91,835.435 1716.27,838.691C1714.62,841.947 1711.29,844 1707.64,844C1612.67,844 1192.96,844 1102.14,844C1098.63,844 1095.4,842.099 1093.69,839.034C1091.99,835.968 1092.07,832.219 1093.92,829.236C1107.13,807.907 1130,771 1130,771L1673,771Z" style="fill:rgb(105,174,193);fill-opacity:0.75;"/>
        </g>
        <g transform="matrix(0.67669,0,0,0.132075,-594.381,586.245)">
            <path d="M1180.98,771L1616.9,771C1620.8,771 1624.47,775.332 1626.82,782.698L1659.61,885.783C1661.11,890.506 1661.36,896.832 1660.24,902.12C1659.13,907.408 1656.84,910.75 1654.34,910.75L1148.73,910.75C1146.33,910.75 1144.11,907.657 1142.95,902.678C1141.79,897.699 1141.87,891.623 1143.16,886.82L1170.5,784.648C1172.77,776.151 1176.73,771 1180.98,771Z" style="fill:rgb(165,198,207);fill-opacity:0.49;"/>
        </g>
        <g transform="matrix(0.661486,0,0,0.126422,-572.629,590.604)">
            <path d="M1621.19,771C1625.17,771 1628.93,775.526 1631.33,783.221C1638.68,806.825 1654.98,859.153 1664.88,890.917C1666.41,895.851 1666.66,902.46 1665.52,907.984C1664.38,913.509 1662.04,917 1659.48,917C1583.91,917 1214.45,917 1142.25,917C1139.79,917 1137.53,913.769 1136.34,908.567C1135.15,903.366 1135.24,897.018 1136.55,892C1144.61,861.226 1158.03,810.011 1164.52,785.258C1166.84,776.381 1170.89,771 1175.24,771C1228.55,771 1570.3,771 1621.19,771Z" style="fill:rgb(165,198,207);fill-opacity:0.49;"/>
        </g>
        <g transform="matrix(0.57234,0,0,0.264151,-328.1,436.604)">
            <path d="M1446.45,952L1451.59,952C1456.25,952 1460.63,954.215 1463.4,957.967L1512.77,1025L870.774,1025L911.699,958.942C914.373,954.626 919.089,952 924.166,952L931.045,952C926.018,952 921.341,954.575 918.653,958.824L886.33,1009.91C884.811,1012.31 884.718,1015.35 886.089,1017.84C887.46,1020.33 890.077,1021.88 892.919,1021.88L1490.71,1021.88C1493.67,1021.88 1496.37,1020.2 1497.69,1017.56C1499.01,1014.92 1498.72,1011.75 1496.94,1009.39L1458.17,957.849C1455.4,954.166 1451.06,952 1446.45,952Z" style="fill:rgb(165,198,207);fill-opacity:0.49;"/>
        </g>
        <g transform="matrix(0.67669,0,0,0.264151,-594.381,503.698)">
            <path d="M1656.56,775.625C1664.03,775.625 1670.08,782.778 1670.08,791.601L1670.08,896.955C1670.08,901.044 1668.7,904.967 1666.26,907.858C1663.81,910.75 1660.49,912.375 1657.03,912.375L1146.04,912.375C1142.58,912.375 1139.26,910.75 1136.82,907.858C1134.37,904.967 1133,901.044 1133,896.955L1133,791.601C1133,782.778 1139.05,775.625 1146.51,775.625L1656.56,775.625Z" style="fill:rgb(130,178,191);fill-opacity:0.75;"/>
        </g>
        <g transform="matrix(0.57234,0,0,0.264151,-328.1,436.604)">
            <path d="M1512.77,1025L1512.77,1155.58C1512.77,1159.67 1511.15,1163.59 1508.26,1166.48C1505.37,1169.38 1501.44,1171 1497.35,1171L886.194,1171C882.104,1171 878.182,1169.38 875.29,1166.48C872.398,1163.59 870.774,1159.67 870.774,1155.58L870.774,1025L1512.77,1025ZM1493.34,1029.62L890.292,1029.62C881.469,1029.62 874.316,1036.78 874.316,1045.6L874.316,1150.95C874.316,1155.04 875.941,1158.97 878.833,1161.86C881.725,1164.75 885.647,1166.38 889.737,1166.38L1493.9,1166.38C1497.99,1166.38 1501.91,1164.75 1504.8,1161.86C1507.69,1158.97 1509.32,1155.04 1509.32,1150.95L1509.32,1045.6C1509.32,1036.78 1502.16,1029.62 1493.34,1029.62Z" style="fill:url(#_Linear1);"/>
        </g>
    </g>
    <g id="Pipette">
    </g>
    <defs>
        <linearGradient id="_Linear1" x1="0" y1="0" x2="1" y2="0" gradientUnits="userSpaceOnUse" gradientTransform="matrix(9.13127e-15,149.125,-149.125,9.13127e-15,1191.77,1021.88)"><stop offset="0" style="stop-color:rgb(138,189,202);stop-opacity:0.75"/><stop offset="0.63" style="stop-color:rgb(141,194,208);stop-opacity:0.75"/><stop offset="1" style="stop-color:rgb(160,222,238);stop-opacity:0.75"/></linearGradient>
    </defs>
</svg>
