<?xml version="1.0" encoding="UTF-8" standalone="no"?>
<!DOCTYPE svg PUBLIC "-//W3C//DTD SVG 1.1//EN" "http://www.w3.org/Graphics/SVG/1.1/DTD/svg11.dtd">
<svg width="100%" height="100%" viewBox="0 0 940 477" version="1.1" xmlns="http://www.w3.org/2000/svg" xmlns:xlink="http://www.w3.org/1999/xlink" xml:space="preserve" xmlns:serif="http://www.serif.com/" style="fill-rule:evenodd;clip-rule:evenodd;stroke-linejoin:round;stroke-miterlimit:2;">
    <g transform="matrix(1,0,0,1,0,-1018)">
        <g id="Gel-Wel-Back-Layer" serif:id="Gel Wel Back Layer" transform="matrix(1.74721,0,0,3.78571,-148.513,-1457.86)">
            <rect x="85" y="654" width="538" height="126" style="fill:none;"/>
            <g id="Gel_Well_BACK_LAYER" transform="matrix(0.57234,0,0,0.264151,152.561,507.248)">
                <g transform="matrix(1,0,0,1,-837.5,-24.75)">
                    <path d="M1234,734L1145,734L1149.99,717L1229.01,717L1234,734Z" style="fill:rgb(209,242,251);fill-opacity:0.75;"/>
                </g>
                <g transform="matrix(0.921348,0,0,1,-847.444,-24.75)">
                    <path d="M1234,734L1145,734L1153.23,717L1238.34,717L1234,734Z" style="fill:rgb(209,242,251);fill-opacity:0.75;"/>
                </g>
                <g transform="matrix(-0.921348,0,0,1,1551.44,-24.75)">
                    <path d="M1234,734L1145,734L1153.23,717L1238.34,717L1234,734Z" style="fill:rgb(209,242,251);fill-opacity:0.75;"/>
                </g>
                <g transform="matrix(0.921348,0,0,1,-950.444,-24.75)">
                    <path d="M1234,734L1145,734L1157.57,717L1241.6,717L1234,734Z" style="fill:rgb(209,242,251);fill-opacity:0.75;"/>
                </g>
                <g transform="matrix(-0.921348,0,0,1,1654.44,-24.75)">
                    <path d="M1234,734L1145,734L1157.57,717L1241.6,717L1234,734Z" style="fill:rgb(209,242,251);fill-opacity:0.75;"/>
                </g>
            </g>
        </g>
        <g id="Pipette">
        </g>
    </g>
</svg>
