<?xml version="1.0" encoding="UTF-8" standalone="no"?>
<!DOCTYPE svg PUBLIC "-//W3C//DTD SVG 1.1//EN" "http://www.w3.org/Graphics/SVG/1.1/DTD/svg11.dtd">
<svg width="100%" height="100%" viewBox="0 0 940 477" version="1.1" xmlns="http://www.w3.org/2000/svg" xmlns:xlink="http://www.w3.org/1999/xlink" xml:space="preserve" xmlns:serif="http://www.serif.com/" style="fill-rule:evenodd;clip-rule:evenodd;stroke-linejoin:round;stroke-miterlimit:2;">
    <g transform="matrix(1,0,0,1,0,-507)">
        <g id="Gel-Well-Top-Layer" serif:id="Gel Well Top Layer" transform="matrix(1.74721,0,0,3.78571,-148.513,-1968.86)">
            <rect x="85" y="654" width="538" height="126" style="fill:none;"/>
            <g id="Gel_Well_TOP_LAYER" transform="matrix(0.57234,0,0,0.264151,152.561,507.248)">
                <g transform="matrix(1,0,0,2.41935,-1047,-1241.96)">
                    <rect x="1354.5" y="806.5" width="89" height="15.5" style="fill:rgb(130,178,191);fill-opacity:0.75;"/>
                </g>
                <g transform="matrix(0.921348,0,0,2.41935,-1040.47,-1241.96)">
                    <rect x="1354.5" y="806.5" width="89" height="15.5" style="fill:rgb(130,178,191);fill-opacity:0.75;"/>
                </g>
                <g transform="matrix(-0.921348,0,0,2.41935,1744.47,-1241.96)">
                    <rect x="1354.5" y="806.5" width="89" height="15.5" style="fill:rgb(130,178,191);fill-opacity:0.75;"/>
                </g>
                <g transform="matrix(-0.921348,0,0,2.41935,1434.47,-1241.96)">
                    <rect x="1354.5" y="806.5" width="89" height="15.5" style="fill:rgb(130,178,191);fill-opacity:0.75;"/>
                </g>
                <g transform="matrix(-0.921348,0,0,2.41935,1847.47,-1241.96)">
                    <rect x="1354.5" y="806.5" width="89" height="15.5" style="fill:rgb(130,178,191);fill-opacity:0.75;"/>
                </g>
                <g transform="matrix(1,0,0,1,-1048,-88)">
                    <path d="M1241.5,780.25L1241.5,819.75L1234.5,834.75L1234.5,797.25L1241.5,780.25Z" style="fill:rgb(96,159,177);fill-opacity:0.75;"/>
                </g>
                <g transform="matrix(-1,0,0,1,1752,-88)">
                    <path d="M1241.5,780.25L1241.5,819.75L1234.5,834.75L1234.5,797.25L1241.5,780.25Z" style="fill:rgb(96,159,177);fill-opacity:0.75;"/>
                </g>
                <g transform="matrix(1,0,0,1,-833.024,-268.97)">
                    <path d="M1126.52,961.25L1126.46,1006.85L1122.45,1015.72L1122,978.25L1126.52,961.25Z" style="fill:rgb(96,159,177);fill-opacity:0.75;"/>
                </g>
                <g transform="matrix(-1,0,0,1,1537.02,-268.97)">
                    <path d="M1126.52,961.25L1126.46,1006.85L1122.45,1015.72L1122,978.25L1126.52,961.25Z" style="fill:rgb(96,159,177);fill-opacity:0.75;"/>
                </g>
                <g transform="matrix(1,0,0,1,-833,-269)">
                    <rect x="937.5" y="1012.75" width="82" height="3" style="fill:rgb(114,169,184);fill-opacity:0.75;"/>
                </g>
                <g transform="matrix(1,0,0,1,-730,-269)">
                    <rect x="937.5" y="1012.75" width="82" height="3" style="fill:rgb(114,169,184);fill-opacity:0.75;"/>
                </g>
                <g transform="matrix(1,0,0,1,-523,-269)">
                    <rect x="937.5" y="1012.75" width="82" height="3" style="fill:rgb(114,169,184);fill-opacity:0.75;"/>
                </g>
                <g transform="matrix(1,0,0,1,-420,-269)">
                    <rect x="937.5" y="1012.75" width="82" height="3" style="fill:rgb(114,169,184);fill-opacity:0.75;"/>
                </g>
                <g transform="matrix(1.08537,0,0,1,-710.03,-269)">
                    <rect x="937.5" y="1012.75" width="82" height="3" style="fill:rgb(114,169,184);fill-opacity:0.75;"/>
                </g>
            </g>
        </g>
        <g id="Pipette">
        </g>
    </g>
</svg>
