<?xml version="1.0" encoding="UTF-8" standalone="no"?>
<!DOCTYPE svg PUBLIC "-//W3C//DTD SVG 1.1//EN" "http://www.w3.org/Graphics/SVG/1.1/DTD/svg11.dtd">
<svg width="100%" height="100%" viewBox="0 0 1366 1024" version="1.1" xmlns="http://www.w3.org/2000/svg" xmlns:xlink="http://www.w3.org/1999/xlink" xml:space="preserve" xmlns:serif="http://www.serif.com/" style="fill-rule:evenodd;clip-rule:evenodd;stroke-linejoin:round;stroke-miterlimit:2;">
    <g transform="matrix(1.71912,0,0,1.38751,-372.035,3.21093)">
        <g transform="matrix(0.674765,0,0,0.715472,229.859,152.528)">
            <path d="M769.811,170.039C789.162,170.039 804.85,188.37 804.85,210.983L804.85,603.706C804.85,626.319 789.162,644.65 769.811,644.65L365.279,644.65C345.927,644.65 330.239,626.319 330.239,603.706L330.239,210.983C330.239,188.37 345.927,170.039 365.279,170.039L769.811,170.039Z" style="fill:url(#_Linear1);"/>
        </g>
        <g transform="matrix(-0.702419,0,0,0.960956,1091.36,84.6739)">
            <path d="M866.573,550.58L866.573,197.213L880.746,197.213C896.485,197.213 909.244,210.861 909.244,227.697L909.244,520.096C909.244,536.932 896.485,550.58 880.746,550.58L866.573,550.58Z" style="fill:url(#_Linear2);"/>
        </g>
        <g transform="matrix(0.702419,0,0,0.960956,134.274,84.6739)">
            <path d="M866.573,550.58L866.573,197.213L880.746,197.213C896.485,197.213 909.244,210.861 909.244,227.697L909.244,520.096C909.244,536.932 896.485,550.58 880.746,550.58L866.573,550.58Z" style="fill:url(#_Linear3);"/>
        </g>
        <g transform="matrix(0.961375,0,0,1.94546,78.7183,-526.48)">
            <path d="M391.864,578.671L421.515,559.748L689.603,559.748L719.253,578.671C715.634,583.118 708.947,586.103 701.295,586.103L409.822,586.103C402.17,586.103 395.483,583.118 391.864,578.671Z" style="fill:url(#_Linear4);"/>
        </g>
    </g>
    <defs>
        <linearGradient id="_Linear1" x1="0" y1="0" x2="1" y2="0" gradientUnits="userSpaceOnUse" gradientTransform="matrix(4.21671e-14,-688.641,688.641,4.21671e-14,593.309,659.433)"><stop offset="0" style="stop-color:rgb(1,1,1);stop-opacity:1"/><stop offset="0.03" style="stop-color:rgb(19,19,19);stop-opacity:1"/><stop offset="0.08" style="stop-color:rgb(22,22,22);stop-opacity:1"/><stop offset="0.42" style="stop-color:rgb(68,68,68);stop-opacity:1"/><stop offset="1" style="stop-color:rgb(77,77,77);stop-opacity:1"/></linearGradient>
        <linearGradient id="_Linear2" x1="0" y1="0" x2="1" y2="0" gradientUnits="userSpaceOnUse" gradientTransform="matrix(42.6714,0,0,42.6714,866.573,373.896)"><stop offset="0" style="stop-color:rgb(1,1,1);stop-opacity:1"/><stop offset="0.26" style="stop-color:rgb(22,22,22);stop-opacity:1"/><stop offset="1" style="stop-color:rgb(77,77,77);stop-opacity:1"/></linearGradient>
        <linearGradient id="_Linear3" x1="0" y1="0" x2="1" y2="0" gradientUnits="userSpaceOnUse" gradientTransform="matrix(42.6714,0,0,42.6714,866.573,373.896)"><stop offset="0" style="stop-color:rgb(1,1,1);stop-opacity:1"/><stop offset="0.26" style="stop-color:rgb(22,22,22);stop-opacity:1"/><stop offset="1" style="stop-color:rgb(77,77,77);stop-opacity:1"/></linearGradient>
        <linearGradient id="_Linear4" x1="0" y1="0" x2="1" y2="0" gradientUnits="userSpaceOnUse" gradientTransform="matrix(1.12799e-13,26.3543,-26.3543,1.12799e-13,542.225,559.748)"><stop offset="0" style="stop-color:rgb(1,1,1);stop-opacity:1"/><stop offset="0.08" style="stop-color:rgb(22,22,22);stop-opacity:1"/><stop offset="1" style="stop-color:rgb(77,77,77);stop-opacity:1"/></linearGradient>
    </defs>
</svg>
