<?xml version="1.0" encoding="UTF-8" standalone="no"?>
<!DOCTYPE svg PUBLIC "-//W3C//DTD SVG 1.1//EN" "http://www.w3.org/Graphics/SVG/1.1/DTD/svg11.dtd">
<svg width="100%" height="100%" viewBox="0 0 609 540" version="1.1" xmlns="http://www.w3.org/2000/svg" xmlns:xlink="http://www.w3.org/1999/xlink" xml:space="preserve" xmlns:serif="http://www.serif.com/" style="fill-rule:evenodd;clip-rule:evenodd;stroke-linecap:round;stroke-linejoin:round;stroke-miterlimit:1.5;">
    <g id="Artboard1" transform="matrix(1,0,0,1,-1942,0)">
        <rect x="1942" y="0" width="609" height="540" style="fill:none;"/>
        <g transform="matrix(1,0,0,1,2062.83,-148.288)">
            <g transform="matrix(-2.02662,0,0,3.34813,3542.99,-2164.1)">
                <path d="M1709.48,715.69C1711.05,715.69 1712.32,716.459 1712.32,717.407L1712.32,826.964C1712.32,827.913 1711.05,828.681 1709.48,828.681L1602.16,828.681C1600.6,828.681 1599.33,827.913 1599.33,826.964L1599.33,717.407C1599.33,716.459 1600.6,715.69 1602.16,715.69L1709.48,715.69Z" style="fill:url(#_Linear1);stroke:rgb(162,162,162);stroke-width:0.74px;"/>
            </g>
            <g transform="matrix(1,0,0,0.772602,-531.461,129.513)">
                <path d="M812.522,340.477C814.273,340.477 815.953,341.377 817.191,342.98C818.429,344.583 819.125,346.757 819.125,349.024C819.125,369.647 819.125,421.955 819.125,442.578C819.125,444.845 818.429,447.019 817.191,448.622C815.953,450.225 814.273,451.125 812.522,451.125C807.921,451.125 801.809,451.125 797.208,451.125C795.457,451.125 793.777,450.225 792.539,448.622C791.3,447.019 790.605,444.845 790.605,442.578C790.605,421.955 790.605,369.647 790.605,349.024C790.605,346.757 791.3,344.583 792.539,342.98C793.777,341.377 795.457,340.477 797.208,340.477C801.809,340.477 807.921,340.477 812.522,340.477Z" style="fill:url(#_Linear2);"/>
            </g>
            <g transform="matrix(0.413949,0,0,0.266243,-260.403,185.007)">
                <path d="M804.867,340.477C812.742,340.477 819.125,350.401 819.125,362.644C819.125,381.914 819.125,409.687 819.125,428.957C819.125,441.2 812.742,451.125 804.867,451.125C804.866,451.125 804.864,451.125 804.862,451.125C796.988,451.125 790.605,441.2 790.605,428.957C790.605,409.687 790.605,381.914 790.605,362.644C790.605,350.401 796.988,340.477 804.862,340.477C804.864,340.477 804.866,340.477 804.867,340.477Z" style="fill:url(#_Linear3);"/>
            </g>
            <g transform="matrix(0.413949,0,0,0.266243,-260.403,435.281)">
                <path d="M804.867,340.477C812.742,340.477 819.125,350.401 819.125,362.644C819.125,381.914 819.125,409.687 819.125,428.957C819.125,441.2 812.742,451.125 804.867,451.125C804.866,451.125 804.864,451.125 804.862,451.125C796.988,451.125 790.605,441.2 790.605,428.957C790.605,409.687 790.605,381.914 790.605,362.644C790.605,350.401 796.988,340.477 804.862,340.477C804.864,340.477 804.866,340.477 804.867,340.477Z" style="fill:url(#_Linear4);"/>
            </g>
        </g>
    </g>
    <g id="CABINET-open" serif:id="CABINET open">
    </g>
    <defs>
        <linearGradient id="_Linear1" x1="0" y1="0" x2="1" y2="0" gradientUnits="userSpaceOnUse" gradientTransform="matrix(7.78438e-15,143.826,-99.0958,6.86481e-15,1672.79,715.69)"><stop offset="0" style="stop-color:rgb(244,244,244);stop-opacity:1"/><stop offset="0.65" style="stop-color:rgb(233,233,233);stop-opacity:1"/><stop offset="1" style="stop-color:rgb(170,170,170);stop-opacity:1"/></linearGradient>
        <linearGradient id="_Linear2" x1="0" y1="0" x2="1" y2="0" gradientUnits="userSpaceOnUse" gradientTransform="matrix(2.95215e-17,127.384,-0.0552195,8.93371e-16,804.296,323.741)"><stop offset="0" style="stop-color:black;stop-opacity:1"/><stop offset="0.15" style="stop-color:rgb(14,18,21);stop-opacity:1"/><stop offset="0.28" style="stop-color:rgb(57,76,88);stop-opacity:1"/><stop offset="0.62" style="stop-color:rgb(13,17,20);stop-opacity:1"/><stop offset="1" style="stop-color:black;stop-opacity:1"/></linearGradient>
        <linearGradient id="_Linear3" x1="0" y1="0" x2="1" y2="0" gradientUnits="userSpaceOnUse" gradientTransform="matrix(2.95215e-17,127.384,-0.0552195,8.93371e-16,804.296,323.741)"><stop offset="0" style="stop-color:black;stop-opacity:1"/><stop offset="0.15" style="stop-color:rgb(14,18,21);stop-opacity:1"/><stop offset="0.28" style="stop-color:rgb(57,76,88);stop-opacity:1"/><stop offset="0.62" style="stop-color:rgb(13,17,20);stop-opacity:1"/><stop offset="1" style="stop-color:black;stop-opacity:1"/></linearGradient>
        <linearGradient id="_Linear4" x1="0" y1="0" x2="1" y2="0" gradientUnits="userSpaceOnUse" gradientTransform="matrix(2.95215e-17,127.384,-0.0552195,8.93371e-16,804.296,323.741)"><stop offset="0" style="stop-color:black;stop-opacity:1"/><stop offset="0.15" style="stop-color:rgb(14,18,21);stop-opacity:1"/><stop offset="0.28" style="stop-color:rgb(57,76,88);stop-opacity:1"/><stop offset="0.62" style="stop-color:rgb(13,17,20);stop-opacity:1"/><stop offset="1" style="stop-color:black;stop-opacity:1"/></linearGradient>
    </defs>
</svg>
