<?xml version="1.0" encoding="UTF-8" standalone="no"?>
<!DOCTYPE svg PUBLIC "-//W3C//DTD SVG 1.1//EN" "http://www.w3.org/Graphics/SVG/1.1/DTD/svg11.dtd">
<svg width="100%" height="100%" viewBox="0 0 1024 768" version="1.1" xmlns="http://www.w3.org/2000/svg" xmlns:xlink="http://www.w3.org/1999/xlink" xml:space="preserve" xmlns:serif="http://www.serif.com/" style="fill-rule:evenodd;clip-rule:evenodd;stroke-linejoin:round;stroke-miterlimit:2;">
    <g transform="matrix(5.37136,0,0,1.23108,-3685.5,-168.735)">
        <path d="M834.928,241.98C837.237,241.98 839.453,245.983 841.086,253.11C842.719,260.236 843.637,269.901 843.637,279.979L843.637,328.336C843.637,338.414 842.719,348.079 841.086,355.205C839.453,362.331 837.237,366.335 834.928,366.335C812.114,366.335 750.804,366.335 727.991,366.335C725.681,366.335 723.466,362.331 721.833,355.205C720.199,348.079 719.282,338.414 719.282,328.336L719.282,279.979C719.282,269.901 720.199,260.236 721.833,253.11C723.466,245.983 725.681,241.98 727.991,241.98C750.804,241.98 812.114,241.98 834.928,241.98Z" style="fill:rgb(86,86,86);"/>
    </g>
    <g transform="matrix(5.37136,0,0,1.23108,-3685.5,13.4659)">
        <path d="M834.928,241.98C837.237,241.98 839.453,245.983 841.086,253.11C842.719,260.236 843.637,269.901 843.637,279.979L843.637,328.336C843.637,338.414 842.719,348.079 841.086,355.205C839.453,362.331 837.237,366.335 834.928,366.335C812.114,366.335 750.804,366.335 727.991,366.335C725.681,366.335 723.466,362.331 721.833,355.205C720.199,348.079 719.282,338.414 719.282,328.336L719.282,279.979C719.282,269.901 720.199,260.236 721.833,253.11C723.466,245.983 725.681,241.98 727.991,241.98L834.928,241.98Z" style="fill:rgb(86,86,86);"/>
    </g>
    <g transform="matrix(5.37136,0,0,1.23108,-3685.5,187.852)">
        <path d="M834.928,241.98C837.237,241.98 839.453,245.983 841.086,253.11C842.719,260.236 843.637,269.901 843.637,279.979L843.637,328.336C843.637,338.414 842.719,348.079 841.086,355.205C839.453,362.331 837.237,366.335 834.928,366.335L727.991,366.335C725.681,366.335 723.466,362.331 721.833,355.205C720.199,348.079 719.282,338.414 719.282,328.336L719.282,279.979C719.282,269.901 720.199,260.236 721.833,253.11C723.466,245.983 725.681,241.98 727.991,241.98L834.928,241.98Z" style="fill:rgb(86,86,86);"/>
    </g>
</svg>
