<?xml version="1.0" encoding="UTF-8" standalone="no"?>
<!DOCTYPE svg PUBLIC "-//W3C//DTD SVG 1.1//EN" "http://www.w3.org/Graphics/SVG/1.1/DTD/svg11.dtd">
<svg width="100%" height="100%" viewBox="0 0 1024 768" version="1.1" xmlns="http://www.w3.org/2000/svg" xmlns:xlink="http://www.w3.org/1999/xlink" xml:space="preserve" xmlns:serif="http://www.serif.com/" style="fill-rule:evenodd;clip-rule:evenodd;stroke-linejoin:round;stroke-miterlimit:2;">
    <g transform="matrix(1.02237,0,0,1.18952,-18.7518,-950.096)">
        <path d="M944.5,919.918C955.182,919.918 963.842,927.361 963.842,936.542C963.842,1001.94 963.842,1241.13 963.842,1306.54C963.842,1315.72 955.182,1323.16 944.5,1323.16C828.228,1323.16 223.263,1323.16 106.99,1323.16C96.308,1323.16 87.648,1315.72 87.648,1306.54C87.648,1241.13 87.648,1001.94 87.648,936.542C87.648,927.361 96.308,919.918 106.99,919.918C223.263,919.918 828.228,919.918 944.5,919.918Z" style="fill:url(#_Linear1);"/>
    </g>
    <g transform="matrix(0.863994,0,0,1.05832,12.8868,-24.0861)">
        <path d="M709.192,188.6C723.908,188.6 735.838,198.339 735.838,210.352C735.838,279.361 735.838,492.88 735.838,561.89C735.838,573.903 723.908,583.642 709.192,583.642C605.348,583.642 228.387,583.642 124.542,583.642C109.826,583.642 97.897,573.903 97.897,561.89C97.897,492.88 97.897,279.361 97.897,210.352C97.897,198.339 109.826,188.6 124.542,188.6C228.387,188.6 605.348,188.6 709.192,188.6Z" style="fill:url(#_Linear2);"/>
        <clipPath id="_clip3">
            <path d="M709.192,188.6C723.908,188.6 735.838,198.339 735.838,210.352C735.838,279.361 735.838,492.88 735.838,561.89C735.838,573.903 723.908,583.642 709.192,583.642C605.348,583.642 228.387,583.642 124.542,583.642C109.826,583.642 97.897,573.903 97.897,561.89C97.897,492.88 97.897,279.361 97.897,210.352C97.897,198.339 109.826,188.6 124.542,188.6C228.387,188.6 605.348,188.6 709.192,188.6Z"/>
        </clipPath>
        <g clip-path="url(#_clip3)">
            <g transform="matrix(0.638884,0,0,0.638884,-257.032,139.435)">
                <path d="M735.838,188.6L735.838,583.642L555.546,695.287L555.546,76.954L735.838,188.6Z" style="fill:url(#_Linear4);"/>
            </g>
            <g transform="matrix(-0.638884,0,0,0.638884,1090.77,139.435)">
                <path d="M735.838,188.6L735.838,583.642L555.546,695.287L555.546,76.954L735.838,188.6Z" style="fill:url(#_Linear5);"/>
            </g>
            <g transform="matrix(-5.66923e-17,-0.809659,-1.03171,6.8189e-17,815.233,1033.44)">
                <path d="M735.838,188.6L735.838,583.642L555.546,695.287L555.546,76.954L735.838,188.6Z" style="fill:url(#_Linear6);"/>
            </g>
            <g transform="matrix(-2.5638e-17,0.395627,1.03171,5.96927e-17,18.5021,-31.1892)">
                <path d="M735.838,188.6L735.838,583.642L555.546,695.287L555.546,76.954L735.838,188.6Z" style="fill:url(#_Linear7);"/>
            </g>
            <g transform="matrix(0.638884,0,0,0.449925,150.538,175.072)">
                <rect x="97.897" y="188.6" width="637.941" height="395.043" style="fill:url(#_Linear8);"/>
            </g>
        </g>
    </g>
    <g transform="matrix(0.700667,0,0,0.852332,-66.6882,62.4443)">
        <path d="M360.522,658.649L360.522,667.571C360.522,673.002 357.898,678.211 353.226,682.051C348.555,685.892 342.219,688.049 335.612,688.049C313.937,688.049 282.684,688.049 261.009,688.049C254.402,688.049 248.066,685.892 243.394,682.051C238.723,678.211 236.098,673.002 236.098,667.571C236.098,662.582 236.098,658.649 236.098,658.649L360.522,658.649Z" style="fill:rgb(5,5,5);"/>
    </g>
    <g transform="matrix(0.700667,0,0,0.852332,682.779,62.4443)">
        <path d="M360.522,658.649L360.522,667.571C360.522,673.002 357.898,678.211 353.226,682.051C348.555,685.892 342.219,688.049 335.612,688.049C313.937,688.049 282.684,688.049 261.009,688.049C254.402,688.049 248.066,685.892 243.394,682.051C238.723,678.211 236.098,673.002 236.098,667.571C236.098,662.582 236.098,658.649 236.098,658.649L360.522,658.649Z" style="fill:rgb(5,5,5);"/>
    </g>
    <g transform="matrix(6.00499e-17,-0.980689,1.03681,6.34861e-17,-208.449,872.306)">
        <path d="M284.2,919.918L710.514,919.918L710.514,1096.7C710.514,1101.76 708.39,1106.61 704.609,1110.19C700.827,1113.76 695.698,1115.77 690.351,1115.77L304.363,1115.77C299.015,1115.77 293.887,1113.76 290.105,1110.19C286.324,1106.61 284.2,1101.76 284.2,1096.7L284.2,919.918Z" style="fill:url(#_Linear9);"/>
    </g>
    <g transform="matrix(0.454576,0,0,0.228545,665.263,-15.0365)">
        <path d="M512.724,960.617C524.374,960.617 533.817,979.401 533.817,1002.57C533.817,1058.08 533.817,1155.36 533.817,1210.87C533.817,1234.04 524.374,1252.82 512.724,1252.82C458.841,1252.82 316.592,1252.82 262.708,1252.82C251.059,1252.82 241.615,1234.04 241.615,1210.87C241.615,1155.36 241.615,1058.08 241.615,1002.57C241.615,979.401 251.059,960.617 262.708,960.617C316.592,960.617 458.841,960.617 512.724,960.617Z" style="fill:rgb(84,125,113);"/>
    </g>
    <g transform="matrix(1,0,0,1,417.604,-738.387)">
        <path d="M358.401,948.402C359.934,945.148 363.244,942.895 367.08,942.895L480.731,942.895C484.567,942.895 487.877,945.148 489.41,948.402L358.401,948.402Z" style="fill:rgb(47,96,79);"/>
    </g>
    <g transform="matrix(0.972256,0,0,0.972256,22.4754,-676.052)">
        <rect x="737.051" y="843.626" width="6.429" height="479.663" style="fill:rgb(155,155,155);"/>
    </g>
    <defs>
        <linearGradient id="_Linear1" x1="0" y1="0" x2="1" y2="0" gradientUnits="userSpaceOnUse" gradientTransform="matrix(7.42319e-16,10.4195,-12.123,6.38007e-16,580.756,1312.74)"><stop offset="0" style="stop-color:rgb(155,155,155);stop-opacity:1"/><stop offset="0.17" style="stop-color:rgb(130,130,130);stop-opacity:1"/><stop offset="0.38" style="stop-color:rgb(107,107,107);stop-opacity:1"/><stop offset="1" style="stop-color:rgb(98,98,98);stop-opacity:1"/></linearGradient>
        <linearGradient id="_Linear2" x1="0" y1="0" x2="1" y2="0" gradientUnits="userSpaceOnUse" gradientTransform="matrix(4.00227e-14,-362.44,807.849,2.74298e-14,406.704,583.642)"><stop offset="0" style="stop-color:rgb(226,226,226);stop-opacity:1"/><stop offset="0.58" style="stop-color:rgb(246,246,246);stop-opacity:1"/><stop offset="1" style="stop-color:white;stop-opacity:1"/></linearGradient>
        <linearGradient id="_Linear4" x1="0" y1="0" x2="1" y2="0" gradientUnits="userSpaceOnUse" gradientTransform="matrix(-180.292,2.08626e-14,-8.39615e-15,-64.7816,735.838,386.121)"><stop offset="0" style="stop-color:rgb(165,165,165);stop-opacity:1"/><stop offset="0.62" style="stop-color:rgb(158,158,158);stop-opacity:1"/><stop offset="0.82" style="stop-color:rgb(142,142,142);stop-opacity:1"/><stop offset="1" style="stop-color:rgb(125,125,125);stop-opacity:1"/></linearGradient>
        <linearGradient id="_Linear5" x1="0" y1="0" x2="1" y2="0" gradientUnits="userSpaceOnUse" gradientTransform="matrix(-180.292,2.08626e-14,-8.39615e-15,-64.7816,735.838,386.121)"><stop offset="0" style="stop-color:rgb(165,165,165);stop-opacity:1"/><stop offset="0.62" style="stop-color:rgb(158,158,158);stop-opacity:1"/><stop offset="0.82" style="stop-color:rgb(142,142,142);stop-opacity:1"/><stop offset="1" style="stop-color:rgb(125,125,125);stop-opacity:1"/></linearGradient>
        <linearGradient id="_Linear6" x1="0" y1="0" x2="1" y2="0" gradientUnits="userSpaceOnUse" gradientTransform="matrix(-180.292,-7.88861e-31,0,-64.7816,735.838,386.121)"><stop offset="0" style="stop-color:rgb(226,226,226);stop-opacity:1"/><stop offset="1" style="stop-color:white;stop-opacity:1"/></linearGradient>
        <linearGradient id="_Linear7" x1="0" y1="0" x2="1" y2="0" gradientUnits="userSpaceOnUse" gradientTransform="matrix(-295.674,1.15661e-15,2.18015e-15,-106.24,735.838,386.121)"><stop offset="0" style="stop-color:rgb(165,165,165);stop-opacity:1"/><stop offset="0.51" style="stop-color:rgb(135,135,135);stop-opacity:1"/><stop offset="1" style="stop-color:rgb(125,125,125);stop-opacity:1"/></linearGradient>
        <linearGradient id="_Linear8" x1="0" y1="0" x2="1" y2="0" gradientUnits="userSpaceOnUse" gradientTransform="matrix(3.38336e-14,451.087,-552.545,2.76211e-14,471.112,216.699)"><stop offset="0" style="stop-color:rgb(191,191,191);stop-opacity:1"/><stop offset="0.65" style="stop-color:rgb(182,182,182);stop-opacity:1"/><stop offset="1" style="stop-color:rgb(127,127,127);stop-opacity:1"/></linearGradient>
        <linearGradient id="_Linear9" x1="0" y1="0" x2="1" y2="0" gradientUnits="userSpaceOnUse" gradientTransform="matrix(458.276,0,-3.15544e-30,433.472,284.2,1033.5)"><stop offset="0" style="stop-color:rgb(1,1,1);stop-opacity:1"/><stop offset="0.61" style="stop-color:rgb(14,14,14);stop-opacity:1"/><stop offset="0.82" style="stop-color:rgb(45,45,45);stop-opacity:1"/><stop offset="1" style="stop-color:rgb(77,77,77);stop-opacity:1"/></linearGradient>
    </defs>
</svg>
