<?xml version="1.0" encoding="UTF-8" standalone="no"?>
<!DOCTYPE svg PUBLIC "-//W3C//DTD SVG 1.1//EN" "http://www.w3.org/Graphics/SVG/1.1/DTD/svg11.dtd">
<svg width="100%" height="100%" viewBox="0 0 1024 768" version="1.1" xmlns="http://www.w3.org/2000/svg" xmlns:xlink="http://www.w3.org/1999/xlink" xml:space="preserve" xmlns:serif="http://www.serif.com/" style="fill-rule:evenodd;clip-rule:evenodd;stroke-linejoin:round;stroke-miterlimit:2;">
    <g>
        <g transform="matrix(0.269809,2.47611e-17,7.9165e-17,0.832328,-3.23407,37.255)">
            <path d="M446.845,84.506C454.814,78.661 489.061,74.715 526.27,75.356C563.479,75.997 591.686,81.017 591.686,86.999C591.686,251.492 591.686,561.099 591.686,718.932C591.686,724.862 563.96,729.856 527.128,730.56C490.295,731.264 455.982,727.457 447.233,721.695C399.25,690.096 353.762,660.141 337.014,649.111C332.514,646.147 330.239,643.109 330.239,640.059C330.239,594.114 330.239,217.86 330.239,174.172C330.239,171.425 332.085,168.685 335.744,166.001C351.315,154.58 397.735,120.529 446.845,84.506Z" style="fill:url(#_Linear1);"/>
        </g>
        <g transform="matrix(2.12487,1.9691e-16,9.96574e-17,1.05802,-1033.23,-27.4143)">
            <path d="M559.863,116.558L559.863,635.911L555.331,635.911C548.667,635.911 543.264,630.508 543.264,623.844C543.264,553.383 543.264,195.926 543.264,127.788C543.264,124.809 544.447,121.953 546.553,119.847C548.659,117.741 551.515,116.558 554.494,116.558C557.466,116.558 559.863,116.558 559.863,116.558Z" style="fill:url(#_Linear2);"/>
        </g>
        <g transform="matrix(0.167796,0,0,1,51.7271,0)">
            <path d="M373.887,201.324L373.887,558.339L248.153,533.165L248.153,230.362L373.887,201.324Z" style="fill:rgb(47,67,61);fill-opacity:0.5;"/>
        </g>
        <g transform="matrix(1,0,0,1,-548.349,-704.369)">
            <path d="M665.446,844.397C666.602,844.455 667.685,844.981 668.445,845.855C669.204,846.73 669.574,847.876 669.469,849.029C667.135,874.721 655.238,1005.67 650.614,1056.57C649.389,1070.05 649.351,1083.62 650.501,1097.11C654.997,1149.84 666.881,1289.22 669.398,1318.74C669.517,1320.13 669.026,1321.52 668.052,1322.53C667.078,1323.54 665.715,1324.07 664.314,1324C664.199,1324 664.085,1323.99 663.973,1323.99C662.311,1323.9 660.97,1322.6 660.846,1320.94C659.139,1298.1 647.848,1147.03 643.942,1094.78C643.06,1082.97 643.086,1071.11 644.021,1059.31C647.908,1010.25 658.651,874.635 660.717,848.551C660.91,846.116 663.004,844.276 665.443,844.397C665.444,844.397 665.445,844.397 665.446,844.397Z" style="fill:url(#_Linear3);"/>
        </g>
    </g>
    <defs>
        <linearGradient id="_Linear1" x1="0" y1="0" x2="1" y2="0" gradientUnits="userSpaceOnUse" gradientTransform="matrix(1.13019e-14,-950.899,184.574,5.82258e-14,475.155,751.065)"><stop offset="0" style="stop-color:rgb(1,1,1);stop-opacity:1"/><stop offset="0.46" style="stop-color:rgb(22,22,22);stop-opacity:1"/><stop offset="1" style="stop-color:rgb(77,77,77);stop-opacity:1"/></linearGradient>
        <linearGradient id="_Linear2" x1="0" y1="0" x2="1" y2="0" gradientUnits="userSpaceOnUse" gradientTransform="matrix(16.5988,-3.08925e-15,-1.56349e-15,33.3362,543.264,365.998)"><stop offset="0" style="stop-color:rgb(72,72,72);stop-opacity:1"/><stop offset="0.19" style="stop-color:rgb(38,38,38);stop-opacity:1"/><stop offset="0.5" style="stop-color:rgb(32,32,32);stop-opacity:1"/><stop offset="0.8" style="stop-color:rgb(40,40,40);stop-opacity:1"/><stop offset="0.91" style="stop-color:rgb(58,58,58);stop-opacity:1"/><stop offset="1" style="stop-color:rgb(77,77,77);stop-opacity:1"/></linearGradient>
        <linearGradient id="_Linear3" x1="0" y1="0" x2="1" y2="0" gradientUnits="userSpaceOnUse" gradientTransform="matrix(2.9337e-14,479.11,-479.11,2.9337e-14,696.408,844.733)"><stop offset="0" style="stop-color:rgb(128,128,128);stop-opacity:1"/><stop offset="0.33" style="stop-color:rgb(139,139,139);stop-opacity:1"/><stop offset="0.5" style="stop-color:rgb(207,207,207);stop-opacity:1"/><stop offset="0.67" style="stop-color:rgb(139,139,139);stop-opacity:1"/><stop offset="1" style="stop-color:rgb(128,128,128);stop-opacity:1"/></linearGradient>
    </defs>
</svg>
