<?xml version="1.0" encoding="UTF-8" standalone="no"?>
<!DOCTYPE svg PUBLIC "-//W3C//DTD SVG 1.1//EN" "http://www.w3.org/Graphics/SVG/1.1/DTD/svg11.dtd">
<svg width="100%" height="100%" viewBox="0 0 1024 768" version="1.1" xmlns="http://www.w3.org/2000/svg" xmlns:xlink="http://www.w3.org/1999/xlink" xml:space="preserve" xmlns:serif="http://www.serif.com/" style="fill-rule:evenodd;clip-rule:evenodd;stroke-linejoin:round;stroke-miterlimit:2;">
    <g transform="matrix(1.02237,0,0,1.18952,-18.7518,-950.096)">
        <path d="M944.5,919.918C955.182,919.918 963.842,927.361 963.842,936.542C963.842,1001.94 963.842,1241.13 963.842,1306.54C963.842,1315.72 955.182,1323.16 944.5,1323.16C828.228,1323.16 223.263,1323.16 106.99,1323.16C96.308,1323.16 87.648,1315.72 87.648,1306.54C87.648,1241.13 87.648,1001.94 87.648,936.542C87.648,927.361 96.308,919.918 106.99,919.918C223.263,919.918 828.228,919.918 944.5,919.918Z" style="fill:url(#_Linear1);"/>
    </g>
    <g transform="matrix(0.700667,0,0,0.852332,-66.6882,62.4443)">
        <path d="M360.522,658.649L360.522,667.571C360.522,673.002 357.898,678.211 353.226,682.051C348.555,685.892 342.219,688.049 335.612,688.049C313.937,688.049 282.684,688.049 261.009,688.049C254.402,688.049 248.066,685.892 243.394,682.051C238.723,678.211 236.098,673.002 236.098,667.571C236.098,662.582 236.098,658.649 236.098,658.649L360.522,658.649Z" style="fill:rgb(5,5,5);"/>
    </g>
    <g transform="matrix(0.700667,0,0,0.852332,682.779,62.4443)">
        <path d="M360.522,658.649L360.522,667.571C360.522,673.002 357.898,678.211 353.226,682.051C348.555,685.892 342.219,688.049 335.612,688.049C313.937,688.049 282.684,688.049 261.009,688.049C254.402,688.049 248.066,685.892 243.394,682.051C238.723,678.211 236.098,673.002 236.098,667.571C236.098,662.582 236.098,658.649 236.098,658.649L360.522,658.649Z" style="fill:rgb(5,5,5);"/>
    </g>
    <g transform="matrix(0.980689,0,0,1.03681,3.16202,-778.265)">
        <path d="M943.678,919.918C949.026,919.918 954.155,921.928 957.936,925.505C961.718,929.081 963.842,933.932 963.842,938.991C963.842,1006.86 963.842,1236.22 963.842,1304.09C963.842,1309.14 961.718,1314 957.936,1317.57C954.155,1321.15 949.026,1323.16 943.678,1323.16C825.683,1323.16 225.807,1323.16 107.812,1323.16C102.464,1323.16 97.335,1321.15 93.554,1317.57C89.773,1314 87.648,1309.14 87.648,1304.09C87.648,1236.22 87.648,1006.86 87.648,938.991C87.648,933.932 89.773,929.081 93.554,925.505C97.335,921.928 102.464,919.918 107.812,919.918C225.807,919.918 825.683,919.918 943.678,919.918Z" style="fill:url(#_Linear2);"/>
    </g>
    <g transform="matrix(1.73489,0,0,1,-298.732,-722.719)">
        <path d="M533.747,971.696C533.793,972.277 533.817,972.869 533.817,973.472L533.817,1239.96C533.817,1247.07 530.5,1252.82 526.408,1252.82L249.024,1252.82C244.932,1252.82 241.615,1247.07 241.615,1239.96L241.615,973.472C241.615,972.869 241.639,972.277 241.685,971.696C241.86,971.674 242.036,971.664 242.212,971.664L533.22,971.664C533.397,971.664 533.572,971.674 533.747,971.696Z" style="fill:rgb(47,67,61);"/>
    </g>
    <g transform="matrix(2.92716,0,0,0.602879,-560.538,162.029)">
        <path d="M308.11,144.168L255.246,610.524L236.854,610.524L289.819,144.168L308.11,144.168Z" style="fill:rgb(61,81,75);"/>
    </g>
    <g transform="matrix(2.92716,0,0,0.602879,-469.999,162.029)">
        <path d="M308.11,144.168L255.246,610.524L236.854,610.524L289.819,144.168L308.11,144.168Z" style="fill:rgb(61,81,75);"/>
    </g>
    <g transform="matrix(1,0,0,1,0,-699.457)">
        <path d="M120.565,948.435C121.43,942.176 126.801,937.356 133.298,937.356L614.529,937.356C621.026,937.356 626.397,942.176 627.262,948.435C626.959,948.413 626.654,948.402 626.348,948.402L121.479,948.402C121.173,948.402 120.869,948.413 120.565,948.435Z" style="fill:rgb(48,57,54);"/>
    </g>
    <g transform="matrix(0.454576,0,0,0.228545,665.263,-15.0365)">
        <path d="M512.724,960.617C524.374,960.617 533.817,979.401 533.817,1002.57C533.817,1058.08 533.817,1155.36 533.817,1210.87C533.817,1234.04 524.374,1252.82 512.724,1252.82C458.841,1252.82 316.592,1252.82 262.708,1252.82C251.059,1252.82 241.615,1234.04 241.615,1210.87C241.615,1155.36 241.615,1058.08 241.615,1002.57C241.615,979.401 251.059,960.617 262.708,960.617C316.592,960.617 458.841,960.617 512.724,960.617Z" style="fill:rgb(84,125,113);"/>
    </g>
    <g transform="matrix(1,0,0,1,417.604,-738.387)">
        <path d="M358.401,948.402C359.934,945.148 363.244,942.895 367.08,942.895L480.731,942.895C484.567,942.895 487.877,945.148 489.41,948.402L358.401,948.402Z" style="fill:rgb(47,96,79);"/>
    </g>
    <g transform="matrix(1,0,0,1,-9.08114,-700.011)">
        <path d="M694.605,844.179C710.384,844.179 723.175,856.97 723.175,872.749L723.175,1295.27C723.175,1311.05 710.384,1323.84 694.605,1323.84L689.633,1323.84C673.854,1323.84 661.063,1311.05 661.063,1295.27L661.063,872.749C661.063,856.97 673.854,844.179 689.633,844.179L694.605,844.179Z" style="fill:url(#_Linear3);"/>
    </g>
    <g transform="matrix(0.972256,0,0,0.972256,22.4754,-676.052)">
        <rect x="737.051" y="843.626" width="6.429" height="479.663" style="fill:rgb(155,155,155);"/>
    </g>
    <defs>
        <linearGradient id="_Linear1" x1="0" y1="0" x2="1" y2="0" gradientUnits="userSpaceOnUse" gradientTransform="matrix(7.42319e-16,10.4195,-12.123,6.38007e-16,580.756,1312.74)"><stop offset="0" style="stop-color:rgb(155,155,155);stop-opacity:1"/><stop offset="0.17" style="stop-color:rgb(130,130,130);stop-opacity:1"/><stop offset="0.38" style="stop-color:rgb(107,107,107);stop-opacity:1"/><stop offset="1" style="stop-color:rgb(98,98,98);stop-opacity:1"/></linearGradient>
        <linearGradient id="_Linear2" x1="0" y1="0" x2="1" y2="0" gradientUnits="userSpaceOnUse" gradientTransform="matrix(3.78764e-14,-585.088,618.568,3.58263e-14,573.309,1335.72)"><stop offset="0" style="stop-color:rgb(1,1,1);stop-opacity:1"/><stop offset="0.46" style="stop-color:rgb(22,22,22);stop-opacity:1"/><stop offset="1" style="stop-color:rgb(77,77,77);stop-opacity:1"/></linearGradient>
        <linearGradient id="_Linear3" x1="0" y1="0" x2="1" y2="0" gradientUnits="userSpaceOnUse" gradientTransform="matrix(2.9337e-14,479.11,-479.11,2.9337e-14,696.408,844.733)"><stop offset="0" style="stop-color:rgb(128,128,128);stop-opacity:1"/><stop offset="0.33" style="stop-color:rgb(139,139,139);stop-opacity:1"/><stop offset="0.5" style="stop-color:rgb(207,207,207);stop-opacity:1"/><stop offset="0.67" style="stop-color:rgb(139,139,139);stop-opacity:1"/><stop offset="1" style="stop-color:rgb(128,128,128);stop-opacity:1"/></linearGradient>
    </defs>
</svg>
