<?xml version="1.0" encoding="UTF-8" standalone="no"?>
<!DOCTYPE svg PUBLIC "-//W3C//DTD SVG 1.1//EN" "http://www.w3.org/Graphics/SVG/1.1/DTD/svg11.dtd">
<svg width="100%" height="100%" viewBox="0 0 319 411" version="1.1" xmlns="http://www.w3.org/2000/svg" xmlns:xlink="http://www.w3.org/1999/xlink" xml:space="preserve" xmlns:serif="http://www.serif.com/" style="fill-rule:evenodd;clip-rule:evenodd;stroke-linejoin:round;stroke-miterlimit:2;">
    <g id="Artboard1" transform="matrix(1,0,0,1,-357,-218)">
        <rect x="357" y="218" width="319" height="411" style="fill:none;"/>
        <g transform="matrix(1,0,0,1.25287,16,-61.2347)">
            <path d="M619.285,246C622.392,246 625.372,246.985 627.569,248.739C629.766,250.492 631,252.871 631,255.351C631,295.986 631,457.014 631,497.649C631,500.129 629.766,502.508 627.569,504.261C625.372,506.015 622.392,507 619.285,507C575.955,507 425.045,507 381.715,507C378.608,507 375.628,506.015 373.431,504.261C371.234,502.508 370,500.129 370,497.649C370,457.014 370,295.986 370,255.351C370,252.871 371.234,250.492 373.431,248.739C375.628,246.985 378.608,246 381.715,246C425.045,246 575.955,246 619.285,246Z" style="fill:rgb(196,0,0);"/>
        </g>
        <g transform="matrix(1,0,0,1,4.5,3.97215)">
            <path d="M496.76,441.761C496.76,440.365 496.205,439.027 495.219,438.041C494.232,437.054 492.894,436.5 491.499,436.5C479.35,436.5 449.456,436.5 437.307,436.5C435.912,436.5 434.574,435.946 433.587,434.959C432.601,433.973 432.047,432.634 432.047,431.239C432.047,412.578 432.047,349.672 432.047,331.011C432.047,329.616 432.601,328.277 433.587,327.291C434.574,326.304 435.912,325.75 437.307,325.75C461.561,325.75 562.439,325.75 586.693,325.75C588.088,325.75 589.426,326.304 590.413,327.291C591.399,328.277 591.953,329.616 591.953,331.011C591.953,349.672 591.953,412.578 591.953,431.239C591.953,432.634 591.399,433.973 590.413,434.959C589.426,435.946 588.088,436.5 586.693,436.5C574.544,436.5 544.65,436.5 532.501,436.5C531.106,436.5 529.768,437.054 528.781,438.041C527.795,439.027 527.24,440.365 527.24,441.761C527.24,453.018 527.24,479.33 527.24,490.586C527.24,493.492 524.885,495.847 521.98,495.847C516.391,495.847 507.609,495.847 502.02,495.847C499.115,495.847 496.76,493.492 496.76,490.586C496.76,479.33 496.76,453.018 496.76,441.761Z" style="fill:rgb(126,8,8);"/>
        </g>
        <g transform="matrix(1,0,0,1,4.5,3.97215)">
            <path d="M630.785,245.358C633.267,245.358 635.647,246.344 637.401,248.099C639.156,249.853 640.142,252.233 640.142,254.715L640.142,558.285C640.142,560.767 639.156,563.147 637.401,564.901C635.647,566.656 633.267,567.642 630.785,567.642L393.215,567.642C390.733,567.642 388.353,566.656 386.599,564.901C384.844,563.147 383.858,560.767 383.858,558.285L383.858,254.715C383.858,252.233 384.844,249.853 386.599,248.099C388.353,246.344 390.733,245.358 393.215,245.358L630.785,245.358ZM494.402,441.761L494.402,490.587C494.402,494.794 497.813,498.205 502.02,498.205L521.98,498.205C526.187,498.205 529.598,494.794 529.598,490.587L529.598,441.761C529.598,440.991 529.904,440.252 530.448,439.708C530.993,439.164 531.731,438.858 532.501,438.858L586.693,438.858C588.713,438.858 590.651,438.055 592.08,436.626C593.509,435.198 594.311,433.26 594.311,431.239L594.311,331.011C594.311,328.99 593.509,327.052 592.08,325.624C590.651,324.195 588.713,323.392 586.693,323.392L437.307,323.392C435.287,323.392 433.349,324.195 431.92,325.624C430.491,327.052 429.689,328.99 429.689,331.011L429.689,431.239C429.689,433.26 430.491,435.198 431.92,436.626C433.349,438.055 435.287,438.858 437.307,438.858L491.499,438.858C492.269,438.858 493.007,439.164 493.552,439.708C494.096,440.252 494.402,440.991 494.402,441.761Z" style="fill:rgb(232,63,63);"/>
        </g>
        <g transform="matrix(1,0,0,1,4.5,2.97215)">
            <path d="M588,427.32L588,429.006C588,430.993 587.21,432.899 585.805,434.305C584.399,435.71 582.493,436.5 580.505,436.5L534.495,436.5C532.507,436.5 530.601,437.29 529.195,438.695C527.79,440.101 527,442.007 527,443.994L527,442.309C527,440.321 527.79,438.415 529.195,437.01C530.601,435.604 532.507,434.815 534.495,434.815L580.505,434.815C582.493,434.815 584.399,434.025 585.805,432.62C587.21,431.214 588,429.308 588,427.32ZM527,483.006L527,488.006C527,492.145 523.645,495.5 519.506,495.5L504.494,495.5C500.355,495.5 497,492.145 497,488.006L497,483.006C497,487.145 500.355,490.5 504.494,490.5L519.506,490.5C523.645,490.5 527,487.145 527,483.006ZM497,443.994C497,442.007 496.21,440.101 494.805,438.695C493.399,437.29 491.493,436.5 489.505,436.5L443.495,436.5C441.507,436.5 439.601,435.71 438.195,434.305C436.79,432.899 436,430.993 436,429.006L436,427.32C436,429.308 436.79,431.214 438.195,432.62C439.601,434.025 441.507,434.815 443.495,434.815L489.505,434.815C491.493,434.815 493.399,435.604 494.805,437.01C496.21,438.415 497,440.321 497,442.309L497,443.994Z" style="fill:rgb(157,157,157);"/>
        </g>
        <g transform="matrix(1,0,0,0.935525,4.5,30.1811)">
            <path d="M497,443.768C497,441.643 496.21,439.605 494.805,438.103C493.399,436.601 491.493,435.757 489.505,435.757C477.778,435.757 455.222,435.757 443.495,435.757C441.507,435.757 439.601,434.913 438.195,433.41C436.79,431.908 436,429.87 436,427.746C436,423.629 436,418.627 436,414.511C436,412.386 436.79,410.349 438.195,408.846C439.601,407.344 441.507,406.5 443.494,406.5C469.351,406.5 554.649,406.5 580.506,406.5C582.493,406.5 584.399,407.344 585.805,408.846C587.21,410.349 588,412.386 588,414.511C588,418.627 588,423.629 588,427.746C588,429.87 587.21,431.908 585.805,433.41C584.399,434.913 582.493,435.757 580.505,435.757C568.778,435.757 546.222,435.757 534.495,435.757C532.507,435.757 530.601,436.601 529.195,438.103C527.79,439.605 527,441.643 527,443.768C527,455.197 527,476.06 527,487.489C527,491.913 523.645,495.5 519.506,495.5C514.922,495.5 509.078,495.5 504.494,495.5C500.355,495.5 497,491.913 497,487.489C497,476.06 497,455.197 497,443.768Z" style="fill:white;"/>
        </g>
        <g transform="matrix(0.385638,0,0,0.385638,375.352,255.704)">
            <g transform="matrix(73.2924,0,0,73.2924,436.513,459)">
            </g>
            <text x="290px" y="459px" style="font-family:'Calibri', sans-serif;font-size:73.292px;">PULL</text>
        </g>
        <g transform="matrix(0.685179,0,0,0.685179,197.256,-18.8495)">
            <g transform="matrix(73.2924,0,0,73.2924,417.725,459)">
            </g>
            <text x="290px" y="459px" style="font-family:'Calibri', sans-serif;font-size:73.292px;fill:white;">FIRE</text>
        </g>
        <g transform="matrix(0.685179,0,0,0.685179,296.256,-18.8495)">
            <g transform="matrix(73.2924,0,0,73.2924,508.088,459)">
            </g>
            <text x="290px" y="459px" style="font-family:'Calibri', sans-serif;font-size:73.292px;fill:white;">ALARM</text>
        </g>
        <g transform="matrix(5.15499,0,0,0.559515,-7688.4,19.6557)">
            <rect x="1568.04" y="990.07" width="47.208" height="47.208" style="fill:url(#_Linear1);"/>
        </g>
    </g>
    <defs>
        <linearGradient id="_Linear1" x1="0" y1="0" x2="1" y2="0" gradientUnits="userSpaceOnUse" gradientTransform="matrix(2.89066e-15,47.2081,-47.2081,2.89066e-15,1594.43,990.07)"><stop offset="0" style="stop-color:rgb(22,67,102);stop-opacity:1"/><stop offset="1" style="stop-color:rgb(33,117,153);stop-opacity:1"/></linearGradient>
    </defs>
</svg>
