<?xml version="1.0" encoding="UTF-8" standalone="no"?>
<!DOCTYPE svg PUBLIC "-//W3C//DTD SVG 1.1//EN" "http://www.w3.org/Graphics/SVG/1.1/DTD/svg11.dtd">
<svg width="100%" height="100%" viewBox="0 0 473 677" version="1.1" xmlns="http://www.w3.org/2000/svg" xmlns:xlink="http://www.w3.org/1999/xlink" xml:space="preserve" xmlns:serif="http://www.serif.com/" style="fill-rule:evenodd;clip-rule:evenodd;stroke-linejoin:round;stroke-miterlimit:2;">
    <g id="Artboard1" transform="matrix(1,0,0,1,-266,-35)">
        <rect x="266" y="35" width="473" height="677" style="fill:none;"/>
        <g transform="matrix(-1,-1.22465e-16,1.17086e-16,-0.956081,870.682,718.824)">
            <path d="M505.172,79C514.771,79 523.976,82.988 530.763,90.087C537.551,97.186 541.364,106.814 541.364,116.854L541.364,633.146C541.364,643.186 537.551,652.814 530.763,659.913C523.976,667.012 514.771,671 505.172,671L231.191,671C221.593,671 212.387,667.012 205.6,659.913C198.813,652.814 195,643.186 195,633.146L195,116.854C195,106.814 198.813,97.186 205.6,90.087C212.387,82.988 221.593,79 231.191,79L505.172,79Z" style="fill:url(#_Linear1);"/>
        </g>
        <g transform="matrix(1,0,0,1,245.598,2.79322)">
            <path d="M254.982,300.998C228.969,301 204.017,301 190.473,301C183.477,301 176.752,298.289 171.712,293.437C119.322,243.069 118.14,192.717 171.766,142.364C176.779,137.648 183.403,135.022 190.285,135.022C203.785,135.012 228.848,135.006 254.982,135.003L258.821,135.003C284.955,135.006 310.018,135.012 323.518,135.022C330.4,135.022 337.024,137.648 342.037,142.364C395.663,192.717 394.481,243.069 342.091,293.437C337.051,298.289 330.326,301 323.33,301C309.787,301 284.834,301 258.821,300.998L254.982,300.998Z" style="fill:url(#_Linear2);"/>
        </g>
        <g transform="matrix(1,0,0,1,245.598,251.79)">
            <path d="M254.982,300.998C228.969,301 204.017,301 190.473,301C183.477,301 176.752,298.289 171.712,293.437C119.322,243.069 118.14,192.717 171.766,142.364C176.779,137.648 183.403,135.022 190.285,135.022C203.785,135.012 228.848,135.006 254.982,135.003L258.821,135.003C284.955,135.006 310.018,135.012 323.518,135.022C330.4,135.022 337.024,137.648 342.037,142.364C395.663,192.717 394.481,243.069 342.091,293.437C337.051,298.289 330.326,301 323.33,301C309.787,301 284.834,301 258.821,300.998L254.982,300.998Z" style="fill:url(#_Linear3);"/>
        </g>
        <g transform="matrix(0.981927,0,0,0.981927,250.241,5.23309)">
            <path d="M254.982,300.998C228.969,301 204.017,301 190.473,301C183.477,301 176.752,298.289 171.712,293.437C119.322,243.069 118.14,192.717 171.766,142.364C176.779,137.648 183.403,135.022 190.285,135.022C203.785,135.012 228.848,135.006 254.982,135.003L258.821,135.003C284.955,135.006 310.018,135.012 323.518,135.022C330.4,135.022 337.024,137.648 342.037,142.364C395.663,192.717 394.481,243.069 342.091,293.437C337.051,298.289 330.326,301 323.33,301C309.787,301 284.834,301 258.821,300.998L254.982,300.998Z" style="fill:url(#_Linear4);"/>
        </g>
        <g transform="matrix(0.981927,0,0,0.981927,250.241,254.23)">
            <path d="M254.982,300.998C228.969,301 204.017,301 190.473,301C183.477,301 176.752,298.289 171.712,293.437C119.322,243.069 118.14,192.717 171.766,142.364C176.779,137.648 183.403,135.022 190.285,135.022C203.785,135.012 228.848,135.006 254.982,135.003L258.821,135.003C284.955,135.006 310.018,135.012 323.518,135.022C330.4,135.022 337.024,137.648 342.037,142.364C395.663,192.717 394.481,243.069 342.091,293.437C337.051,298.289 330.326,301 323.33,301C309.787,301 284.834,301 258.821,300.998L254.982,300.998Z" style="fill:url(#_Linear5);"/>
        </g>
        <g transform="matrix(-1,-1.22465e-16,1.43189e-16,-1.16923,625.598,305.601)">
            <rect x="153" y="55" width="26" height="65" style="fill:url(#_Linear6);"/>
        </g>
        <g transform="matrix(-1,-1.22465e-16,1.43189e-16,-1.16923,625.598,554.598)">
            <rect x="153" y="55" width="26" height="65" style="fill:url(#_Linear7);"/>
        </g>
        <g transform="matrix(-1,-1.22465e-16,1.43189e-16,-1.16923,708.598,305.601)">
            <rect x="153" y="55" width="26" height="65" style="fill:url(#_Linear8);"/>
        </g>
        <g transform="matrix(-1,-1.22465e-16,1.43189e-16,-1.16923,708.598,554.598)">
            <rect x="153" y="55" width="26" height="65" style="fill:url(#_Linear9);"/>
        </g>
        <g transform="matrix(0.825767,0,0,1,322.521,115.793)">
            <rect x="153" y="55" width="26" height="65" style="fill:rgb(72,72,72);"/>
        </g>
        <g transform="matrix(0.825767,0,0,1,322.521,364.79)">
            <rect x="153" y="55" width="26" height="65" style="fill:rgb(72,72,72);"/>
        </g>
        <g transform="matrix(0.825767,0,0,1,405.521,115.793)">
            <rect x="153" y="55" width="26" height="65" style="fill:rgb(72,72,72);"/>
        </g>
        <g transform="matrix(0.825767,0,0,1,405.521,364.79)">
            <rect x="153" y="55" width="26" height="65" style="fill:rgb(72,72,72);"/>
        </g>
        <g transform="matrix(1.46154,0,0,0.883721,96.1923,29.7932)">
            <path d="M278,258C284.628,258 290,266.885 290,277.846C290,289.118 290,301 290,301L266,301L266,277.846C266,266.885 271.372,258 278,258C278,258 278,258 278,258Z" style="fill:rgb(72,72,72);"/>
        </g>
        <g transform="matrix(1.46154,0,0,0.883721,96.1923,278.79)">
            <path d="M278,258C284.628,258 290,266.885 290,277.846C290,289.118 290,301 290,301L266,301L266,277.846C266,266.885 271.372,258 278,258C278,258 278,258 278,258Z" style="fill:rgb(72,72,72);"/>
        </g>
        <g transform="matrix(1.07895,0,0,1.07895,282.395,38.2143)">
            <circle cx="204" cy="286" r="19" style="fill:url(#_Linear10);"/>
        </g>
        <g transform="matrix(1,0,0,1,298.5,60.7932)">
            <circle cx="204" cy="286" r="19" style="fill:url(#_Linear11);"/>
        </g>
        <g transform="matrix(0.140738,0,0,0.538462,479.138,299.678)">
            <rect x="153" y="55" width="26" height="65" style="fill:rgb(72,72,72);"/>
        </g>
        <g transform="matrix(6.20642,0,0,0.559515,-9375.91,89.3347)">
            <rect x="1568.04" y="990.07" width="47.208" height="47.208" style="fill:url(#_Linear12);"/>
        </g>
    </g>
    <defs>
        <linearGradient id="_Linear1" x1="0" y1="0" x2="1" y2="0" gradientUnits="userSpaceOnUse" gradientTransform="matrix(1.40913e-14,-592,202.067,3.18293e-14,368.003,671)"><stop offset="0" style="stop-color:rgb(241,241,241);stop-opacity:1"/><stop offset="0.43" style="stop-color:rgb(232,232,232);stop-opacity:1"/><stop offset="0.95" style="stop-color:rgb(229,229,229);stop-opacity:1"/><stop offset="0.99" style="stop-color:rgb(199,199,199);stop-opacity:1"/><stop offset="1" style="stop-color:rgb(194,194,194);stop-opacity:1"/><stop offset="1" style="stop-color:rgb(168,168,168);stop-opacity:1"/></linearGradient>
        <linearGradient id="_Linear2" x1="0" y1="0" x2="1" y2="0" gradientUnits="userSpaceOnUse" gradientTransform="matrix(1.01642e-14,165.993,-25.7287,1.57543e-15,256.902,135.003)"><stop offset="0" style="stop-color:rgb(231,231,231);stop-opacity:1"/><stop offset="1" style="stop-color:rgb(159,159,159);stop-opacity:1"/></linearGradient>
        <linearGradient id="_Linear3" x1="0" y1="0" x2="1" y2="0" gradientUnits="userSpaceOnUse" gradientTransform="matrix(1.01642e-14,165.993,-25.7287,1.57543e-15,256.902,135.003)"><stop offset="0" style="stop-color:rgb(231,231,231);stop-opacity:1"/><stop offset="1" style="stop-color:rgb(159,159,159);stop-opacity:1"/></linearGradient>
        <linearGradient id="_Linear4" x1="0" y1="0" x2="1" y2="0" gradientUnits="userSpaceOnUse" gradientTransform="matrix(0.128817,-169.055,148.441,0.113109,256.773,301)"><stop offset="0" style="stop-color:rgb(241,241,241);stop-opacity:1"/><stop offset="0.44" style="stop-color:rgb(232,232,232);stop-opacity:1"/><stop offset="0.96" style="stop-color:rgb(229,229,229);stop-opacity:1"/><stop offset="1" style="stop-color:rgb(199,199,199);stop-opacity:1"/></linearGradient>
        <linearGradient id="_Linear5" x1="0" y1="0" x2="1" y2="0" gradientUnits="userSpaceOnUse" gradientTransform="matrix(0.128817,-169.055,148.441,0.113109,256.773,301)"><stop offset="0" style="stop-color:rgb(241,241,241);stop-opacity:1"/><stop offset="0.44" style="stop-color:rgb(232,232,232);stop-opacity:1"/><stop offset="0.96" style="stop-color:rgb(229,229,229);stop-opacity:1"/><stop offset="1" style="stop-color:rgb(199,199,199);stop-opacity:1"/></linearGradient>
        <linearGradient id="_Linear6" x1="0" y1="0" x2="1" y2="0" gradientUnits="userSpaceOnUse" gradientTransform="matrix(1.44213e-15,-100.925,23.5518,6.1799e-15,165.987,139.508)"><stop offset="0" style="stop-color:rgb(241,241,241);stop-opacity:1"/><stop offset="0.61" style="stop-color:rgb(229,229,229);stop-opacity:1"/><stop offset="0.82" style="stop-color:rgb(199,199,199);stop-opacity:1"/><stop offset="1" style="stop-color:rgb(168,168,168);stop-opacity:1"/></linearGradient>
        <linearGradient id="_Linear7" x1="0" y1="0" x2="1" y2="0" gradientUnits="userSpaceOnUse" gradientTransform="matrix(1.44213e-15,-100.925,23.5518,6.1799e-15,165.987,139.508)"><stop offset="0" style="stop-color:rgb(241,241,241);stop-opacity:1"/><stop offset="0.61" style="stop-color:rgb(229,229,229);stop-opacity:1"/><stop offset="0.82" style="stop-color:rgb(199,199,199);stop-opacity:1"/><stop offset="1" style="stop-color:rgb(168,168,168);stop-opacity:1"/></linearGradient>
        <linearGradient id="_Linear8" x1="0" y1="0" x2="1" y2="0" gradientUnits="userSpaceOnUse" gradientTransform="matrix(1.44213e-15,-100.925,23.5518,6.1799e-15,165.987,139.508)"><stop offset="0" style="stop-color:rgb(241,241,241);stop-opacity:1"/><stop offset="0.61" style="stop-color:rgb(229,229,229);stop-opacity:1"/><stop offset="0.82" style="stop-color:rgb(199,199,199);stop-opacity:1"/><stop offset="1" style="stop-color:rgb(168,168,168);stop-opacity:1"/></linearGradient>
        <linearGradient id="_Linear9" x1="0" y1="0" x2="1" y2="0" gradientUnits="userSpaceOnUse" gradientTransform="matrix(1.44213e-15,-100.925,23.5518,6.1799e-15,165.987,139.508)"><stop offset="0" style="stop-color:rgb(241,241,241);stop-opacity:1"/><stop offset="0.61" style="stop-color:rgb(229,229,229);stop-opacity:1"/><stop offset="0.82" style="stop-color:rgb(199,199,199);stop-opacity:1"/><stop offset="1" style="stop-color:rgb(168,168,168);stop-opacity:1"/></linearGradient>
        <linearGradient id="_Linear10" x1="0" y1="0" x2="1" y2="0" gradientUnits="userSpaceOnUse" gradientTransform="matrix(1.54594e-15,37.9992,-3.91327,3.60647e-16,204,267)"><stop offset="0" style="stop-color:rgb(231,231,231);stop-opacity:1"/><stop offset="1" style="stop-color:rgb(159,159,159);stop-opacity:1"/></linearGradient>
        <linearGradient id="_Linear11" x1="0" y1="0" x2="1" y2="0" gradientUnits="userSpaceOnUse" gradientTransform="matrix(-0.0195927,64,-37.3373,-0.0114303,204,262)"><stop offset="0" style="stop-color:rgb(241,241,241);stop-opacity:1"/><stop offset="0.19" style="stop-color:rgb(232,232,232);stop-opacity:1"/><stop offset="0.4" style="stop-color:rgb(229,229,229);stop-opacity:1"/><stop offset="0.99" style="stop-color:rgb(199,199,199);stop-opacity:1"/><stop offset="1" style="stop-color:rgb(194,194,194);stop-opacity:1"/><stop offset="1" style="stop-color:rgb(168,168,168);stop-opacity:1"/></linearGradient>
        <linearGradient id="_Linear12" x1="0" y1="0" x2="1" y2="0" gradientUnits="userSpaceOnUse" gradientTransform="matrix(2.89066e-15,47.2081,-47.2081,2.89066e-15,1594.43,990.07)"><stop offset="0" style="stop-color:rgb(22,67,102);stop-opacity:1"/><stop offset="1" style="stop-color:rgb(33,117,153);stop-opacity:1"/></linearGradient>
    </defs>
</svg>
