<?xml version="1.0" encoding="UTF-8" standalone="no"?>
<!DOCTYPE svg PUBLIC "-//W3C//DTD SVG 1.1//EN" "http://www.w3.org/Graphics/SVG/1.1/DTD/svg11.dtd">
<svg width="100%" height="100%" viewBox="0 0 171 171" version="1.1" xmlns="http://www.w3.org/2000/svg" xmlns:xlink="http://www.w3.org/1999/xlink" xml:space="preserve" xmlns:serif="http://www.serif.com/" style="fill-rule:evenodd;clip-rule:evenodd;stroke-linejoin:round;stroke-miterlimit:2;">
    <g transform="matrix(1,0,0,1,-1209.47,-3.07379)">
        <g id="Smudge-2" serif:id="Smudge 2" transform="matrix(0.566225,0,0,0.566225,1699.25,339.412)">
            <rect x="-865" y="-594" width="302" height="302" style="fill:none;"/>
            <g id="smudge-2" serif:id="smudge 2" transform="matrix(1.85578,0,0,1.76608,-2600.22,-588.571)">
                <g transform="matrix(1,0,0,0.24,946,97.3086)">
                    <path d="M110.456,31.211C110.191,31.513 109.918,31.653 109.645,31.626C106.408,31.305 84.918,29.176 74.141,28.108C70.098,27.708 66.085,31.26 62.396,38.505C61.97,39.34 61.529,40.206 61.075,41.098C49.801,63.236 36.536,49.319 28.778,7.214C26.431,-5.523 24.278,-17.209 22.835,-25.04C21.651,-31.469 19.982,-35.839 18.128,-37.366C18.126,-37.368 18.124,-37.369 18.122,-37.37C13.779,-40.948 10.64,-57.6 10.662,-76.949C10.683,-96.297 13.859,-112.816 18.21,-116.209C40.225,-133.377 62.177,-150.496 66.266,-153.685C66.718,-154.037 67.173,-154.339 67.628,-154.59C89.579,-166.806 160.237,-213.77 97,-105.262C97,-105.262 96.999,-105.259 96.998,-105.254C95.736,-99.129 95.556,-90.08 96.558,-83.092C97.559,-76.104 99.498,-72.875 101.306,-75.183C104.046,-78.679 106.486,-81.792 107.851,-83.533C108.611,-84.504 109.404,-84.894 110.195,-84.687C110.196,-84.687 110.196,-84.687 110.197,-84.686C116.659,-82.994 121.881,-60.982 122.512,-32.774C123.143,-4.566 118.996,21.464 112.732,28.614C111.664,29.832 110.889,30.717 110.456,31.211Z" style="fill:url(#_Radial1);"/>
                </g>
                <g transform="matrix(0.92544,0.378893,-0.0909344,0.222106,941.936,71.6179)">
                    <path d="M94.608,-19.636C89.738,-13.422 85.613,0.255 82.991,18.879C82.473,22.559 81.958,26.22 81.481,29.608C80.026,39.948 77.467,46.394 74.627,46.876C66.766,48.211 50.496,50.974 40.603,52.654C35.249,53.563 30.129,61.257 25.879,74.779C20.012,93.448 12.304,117.976 12.304,117.976C12.304,117.976 15.554,60.814 18.08,16.374C18.729,4.953 17.997,-7.311 16.131,-16.291C14.264,-25.27 11.512,-29.77 8.799,-28.275C8.798,-28.274 8.796,-28.273 8.794,-28.272C6.71,-27.123 4.713,-33.097 4.202,-42.013C3.691,-50.93 4.836,-59.812 6.835,-62.446C17.931,-77.058 28.536,-91.025 35.347,-99.996C40.307,-106.528 45.647,-106.717 50.733,-100.54C51.947,-99.066 53.213,-97.528 54.461,-96.013C60.535,-88.637 66.959,-92.592 72.147,-106.9C75.297,-115.587 79.054,-125.952 82.851,-136.423C87.471,-149.167 93.328,-151.062 98.513,-141.49C103.699,-131.919 107.55,-112.106 108.813,-88.505C108.933,-86.259 109,-85 109,-85L109,-65.198C109,-48.964 106.587,-34.921 103.014,-30.361C100.42,-27.052 97.355,-23.141 94.608,-19.636Z" style="fill:url(#_Radial2);"/>
                </g>
                <g transform="matrix(1.57148,-0.0425294,0.00638151,0.2358,919.421,92.5995)">
                    <path d="M92.451,-16.884C88.941,-12.404 85.711,-0.44 83.204,17.371C82.952,19.159 82.7,20.952 82.451,22.719C80.339,37.719 77.479,46.392 74.476,46.902C65.109,48.493 44.25,52.035 35.925,53.449C33.595,53.844 31.299,57.532 29.175,64.29C23.499,82.352 12.304,117.976 12.304,117.976C12.304,117.976 15.725,57.797 18.276,12.928C18.862,2.609 18.648,-9.085 17.71,-18.009C16.772,-26.932 15.241,-31.826 13.661,-30.955C13.661,-30.955 13.66,-30.954 13.66,-30.954C12.149,-30.122 10.813,-37.705 10.617,-48.218C10.422,-58.732 11.435,-68.503 12.924,-70.465C24.562,-85.792 34.921,-99.435 39.869,-105.951C41.902,-108.629 43.986,-108.733 46.023,-106.26C49.492,-102.048 55.171,-95.15 59.218,-90.236C62.346,-86.438 65.564,-88.744 68.522,-96.901C73.456,-110.51 81.608,-132.997 88.774,-152.762C92.591,-163.291 96.848,-162.67 100.59,-151.038C104.333,-139.407 107.249,-117.738 108.685,-90.884C108.764,-89.406 108.83,-88.174 108.881,-87.225C108.96,-85.754 109,-84.195 109,-82.622C109,-80.004 109,-75.47 109,-70.267C109,-51.592 107.09,-35.562 104.465,-32.213C100.974,-27.759 96.14,-21.591 92.451,-16.884Z" style="fill:url(#_Radial3);"/>
                </g>
            </g>
        </g>
    </g>
    <defs>
        <radialGradient id="_Radial1" cx="0" cy="0" r="1" gradientUnits="userSpaceOnUse" gradientTransform="matrix(3.06162e-15,-50,50,3.06162e-15,65,-56)"><stop offset="0" style="stop-color:white;stop-opacity:1"/><stop offset="1" style="stop-color:white;stop-opacity:0"/></radialGradient>
        <radialGradient id="_Radial2" cx="0" cy="0" r="1" gradientUnits="userSpaceOnUse" gradientTransform="matrix(3.06162e-15,-50,50,3.06162e-15,65,-56)"><stop offset="0" style="stop-color:white;stop-opacity:1"/><stop offset="1" style="stop-color:white;stop-opacity:0"/></radialGradient>
        <radialGradient id="_Radial3" cx="0" cy="0" r="1" gradientUnits="userSpaceOnUse" gradientTransform="matrix(3.06162e-15,-50,50,3.06162e-15,65,-56)"><stop offset="0" style="stop-color:white;stop-opacity:1"/><stop offset="1" style="stop-color:white;stop-opacity:0"/></radialGradient>
    </defs>
</svg>
