<?xml version="1.0" encoding="UTF-8" standalone="no"?>
<!DOCTYPE svg PUBLIC "-//W3C//DTD SVG 1.1//EN" "http://www.w3.org/Graphics/SVG/1.1/DTD/svg11.dtd">
<svg width="100%" height="100%" viewBox="0 0 840 674" version="1.1" xmlns="http://www.w3.org/2000/svg" xmlns:xlink="http://www.w3.org/1999/xlink" xml:space="preserve" xmlns:serif="http://www.serif.com/" style="fill-rule:evenodd;clip-rule:evenodd;stroke-linejoin:round;stroke-miterlimit:2;">
    <g transform="matrix(1,0,0,1,-1597,-443.296)">
        <g id="Gel-Rig-Wells-Sorted" serif:id="Gel Rig Wells Sorted" transform="matrix(1,0,0,1,1817,405.296)">
            <rect x="-220" y="38" width="840" height="674" style="fill:none;"/>
            <g transform="matrix(0.680689,0,0,1.21785,-811.869,-765.133)">
                <rect x="1354.5" y="806.5" width="89" height="15.5" style="fill:url(#_Linear1);"/>
            </g>
            <g transform="matrix(0.680689,0,0,1.21785,-877.066,-765.133)">
                <rect x="1354.5" y="806.5" width="89" height="15.5" style="fill:url(#_Linear2);"/>
            </g>
            <g transform="matrix(0.680689,0,0,1.21785,-746.672,-765.133)">
                <rect x="1354.5" y="806.5" width="89" height="15.5" style="fill:url(#_Linear3);"/>
            </g>
            <g transform="matrix(0.680689,0,0,1.21785,-681.475,-765.133)">
                <rect x="1354.5" y="806.5" width="89" height="15.5" style="fill:url(#_Linear4);"/>
            </g>
            <g transform="matrix(0.680689,0,0,1.21785,-616.278,-765.133)">
                <rect x="1354.5" y="806.5" width="89" height="15.5" style="fill:url(#_Linear5);"/>
            </g>
        </g>
    </g>
    <defs>
        <linearGradient id="_Linear1" x1="0" y1="0" x2="1" y2="0" gradientUnits="userSpaceOnUse" gradientTransform="matrix(2.29621e-15,15.5,-37.5,9.49101e-16,1399,806.5)"><stop offset="0" style="stop-color:rgb(130,178,191);stop-opacity:0.75"/><stop offset="1" style="stop-color:rgb(44,137,162);stop-opacity:0.75"/></linearGradient>
        <linearGradient id="_Linear2" x1="0" y1="0" x2="1" y2="0" gradientUnits="userSpaceOnUse" gradientTransform="matrix(2.29621e-15,15.5,-37.5,9.49101e-16,1399,806.5)"><stop offset="0" style="stop-color:rgb(130,178,191);stop-opacity:0.75"/><stop offset="1" style="stop-color:rgb(44,137,162);stop-opacity:0.75"/></linearGradient>
        <linearGradient id="_Linear3" x1="0" y1="0" x2="1" y2="0" gradientUnits="userSpaceOnUse" gradientTransform="matrix(2.29621e-15,15.5,-37.5,9.49101e-16,1399,806.5)"><stop offset="0" style="stop-color:rgb(130,178,191);stop-opacity:0.75"/><stop offset="1" style="stop-color:rgb(44,137,162);stop-opacity:0.75"/></linearGradient>
        <linearGradient id="_Linear4" x1="0" y1="0" x2="1" y2="0" gradientUnits="userSpaceOnUse" gradientTransform="matrix(2.29621e-15,15.5,-37.5,9.49101e-16,1399,806.5)"><stop offset="0" style="stop-color:rgb(130,178,191);stop-opacity:0.75"/><stop offset="1" style="stop-color:rgb(44,137,162);stop-opacity:0.75"/></linearGradient>
        <linearGradient id="_Linear5" x1="0" y1="0" x2="1" y2="0" gradientUnits="userSpaceOnUse" gradientTransform="matrix(2.29621e-15,15.5,-37.5,9.49101e-16,1399,806.5)"><stop offset="0" style="stop-color:rgb(130,178,191);stop-opacity:0.75"/><stop offset="1" style="stop-color:rgb(44,137,162);stop-opacity:0.75"/></linearGradient>
    </defs>
</svg>
