<?xml version="1.0" encoding="UTF-8" standalone="no"?>
<!DOCTYPE svg PUBLIC "-//W3C//DTD SVG 1.1//EN" "http://www.w3.org/Graphics/SVG/1.1/DTD/svg11.dtd">
<svg width="100%" height="100%" viewBox="0 0 171 171" version="1.1" xmlns="http://www.w3.org/2000/svg" xmlns:xlink="http://www.w3.org/1999/xlink" xml:space="preserve" xmlns:serif="http://www.serif.com/" style="fill-rule:evenodd;clip-rule:evenodd;stroke-linejoin:round;stroke-miterlimit:2;">
    <g transform="matrix(1,0,0,1,-1022.97,-3.07379)">
        <g id="Smudge-1" serif:id="Smudge 1" transform="matrix(0.566225,0,0,0.566225,1512.75,339.412)">
            <rect x="-865" y="-594" width="302" height="302" style="fill:none;"/>
            <g id="smudge-1" serif:id="smudge 1" transform="matrix(1.37776,0,0,0.89917,271.481,-44.6644)">
                <g transform="matrix(-1.76608,2.16283e-16,-5.19078e-17,-0.42386,-595.587,-475.09)">
                    <path d="M110.057,31.667C110.057,31.667 81.18,28.806 71.282,27.825C69.108,27.61 66.941,29.579 64.863,33.661C61.866,39.545 57.173,48.761 52.812,57.324C46.042,70.619 38.677,60.937 33.28,31.646C29.122,9.081 24.572,-15.612 22.36,-27.619C21.472,-32.436 20.385,-35.507 19.23,-36.458C19.228,-36.46 19.226,-36.461 19.225,-36.462C16.045,-39.081 13.668,-56.4 13.679,-76.868C13.69,-97.336 16.085,-114.552 19.267,-117.034C41.568,-134.424 63.51,-151.535 66.578,-153.928C66.823,-154.118 67.067,-154.281 67.312,-154.416C88.889,-166.346 160.544,-214.297 97,-105.262C97,-105.262 96.999,-105.255 96.996,-105.241C95.929,-100.065 95.564,-90.874 96.115,-83.078C96.665,-75.282 97.986,-70.946 99.3,-72.622C104.331,-79.042 109,-85 109,-85C109,-85 109.257,-84.933 109.741,-84.806C114.388,-83.589 118.146,-60.235 118.462,-30.613C118.777,-0.992 115.55,25.397 110.972,30.622C110.375,31.304 110.057,31.667 110.057,31.667Z" style="fill:url(#_Radial1);"/>
                </g>
                <g transform="matrix(1.58585,0.657174,-0.162266,0.39157,-813.425,-455.185)">
                    <path d="M92.548,-17.007C88.951,-12.417 85.948,-2.126 83.844,12.823C83.262,16.957 82.658,21.249 82.085,25.321C80.196,38.741 77.24,46.433 73.744,47.026C64.483,48.599 45.759,51.779 37.047,53.258C33.979,53.779 31.164,57.963 28.782,65.542C22.999,83.945 12.304,117.976 12.304,117.976C12.304,117.976 15.629,59.49 18.167,14.844C18.697,5.519 18.063,-6.36 16.532,-15.776C15.002,-25.191 12.841,-30.503 10.964,-29.468C10.961,-29.466 10.957,-29.465 10.954,-29.463C9.373,-28.592 7.552,-35.083 6.799,-44.272C6.046,-53.461 6.622,-62.165 8.114,-64.13C20.582,-80.55 32.265,-95.937 38.42,-104.043C41.399,-107.966 44.712,-107.852 48.124,-103.708C50.762,-100.505 54.009,-96.562 56.878,-93.078C61.509,-87.454 65.91,-89.698 69.46,-99.49C74.44,-113.225 82.024,-134.143 88.745,-152.681C91.956,-161.538 96.313,-159.241 100.341,-146.569C104.368,-133.897 107.527,-112.547 108.746,-89.752C108.907,-86.73 109,-85 109,-85L109,-65.614C109,-48.567 107.219,-35.727 104.345,-32.061C100.896,-27.659 96.182,-21.644 92.548,-17.007Z" style="fill:url(#_Radial2);"/>
                </g>
                <g transform="matrix(-1.91786,-0.296051,0.0635551,-0.411718,-600.002,-423.068)">
                    <path d="M92.232,-16.604C88.848,-12.286 85.829,-1.278 83.51,15.195C83.082,18.233 82.648,21.316 82.228,24.3C80.246,38.379 77.514,46.386 74.516,46.895C65.206,48.476 44.43,52.004 36.026,53.431C33.627,53.839 31.321,57.464 29.231,64.114C23.573,82.119 12.304,117.976 12.304,117.976C12.304,117.976 15.72,57.889 18.27,13.031C18.817,3.409 18.523,-8.242 17.504,-17.367C16.485,-26.491 14.901,-31.639 13.374,-30.797C13.368,-30.794 13.363,-30.791 13.358,-30.788C11.913,-29.992 10.481,-37.386 10.101,-47.609C9.72,-57.833 10.524,-67.303 11.929,-69.154C23.814,-84.806 34.502,-98.882 39.669,-105.688C41.835,-108.54 44.107,-108.586 46.381,-105.825C49.747,-101.738 54.919,-95.456 58.791,-90.755C62.202,-86.613 65.59,-88.814 68.605,-97.13C73.837,-111.562 82.611,-135.762 90.019,-156.195C93.377,-165.457 97.337,-163.642 100.901,-151.208C104.465,-138.775 107.293,-116.909 108.673,-91.122C108.879,-87.259 109,-85 109,-85L109,-62.129C109,-47.762 107.655,-36.284 105.676,-33.759C102.108,-29.205 96.391,-21.911 92.232,-16.604Z" style="fill:url(#_Radial3);"/>
                </g>
            </g>
        </g>
    </g>
    <defs>
        <radialGradient id="_Radial1" cx="0" cy="0" r="1" gradientUnits="userSpaceOnUse" gradientTransform="matrix(3.06162e-15,-50,50,3.06162e-15,65,-56)"><stop offset="0" style="stop-color:white;stop-opacity:1"/><stop offset="1" style="stop-color:white;stop-opacity:0"/></radialGradient>
        <radialGradient id="_Radial2" cx="0" cy="0" r="1" gradientUnits="userSpaceOnUse" gradientTransform="matrix(3.06162e-15,-50,50,3.06162e-15,65,-56)"><stop offset="0" style="stop-color:white;stop-opacity:1"/><stop offset="1" style="stop-color:white;stop-opacity:0"/></radialGradient>
        <radialGradient id="_Radial3" cx="0" cy="0" r="1" gradientUnits="userSpaceOnUse" gradientTransform="matrix(3.06162e-15,-50,50,3.06162e-15,65,-56)"><stop offset="0" style="stop-color:white;stop-opacity:1"/><stop offset="1" style="stop-color:white;stop-opacity:0"/></radialGradient>
    </defs>
</svg>
