<?xml version="1.0" encoding="UTF-8" standalone="no"?>
<!DOCTYPE svg PUBLIC "-//W3C//DTD SVG 1.1//EN" "http://www.w3.org/Graphics/SVG/1.1/DTD/svg11.dtd">
<svg width="100%" height="100%" viewBox="0 0 171 171" version="1.1" xmlns="http://www.w3.org/2000/svg" xmlns:xlink="http://www.w3.org/1999/xlink" xml:space="preserve" xmlns:serif="http://www.serif.com/" style="fill-rule:evenodd;clip-rule:evenodd;stroke-linejoin:round;stroke-miterlimit:2;">
    <g transform="matrix(1,0,0,1,-832.97,0)">
        <g id="Wave-2" serif:id="Wave 2" transform="matrix(0.566225,0,0,0.566225,1322.75,336.338)">
            <rect x="-865" y="-594" width="302" height="302" style="fill:none;"/>
            <g transform="matrix(3.15741,0,0,1.76608,-919.232,-335.333)">
                <path d="M109,-63.825C109,-57.92 107.277,-52.443 104.454,-49.378C101.631,-46.312 98.119,-46.102 95.188,-48.823C94.131,-49.803 93.161,-50.704 92.345,-51.461C90.79,-52.905 88.928,-52.817 87.417,-51.226C86.059,-49.797 84.233,-47.875 82.207,-45.742C71.802,-34.788 58.724,-36.186 49.123,-49.279C44.446,-55.658 40.555,-60.964 40.555,-60.964C40.555,-60.964 37.588,-57.025 33.966,-52.215C31.501,-48.943 28.216,-48.434 25.473,-50.9C22.731,-53.366 21,-58.385 21,-63.874C21,-66.103 21,-68.264 21,-70.271C21,-77.466 23.262,-84.051 26.851,-87.305C29.547,-89.75 32.82,-92.718 35.87,-95.483C41.742,-100.808 48.829,-99.284 53.827,-91.622C55.229,-89.474 56.672,-87.262 58.036,-85.171C62.207,-78.778 68.182,-77.799 72.933,-82.731C76.349,-86.276 80.301,-90.377 83.574,-93.775C87.775,-98.135 92.939,-98.303 97.226,-94.218C99.448,-92.101 101.868,-89.795 103.934,-87.827C107.052,-84.856 109,-79.054 109,-72.736C109,-70.033 109,-66.983 109,-63.825Z" style="fill:url(#_Radial1);"/>
            </g>
        </g>
    </g>
    <defs>
        <radialGradient id="_Radial1" cx="0" cy="0" r="1" gradientUnits="userSpaceOnUse" gradientTransform="matrix(3.06162e-15,-50,50,3.06162e-15,65,-56)"><stop offset="0" style="stop-color:white;stop-opacity:1"/><stop offset="1" style="stop-color:white;stop-opacity:0"/></radialGradient>
    </defs>
</svg>
