<?xml version="1.0" encoding="UTF-8" standalone="no"?>
<!DOCTYPE svg PUBLIC "-//W3C//DTD SVG 1.1//EN" "http://www.w3.org/Graphics/SVG/1.1/DTD/svg11.dtd">
<svg width="100%" height="100%" viewBox="0 0 1024 768" version="1.1" xmlns="http://www.w3.org/2000/svg" xmlns:xlink="http://www.w3.org/1999/xlink" xml:space="preserve" xmlns:serif="http://www.serif.com/" style="fill-rule:evenodd;clip-rule:evenodd;stroke-linejoin:round;stroke-miterlimit:2;">
    <g>
        <g transform="matrix(0.7418,0,0,1.03681,24.1002,-778.265)">
            <path d="M937.185,919.918C944.255,919.918 951.035,921.928 956.034,925.505C961.033,929.081 963.842,933.932 963.842,938.991L963.842,1304.09C963.842,1309.14 961.033,1314 956.034,1317.57C951.035,1321.15 944.255,1323.16 937.185,1323.16L114.305,1323.16C107.235,1323.16 100.455,1321.15 95.456,1317.57C90.457,1314 87.648,1309.14 87.648,1304.09L87.648,938.991C87.648,933.932 90.457,929.081 95.456,925.505C100.455,921.928 107.235,919.918 114.305,919.918L937.185,919.918ZM786.625,980.451C604.919,979.666 371.519,980.379 156.507,980.559C141.795,980.57 129.878,989.106 129.878,999.631L129.878,1242.85C129.878,1253.38 141.813,1261.92 156.535,1261.92L786.449,1261.92C801.171,1261.92 813.106,1253.38 813.106,1242.85L813.106,999.523C813.106,989.039 801.278,980.52 786.625,980.451Z" style="fill:url(#_Linear1);"/>
        </g>
        <g transform="matrix(1.73489,0,0,1,-298.732,-722.719)">
            <path d="M533.747,971.696C533.793,972.277 533.817,972.869 533.817,973.472L533.817,1239.96C533.817,1247.07 530.5,1252.82 526.408,1252.82L249.024,1252.82C244.932,1252.82 241.615,1247.07 241.615,1239.96L241.615,973.472C241.615,972.869 241.639,972.277 241.685,971.696C241.86,971.674 242.036,971.664 242.212,971.664L533.22,971.664C533.397,971.664 533.572,971.674 533.747,971.696Z" style="fill:rgb(47,67,61);fill-opacity:0.5;"/>
        </g>
        <g transform="matrix(1,0,0,1,0,-699.457)">
            <path d="M120.565,948.435C121.43,942.176 126.801,937.356 133.298,937.356L614.529,937.356C621.026,937.356 626.397,942.176 627.262,948.435C626.959,948.413 626.654,948.402 626.348,948.402L121.479,948.402C121.173,948.402 120.869,948.413 120.565,948.435Z" style="fill:rgb(48,57,54);fill-opacity:0.75;"/>
        </g>
        <g transform="matrix(2.92716,0,0,0.602879,-560.538,162.029)">
            <path d="M308.11,144.168L255.246,610.524L236.854,610.524L289.819,144.168L308.11,144.168Z" style="fill:rgb(61,81,75);fill-opacity:0.5;"/>
        </g>
        <g transform="matrix(2.92716,0,0,0.602879,-469.999,162.029)">
            <path d="M308.11,144.168L255.246,610.524L236.854,610.524L289.819,144.168L308.11,144.168Z" style="fill:rgb(61,81,75);fill-opacity:0.5;"/>
        </g>
    </g>
    <defs>
        <linearGradient id="_Linear1" x1="0" y1="0" x2="1" y2="0" gradientUnits="userSpaceOnUse" gradientTransform="matrix(3.78764e-14,-585.088,618.568,3.58263e-14,573.309,1335.72)"><stop offset="0" style="stop-color:rgb(1,1,1);stop-opacity:1"/><stop offset="0.46" style="stop-color:rgb(22,22,22);stop-opacity:1"/><stop offset="1" style="stop-color:rgb(77,77,77);stop-opacity:1"/></linearGradient>
    </defs>
</svg>
